<svg width="531" height="468" viewBox="0 0 531 468" fill="none" xmlns="http://www.w3.org/2000/svg">
<path d="M0 8C0 12.4183 3.58172 16 8 16C12.4183 16 16 12.4183 16 8C16 3.58172 12.4183 0 8 0C3.58172 0 0 3.58172 0 8ZM515 460C515 464.418 518.582 468 523 468C527.418 468 531 464.418 531 460C531 455.582 527.418 452 523 452C518.582 452 515 455.582 515 460ZM8 8V9.5H503V8V6.5H8V8ZM523 28H521.5V460H523H524.5V28H523ZM503 8V9.5C513.217 9.5 521.5 17.7827 521.5 28H523H524.5C524.5 16.1259 514.874 6.5 503 6.5V8Z" fill="#C12930"/>
</svg>
