<svg width="349" height="376" viewBox="0 0 349 376" fill="none" xmlns="http://www.w3.org/2000/svg">
<path d="M-0.000325521 5.33334C-0.000325521 8.27886 2.38749 10.6667 5.33301 10.6667C8.27853 10.6667 10.6663 8.27886 10.6663 5.33334C10.6663 2.38782 8.27853 1.01725e-05 5.33301 1.01725e-05C2.38749 1.01725e-05 -0.000325521 2.38782 -0.000325521 5.33334ZM338 370.333C338 373.279 340.387 375.667 343.333 375.667C346.279 375.667 348.666 373.279 348.666 370.333C348.666 367.388 346.279 365 343.333 365C340.387 365 338 367.388 338 370.333ZM5.33301 5.33334V6.33334H323.333V5.33334V4.33334H5.33301V5.33334ZM343.333 25.3333H342.333V370.333H343.333H344.333V25.3333H343.333ZM323.333 5.33334V6.33334C333.826 6.33334 342.333 14.8399 342.333 25.3333H343.333H344.333C344.333 13.7354 334.931 4.33334 323.333 4.33334V5.33334Z" fill="#C12930"/>
</svg>
