<svg width="403" height="380" viewBox="0 0 403 380" fill="none" xmlns="http://www.w3.org/2000/svg">
<path d="M0.000162601 5.33334C0.000162601 8.27886 2.38798 10.6667 5.3335 10.6667C8.27901 10.6667 10.6668 8.27886 10.6668 5.33334C10.6668 2.38782 8.27901 1.00136e-05 5.3335 1.00136e-05C2.38798 1.00136e-05 0.000162601 2.38782 0.000162601 5.33334ZM392 374.333C392 377.279 394.388 379.667 397.333 379.667C400.279 379.667 402.667 377.279 402.667 374.333C402.667 371.388 400.279 369 397.333 369C394.388 369 392 371.388 392 374.333ZM5.3335 5.33334V6.33334H377.333V5.33334V4.33334H5.3335V5.33334ZM397.333 25.3333H396.333V374.333H397.333H398.333V25.3333H397.333ZM377.333 5.33334V6.33334C387.827 6.33334 396.333 14.8399 396.333 25.3333H397.333H398.333C398.333 13.7354 388.931 4.33334 377.333 4.33334V5.33334Z" fill="#C12930"/>
</svg>
