<svg width="823" height="562" viewBox="0 0 823 562" fill="none" xmlns="http://www.w3.org/2000/svg">
<path d="M0 8C0 12.4183 3.58172 16 8 16C12.4183 16 16 12.4183 16 8C16 3.58172 12.4183 0 8 0C3.58172 0 0 3.58172 0 8ZM807 554C807 558.418 810.582 562 815 562C819.418 562 823 558.418 823 554C823 549.582 819.418 546 815 546C810.582 546 807 549.582 807 554ZM8 8V9.5H795V8V6.5H8V8ZM815 28H813.5V554H815H816.5V28H815ZM795 8V9.5C805.217 9.5 813.5 17.7827 813.5 28H815H816.5C816.5 16.1259 806.874 6.5 795 6.5V8Z" fill="#C12930"/>
</svg>
