<svg width="918" height="350" viewBox="0 0 918 350" fill="none" xmlns="http://www.w3.org/2000/svg">
<path d="M0 8C0 12.4183 3.58172 16 8 16C12.4183 16 16 12.4183 16 8C16 3.58172 12.4183 0 8 0C3.58172 0 0 3.58172 0 8ZM902 342C902 346.418 905.582 350 910 350C914.418 350 918 346.418 918 342C918 337.582 914.418 334 910 334C905.582 334 902 337.582 902 342ZM8 8H6.5V232.64H8H9.5V8H8ZM28 252.64V254.14H890V252.64V251.14H28V252.64ZM910 272.64H908.5V342H910H911.5V272.64H910ZM890 252.64V254.14C900.217 254.14 908.5 262.423 908.5 272.64H910H911.5C911.5 260.766 901.874 251.14 890 251.14V252.64ZM8 232.64H6.5C6.5 244.514 16.1259 254.14 28 254.14V252.64V251.14C17.7827 251.14 9.5 242.858 9.5 232.64H8Z" fill="#C12930"/>
</svg>
