<svg width="1342" height="350" viewBox="0 0 1342 350" fill="none" xmlns="http://www.w3.org/2000/svg">
<path d="M0 8C0 12.4183 3.58172 16 8 16C12.4183 16 16 12.4183 16 8C16 3.58172 12.4183 0 8 0C3.58172 0 0 3.58172 0 8ZM1326 342C1326 346.418 1329.58 350 1334 350C1338.42 350 1342 346.418 1342 342C1342 337.582 1338.42 334 1334 334C1329.58 334 1326 337.582 1326 342ZM8 8H6.5V232.64H8H9.5V8H8ZM28 252.64V254.14H1314V252.64V251.14H28V252.64ZM1334 272.64H1332.5V342H1334H1335.5V272.64H1334ZM1314 252.64V254.14C1324.22 254.14 1332.5 262.423 1332.5 272.64H1334H1335.5C1335.5 260.766 1325.87 251.14 1314 251.14V252.64ZM8 232.64H6.5C6.5 244.514 16.1259 254.14 28 254.14V252.64V251.14C17.7827 251.14 9.5 242.858 9.5 232.64H8Z" fill="#C12930"/>
</svg>
