<svg width="694" height="345" viewBox="0 0 694 345" fill="none" xmlns="http://www.w3.org/2000/svg">
<path d="M0.000162601 5.33325C0.000162601 8.27877 2.38798 10.6666 5.3335 10.6666C8.27901 10.6666 10.6668 8.27877 10.6668 5.33325C10.6668 2.38773 8.27901 -8.15392e-05 5.3335 -8.15392e-05C2.38798 -8.15392e-05 0.000162601 2.38773 0.000162601 5.33325ZM683 339.333C683 342.279 685.388 344.667 688.333 344.667C691.279 344.667 693.667 342.279 693.667 339.333C693.667 336.388 691.279 334 688.333 334C685.388 334 683 336.388 683 339.333ZM5.3335 5.33325H4.3335V229.974H5.3335H6.3335V5.33325H5.3335ZM25.3335 249.974V250.974H668.333V249.974V248.974H25.3335V249.974ZM688.333 269.974H687.333V339.333H688.333H689.333V269.974H688.333ZM668.333 249.974V250.974C678.827 250.974 687.333 259.48 687.333 269.974H688.333H689.333C689.333 258.376 679.931 248.974 668.333 248.974V249.974ZM5.3335 229.974H4.3335C4.3335 241.572 13.7355 250.974 25.3335 250.974V249.974V248.974C14.8401 248.974 6.3335 240.467 6.3335 229.974H5.3335Z" fill="#C12930"/>
</svg>
