<svg width="366" height="499" viewBox="0 0 366 499" fill="none" xmlns="http://www.w3.org/2000/svg">
<path d="M-0.00032568 5.33325C-0.00032568 8.27877 2.38749 10.6666 5.33301 10.6666C8.27853 10.6666 10.6663 8.27877 10.6663 5.33325C10.6663 2.38773 8.27853 -8.15392e-05 5.33301 -8.15392e-05C2.38749 -8.15392e-05 -0.00032568 2.38773 -0.00032568 5.33325ZM355 493.333C355 496.279 357.388 498.667 360.333 498.667C363.279 498.667 365.666 496.279 365.666 493.333C365.666 490.388 363.279 488 360.333 488C357.388 488 355 490.388 355 493.333ZM360.333 277.333H361.333H360.333ZM5.33301 5.33325H4.33301V237.333H5.33301H6.33301V5.33325H5.33301ZM25.333 257.333V258.333H340.333V257.333V256.333H25.333V257.333ZM360.333 277.333H359.333L359.333 493.333H360.333H361.333L361.333 277.333H360.333ZM340.333 257.333V258.333C350.826 258.333 359.333 266.84 359.333 277.333H360.333H361.333C361.333 265.735 351.931 256.333 340.333 256.333V257.333ZM5.33301 237.333H4.33301C4.33301 248.931 13.735 258.333 25.333 258.333V257.333V256.333C14.8396 256.333 6.33301 247.827 6.33301 237.333H5.33301Z" fill="#C12930"/>
</svg>
