<svg width="426" height="284" viewBox="0 0 426 284" fill="none" xmlns="http://www.w3.org/2000/svg">
<path d="M0 8C0 12.4183 3.58172 16 8 16C12.4183 16 16 12.4183 16 8C16 3.58172 12.4183 0 8 0C3.58172 0 0 3.58172 0 8ZM410 276C410 280.418 413.582 284 418 284C422.418 284 426 280.418 426 276C426 271.582 422.418 268 418 268C413.582 268 410 271.582 410 276ZM8 8H6.5V193.308H8H9.5V8H8ZM28 213.308V214.808H398V213.308V211.808H28V213.308ZM418 233.308H416.5V276H418H419.5V233.308H418ZM398 213.308V214.808C408.217 214.808 416.5 223.09 416.5 233.308H418H419.5C419.5 221.434 409.874 211.808 398 211.808V213.308ZM8 193.308H6.5C6.5 205.182 16.1259 214.808 28 214.808V213.308V211.808C17.7827 211.808 9.5 203.525 9.5 193.308H8Z" fill="#C12930"/>
</svg>
