<svg width="366" height="398" viewBox="0 0 366 398" fill="none" xmlns="http://www.w3.org/2000/svg">
<path d="M0 8C0 12.4183 3.58172 16 8 16C12.4183 16 16 12.4183 16 8C16 3.58172 12.4183 0 8 0C3.58172 0 0 3.58172 0 8ZM350 389.5C350 393.918 353.582 397.5 358 397.5C362.418 397.5 366 393.918 366 389.5C366 385.082 362.418 381.5 358 381.5C353.582 381.5 350 385.082 350 389.5ZM8 8H6.5V96.2308H8H9.5V8H8ZM28 116.231V117.731H338V116.231V114.731H28V116.231ZM358 136.231H356.5V389.5H358H359.5V136.231H358ZM338 116.231V117.731C348.217 117.731 356.5 126.013 356.5 136.231H358H359.5C359.5 124.357 349.874 114.731 338 114.731V116.231ZM8 96.2308H6.5C6.5 108.105 16.1259 117.731 28 117.731V116.231V114.731C17.7827 114.731 9.5 106.448 9.5 96.2308H8Z" fill="#C12930"/>
</svg>
