<svg width="422" height="336" viewBox="0 0 422 336" fill="none" xmlns="http://www.w3.org/2000/svg">
<path d="M0 8C0 12.4183 3.58172 16 8 16C12.4183 16 16 12.4183 16 8C16 3.58172 12.4183 0 8 0C3.58172 0 0 3.58172 0 8ZM406 328C406 332.418 409.582 336 414 336C418.418 336 422 332.418 422 328C422 323.582 418.418 320 414 320C409.582 320 406 323.582 406 328ZM8 8H6.5V209.538H8H9.5V8H8ZM28 229.538V231.038H394V229.538V228.038H28V229.538ZM414 249.538H412.5V328H414H415.5V249.538H414ZM394 229.538V231.038C404.217 231.038 412.5 239.321 412.5 249.538H414H415.5C415.5 237.664 405.874 228.038 394 228.038V229.538ZM8 209.538H6.5C6.5 221.413 16.1259 231.038 28 231.038V229.538V228.038C17.7827 228.038 9.5 219.756 9.5 209.538H8Z" fill="#C12930"/>
</svg>
