<svg width="361" height="635" viewBox="0 0 361 635" fill="none" xmlns="http://www.w3.org/2000/svg">
<path d="M126.167 5.33325C126.167 8.27877 128.554 10.6666 131.5 10.6666C134.446 10.6666 136.833 8.27877 136.833 5.33325C136.833 2.38773 134.446 -8.15392e-05 131.5 -8.15392e-05C128.554 -8.15392e-05 126.167 2.38773 126.167 5.33325ZM349.667 629.333C349.667 632.279 352.054 634.667 355 634.667C357.946 634.667 360.333 632.279 360.333 629.333C360.333 626.388 357.946 624 355 624C352.054 624 349.667 626.388 349.667 629.333ZM21 5.33325V4.33325V5.33325ZM131.5 5.33325V4.33325H21V5.33325V6.33325H131.5V5.33325ZM1 25.3333H0V609.333H1H2V25.3333H1ZM21 629.333V630.333H355V629.333V628.333H21V629.333ZM1 609.333H0C0 620.931 9.40202 630.333 21 630.333V629.333V628.333C10.5066 628.333 2 619.827 2 609.333H1ZM21 5.33325V4.33325C9.40202 4.33325 0 13.7353 0 25.3333H1H2C2 14.8398 10.5066 6.33325 21 6.33325V5.33325Z" fill="#C12930"/>
</svg>
