<svg width="1322" height="412" viewBox="0 0 1322 412" fill="none" xmlns="http://www.w3.org/2000/svg">
<path d="M515.294 8C515.294 12.4183 518.876 16 523.294 16C527.713 16 531.294 12.4183 531.294 8C531.294 3.58172 527.713 0 523.294 0C518.876 0 515.294 3.58172 515.294 8ZM1305.5 404C1305.5 408.418 1309.08 412 1313.5 412C1317.92 412 1321.5 408.418 1321.5 404C1321.5 399.582 1317.92 396 1313.5 396C1309.08 396 1305.5 399.582 1305.5 404ZM523.294 8V6.5H21.5V8V9.5H523.294V8ZM1.5 28H0V384H1.5H3V28H1.5ZM21.5 404V405.5H1313.5V404V402.5H21.5V404ZM1.5 384H0C0 395.874 9.62588 405.5 21.5 405.5V404V402.5C11.2827 402.5 3 394.217 3 384H1.5ZM21.5 8V6.5C9.6259 6.5 0 16.1259 0 28H1.5H3C3 17.7827 11.2828 9.5 21.5 9.5V8Z" fill="#C12930"/>
</svg>
