<svg width="691" height="580" viewBox="0 0 691 580" fill="none" xmlns="http://www.w3.org/2000/svg">
<path d="M277.208 5.33325C277.208 8.27877 279.596 10.6666 282.541 10.6666C285.487 10.6666 287.874 8.27877 287.874 5.33325C287.874 2.38773 285.487 -8.13802e-05 282.541 -8.13802e-05C279.596 -8.13802e-05 277.208 2.38773 277.208 5.33325ZM679.667 574.333C679.667 577.279 682.054 579.667 685 579.667C687.946 579.667 690.333 577.279 690.333 574.333C690.333 571.388 687.946 569 685 569C682.054 569 679.667 571.388 679.667 574.333ZM282.541 5.33325V4.33325H21V5.33325V6.33325H282.541V5.33325ZM1 25.3333H0V554.333H1H2V25.3333H1ZM21 574.333V575.333H685V574.333V573.333H21V574.333ZM1 554.333H0C0 565.931 9.40202 575.333 21 575.333V574.333V573.333C10.5066 573.333 2 564.827 2 554.333H1ZM21 5.33325V4.33325C9.40202 4.33325 0 13.7353 0 25.3333H1H2C2 14.8398 10.5066 6.33325 21 6.33325V5.33325Z" fill="#C12930"/>
</svg>
