<svg width="877" height="583" viewBox="0 0 877 583" fill="none" xmlns="http://www.w3.org/2000/svg">
<path d="M350.366 8C350.366 12.4183 353.947 16 358.366 16C362.784 16 366.366 12.4183 366.366 8C366.366 3.58172 362.784 0 358.366 0C353.947 0 350.366 3.58172 350.366 8ZM860.5 575C860.5 579.418 864.082 583 868.5 583C872.918 583 876.5 579.418 876.5 575C876.5 570.582 872.918 567 868.5 567C864.082 567 860.5 570.582 860.5 575ZM358.366 8V6.5H21.5V8V9.5H358.366V8ZM1.5 28H0V555H1.5H3V28H1.5ZM21.5 575V576.5H868.5V575V573.5H21.5V575ZM1.5 555H0C0 566.874 9.62588 576.5 21.5 576.5V575V573.5C11.2827 573.5 3 565.217 3 555H1.5ZM21.5 8V6.5C9.6259 6.5 0 16.1259 0 28H1.5H3C3 17.7827 11.2828 9.5 21.5 9.5V8Z" fill="#C12930"/>
</svg>
