<svg width="480" height="288" viewBox="0 0 480 288" fill="none" xmlns="http://www.w3.org/2000/svg">
<path d="M480 8C480 12.4183 476.418 16 472 16C467.582 16 464 12.4183 464 8C464 3.58172 467.582 0 472 0C476.418 0 480 3.58172 480 8ZM16 280C16 284.418 12.4183 288 8 288C3.58173 288 0 284.418 0 280C0 275.582 3.58173 272 8 272C12.4183 272 16 275.582 16 280ZM472 8H473.5V193.308H472H470.5V8H472ZM452 213.308V214.808H28V213.308V211.808H452V213.308ZM8 233.308H9.5V280H8H6.5V233.308H8ZM28 213.308V214.808C17.7827 214.808 9.5 223.09 9.5 233.308H8H6.5C6.5 221.434 16.1259 211.808 28 211.808V213.308ZM472 193.308H473.5C473.5 205.182 463.874 214.808 452 214.808V213.308V211.808C462.217 211.808 470.5 203.525 470.5 193.308H472Z" fill="#C12930"/>
</svg>
