<svg width="369" height="422" viewBox="0 0 369 422" fill="none" xmlns="http://www.w3.org/2000/svg">
<path d="M369 8C369 12.4183 365.418 16 361 16C356.582 16 353 12.4183 353 8C353 3.58172 356.582 0 361 0C365.418 0 369 3.58172 369 8ZM16 413.5C16 417.918 12.4183 421.5 8 421.5C3.58173 421.5 0 417.918 0 413.5C0 409.082 3.58173 405.5 8 405.5C12.4183 405.5 16 409.082 16 413.5ZM361 8H362.5V90.2308H361H359.5V8H361ZM341 110.231V111.731H28V110.231V108.731H341V110.231ZM8 130.231H9.5V413.5H8H6.5V130.231H8ZM28 110.231V111.731C17.7827 111.731 9.5 120.013 9.5 130.231H8H6.5C6.5 118.357 16.1259 108.731 28 108.731V110.231ZM361 90.2308H362.5C362.5 102.105 352.874 111.731 341 111.731V110.231V108.731C351.217 108.731 359.5 100.448 359.5 90.2308H361Z" fill="#C12930"/>
</svg>
