<svg width="304" height="220" viewBox="0 0 304 220" fill="none" xmlns="http://www.w3.org/2000/svg">
<path d="M304 8C304 12.4183 300.418 16 296 16C291.582 16 288 12.4183 288 8C288 3.58172 291.582 0 296 0C300.418 0 304 3.58172 304 8ZM16 212C16 216.418 12.4183 220 8 220C3.5817 220 0 216.418 0 212C0 207.582 3.5817 204 8 204C12.4183 204 16 207.582 16 212ZM296 8H297.5V129.231H296H294.5V8H296ZM276 149.231V150.731H28V149.231V147.731H276V149.231ZM8 169.231H9.5V212H8H6.5V169.231H8ZM28 149.231V150.731C17.7827 150.731 9.5 159.014 9.5 169.231H8H6.5C6.5 157.357 16.1259 147.731 28 147.731V149.231ZM296 129.231H297.5C297.5 141.105 287.874 150.731 276 150.731V149.231V147.731C286.217 147.731 294.5 139.448 294.5 129.231H296Z" fill="#C12930"/>
</svg>
