<svg width="11" height="394" viewBox="0 0 11 394" fill="none" xmlns="http://www.w3.org/2000/svg">
<path d="M0.000162601 5.33325C0.00016273 8.27877 2.38798 10.6666 5.3335 10.6666C8.27902 10.6666 10.6668 8.27877 10.6668 5.33325C10.6668 2.38773 8.27901 -8.16679e-05 5.3335 -8.15392e-05C2.38798 -8.14104e-05 0.000162473 2.38773 0.000162601 5.33325ZM0.000179343 388.333C0.000179472 391.279 2.38799 393.667 5.33351 393.667C8.27903 393.667 10.6668 391.279 10.6668 388.333C10.6668 385.388 8.27903 383 5.33351 383C2.38799 383 0.000179214 385.388 0.000179343 388.333ZM5.3335 5.33325L4.3335 5.33325L4.33351 388.333L5.33351 388.333L6.33351 388.333L6.3335 5.33325L5.3335 5.33325Z" fill="#F7F9FC"/>
</svg>
