<svg width="16" height="642" viewBox="0 0 16 642" fill="none" xmlns="http://www.w3.org/2000/svg">
<path d="M0 8C1.93129e-07 12.4183 3.58172 16 8 16C12.4183 16 16 12.4183 16 8C16 3.58172 12.4183 -1.93129e-07 8 0C3.58172 1.93129e-07 -1.93129e-07 3.58172 0 8ZM2.73633e-05 634C2.75565e-05 638.418 3.58175 642 8.00003 642C12.4183 642 16 638.418 16 634C16 629.582 12.4183 626 8.00003 626C3.58175 626 2.71702e-05 629.582 2.73633e-05 634ZM8 8L6.5 8L6.50003 634L8.00003 634L9.50003 634L9.5 8L8 8Z" fill="#F7F9FC"/>
</svg>
