<svg width="11" height="452" viewBox="0 0 11 452" fill="none" xmlns="http://www.w3.org/2000/svg">
<path d="M-0.00032568 5.3335C-0.000325551 8.27902 2.38749 10.6668 5.33301 10.6668C8.27853 10.6668 10.6663 8.27901 10.6663 5.3335C10.6663 2.38798 8.27853 0.000162473 5.33301 0.000162601C2.38749 0.00016273 -0.000325809 2.38798 -0.00032568 5.3335ZM-0.000306403 446.333C-0.000306274 449.279 2.38751 451.667 5.33303 451.667C8.27855 451.667 10.6664 449.279 10.6664 446.333C10.6664 443.388 8.27855 441 5.33303 441C2.38751 441 -0.000306532 443.388 -0.000306403 446.333ZM5.33301 5.3335L4.33301 5.3335L4.33303 446.333L5.33303 446.333L6.33303 446.333L6.33301 5.3335L5.33301 5.3335Z" fill="#F7F9FC"/>
</svg>
