<svg width="17" height="504" viewBox="0 0 17 504" fill="none" xmlns="http://www.w3.org/2000/svg">
<path d="M1.66893e-05 8.01641C0.00907893 12.4347 3.59814 16.009 8.01641 16C12.4347 15.9909 16.009 12.4019 16 7.98359C15.9909 3.56532 12.4019 -0.00904555 7.98359 1.66893e-05C3.56532 0.00907893 -0.00904555 3.59814 1.66893e-05 8.01641ZM1.00002 495.564C1.00908 499.982 4.59814 503.556 9.01641 503.547C13.4347 503.538 17.009 499.949 17 495.531C16.9909 491.113 13.4019 487.538 8.98359 487.547C4.56532 487.556 0.990955 491.146 1.00002 495.564ZM8 8L6.5 8.00308L7.5 495.55L9 495.547L10.5 495.544L9.5 7.99692L8 8Z" fill="#F7F9FC"/>
</svg>
