<svg width="304" height="220" viewBox="0 0 304 220" fill="none" xmlns="http://www.w3.org/2000/svg">
<path d="M0 8C0 12.4183 3.58172 16 8 16C12.4183 16 16 12.4183 16 8C16 3.58172 12.4183 0 8 0C3.58172 0 0 3.58172 0 8ZM288 212C288 216.418 291.582 220 296 220C300.418 220 304 216.418 304 212C304 207.582 300.418 204 296 204C291.582 204 288 207.582 288 212ZM8 8H6.5V129.231H8H9.5V8H8ZM28 149.231V150.731H276V149.231V147.731H28V149.231ZM296 169.231H294.5V212H296H297.5V169.231H296ZM276 149.231V150.731C286.217 150.731 294.5 159.014 294.5 169.231H296H297.5C297.5 157.357 287.874 147.731 276 147.731V149.231ZM8 129.231H6.5C6.5 141.105 16.1259 150.731 28 150.731V149.231V147.731C17.7827 147.731 9.5 139.448 9.5 129.231H8Z" fill="#C12930"/>
</svg>
