<svg width="366" height="458" viewBox="0 0 366 458" fill="none" xmlns="http://www.w3.org/2000/svg">
<path d="M0 8C0 12.4183 3.58172 16 8 16C12.4183 16 16 12.4183 16 8C16 3.58172 12.4183 0 8 0C3.58172 0 0 3.58172 0 8ZM350 449.5C350 453.918 353.582 457.5 358 457.5C362.418 457.5 366 453.918 366 449.5C366 445.082 362.418 441.5 358 441.5C353.582 441.5 350 445.082 350 449.5ZM8 8H6.5V120.231H8H9.5V8H8ZM28 140.231V141.731H338V140.231V138.731H28V140.231ZM358 160.231H356.5V449.5H358H359.5V160.231H358ZM338 140.231V141.731C348.217 141.731 356.5 150.013 356.5 160.231H358H359.5C359.5 148.357 349.874 138.731 338 138.731V140.231ZM8 120.231H6.5C6.5 132.105 16.1259 141.731 28 141.731V140.231V138.731C17.7827 138.731 9.5 130.448 9.5 120.231H8Z" fill="#C12930"/>
</svg>
