<svg width="417" height="441" viewBox="0 0 417 441" fill="none" xmlns="http://www.w3.org/2000/svg">
<path d="M0.000162601 435.333C0.000162601 438.279 2.38798 440.667 5.3335 440.667C8.27901 440.667 10.6668 438.279 10.6668 435.333C10.6668 432.388 8.27901 430 5.3335 430C2.38798 430 0.000162601 432.388 0.000162601 435.333ZM293.663 5.33337C293.663 8.27889 296.05 10.6667 298.996 10.6667C301.941 10.6667 304.329 8.27889 304.329 5.33337C304.329 2.38786 301.941 4.05312e-05 298.996 4.05312e-05C296.05 4.05312e-05 293.663 2.38786 293.663 5.33337ZM5.3335 435.333V436.333H395.333V435.333V434.333H5.3335V435.333ZM415.333 415.333H416.333V25.3334H415.333H414.333V415.333H415.333ZM395.333 5.33337V4.33337H298.996V5.33337V6.33337H395.333V5.33337ZM415.333 25.3334H416.333C416.333 13.7354 406.931 4.33337 395.333 4.33337V5.33337V6.33337C405.827 6.33337 414.333 14.84 414.333 25.3334H415.333ZM395.333 435.333V436.333C406.931 436.333 416.333 426.931 416.333 415.333H415.333H414.333C414.333 425.827 405.827 434.333 395.333 434.333V435.333Z" fill="#F7F9FC"/>
</svg>
