<svg width="569" height="549" viewBox="0 0 569 549" fill="none" xmlns="http://www.w3.org/2000/svg">
<path d="M0 541C0 545.418 3.58172 549 8 549C12.4183 549 16 545.418 16 541C16 536.582 12.4183 533 8 533C3.58172 533 0 536.582 0 541ZM400.384 8C400.384 12.4183 403.965 16 408.384 16C412.802 16 416.384 12.4183 416.384 8C416.384 3.58172 412.802 0 408.384 0C403.965 0 400.384 3.58172 400.384 8ZM8 541V542.5H547V541V539.5H8V541ZM567 521H568.5V28H567H565.5V521H567ZM547 8V6.5H408.384V8V9.5H547V8ZM567 28H568.5C568.5 16.1259 558.874 6.5 547 6.5V8V9.5C557.217 9.5 565.5 17.7827 565.5 28H567ZM547 541V542.5C558.874 542.5 568.5 532.874 568.5 521H567H565.5C565.5 531.217 557.217 539.5 547 539.5V541Z" fill="#F7F9FC"/>
</svg>
