<svg width="189" height="523" viewBox="0 0 189 523" fill="none" xmlns="http://www.w3.org/2000/svg">
<path d="M-0.00032568 517.333C-0.00032568 520.279 2.38749 522.667 5.33301 522.667C8.27853 522.667 10.6663 520.279 10.6663 517.333C10.6663 514.388 8.27853 512 5.33301 512C2.38749 512 -0.00032568 514.388 -0.00032568 517.333ZM123.822 5.33337C123.822 8.27889 126.21 10.6667 129.156 10.6667C132.101 10.6667 134.489 8.27889 134.489 5.33337C134.489 2.38786 132.101 4.05312e-05 129.156 4.05312e-05C126.21 4.05312e-05 123.822 2.38786 123.822 5.33337ZM5.33301 517.333V518.333H167.333V517.333V516.333H5.33301V517.333ZM187.333 497.333H188.333V25.3334H187.333H186.333V497.333H187.333ZM167.333 5.33337V4.33337H129.156V5.33337V6.33337H167.333V5.33337ZM187.333 25.3334H188.333C188.333 13.7354 178.931 4.33337 167.333 4.33337V5.33337V6.33337C177.826 6.33337 186.333 14.84 186.333 25.3334H187.333ZM167.333 517.333V518.333C178.931 518.333 188.333 508.931 188.333 497.333H187.333H186.333C186.333 507.827 177.826 516.333 167.333 516.333V517.333Z" fill="#F7F9FC"/>
</svg>
