<svg width="934" height="646" viewBox="0 0 934 646" fill="none" xmlns="http://www.w3.org/2000/svg">
<path d="M0 638C0 642.418 3.58172 646 8 646C12.4183 646 16 642.418 16 638C16 633.582 12.4183 630 8 630C3.58172 630 0 633.582 0 638ZM577.541 8C577.541 12.4183 581.122 16 585.541 16C589.959 16 593.541 12.4183 593.541 8C593.541 3.58172 589.959 0 585.541 0C581.122 0 577.541 3.58172 577.541 8ZM8 638V639.5H912V638V636.5H8V638ZM932 618H933.5V28H932H930.5V618H932ZM912 8V6.5H585.541V8V9.5H912V8ZM932 28H933.5C933.5 16.1259 923.874 6.5 912 6.5V8V9.5C922.217 9.5 930.5 17.7827 930.5 28H932ZM912 638V639.5C923.874 639.5 933.5 629.874 933.5 618H932H930.5C930.5 628.217 922.217 636.5 912 636.5V638Z" fill="#F7F9FC"/>
</svg>
