<svg width="1340" height="246" viewBox="0 0 1340 246" fill="none" xmlns="http://www.w3.org/2000/svg">
<path d="M0 48.5588C0 52.9771 3.58172 56.5588 8 56.5588C12.4183 56.5588 16 52.9771 16 48.5588C16 44.1405 12.4183 40.5588 8 40.5588C3.58172 40.5588 0 44.1405 0 48.5588ZM885.745 8C885.745 12.4183 889.327 16 893.745 16C898.164 16 901.745 12.4183 901.745 8C901.745 3.58172 898.164 0 893.745 0C889.327 0 885.745 3.58172 885.745 8ZM8 48.5588H6.5V224H8H9.5V48.5588H8ZM28 244V245.5H1318V244V242.5H28V244ZM1338 224H1339.5V28H1338H1336.5V224H1338ZM1318 8V6.5H893.745V8V9.5H1318V8ZM1338 28H1339.5C1339.5 16.1259 1329.87 6.5 1318 6.5V8V9.5C1328.22 9.5 1336.5 17.7827 1336.5 28H1338ZM1318 244V245.5C1329.87 245.5 1339.5 235.874 1339.5 224H1338H1336.5C1336.5 234.217 1328.22 242.5 1318 242.5V244ZM8 224H6.5C6.5 235.874 16.1259 245.5 28 245.5V244V242.5C17.7827 242.5 9.5 234.217 9.5 224H8Z" fill="#F7F9FC"/>
</svg>
