<svg width="876" height="283" viewBox="0 0 876 283" fill="none" xmlns="http://www.w3.org/2000/svg">
<path d="M0 54.9176C0 59.3359 3.58172 62.9176 8 62.9176C12.4183 62.9176 16 59.3359 16 54.9176C16 50.4993 12.4183 46.9176 8 46.9176C3.58172 46.9176 0 50.4993 0 54.9176ZM624.917 8C624.917 12.4183 628.499 16 632.917 16C637.335 16 640.917 12.4183 640.917 8C640.917 3.58172 637.335 0 632.917 0C628.499 0 624.917 3.58172 624.917 8ZM8 54.9176H6.5V261H8H9.5V54.9176H8ZM28 281V282.5H854V281V279.5H28V281ZM874 261H875.5V28H874H872.5V261H874ZM854 8V6.5H632.917V8V9.5H854V8ZM874 28H875.5C875.5 16.1259 865.874 6.5 854 6.5V8V9.5C864.217 9.5 872.5 17.7827 872.5 28H874ZM854 281V282.5C865.874 282.5 875.5 272.874 875.5 261H874H872.5C872.5 271.217 864.217 279.5 854 279.5V281ZM8 261H6.5C6.5 272.874 16.1259 282.5 28 282.5V281V279.5C17.7827 279.5 9.5 271.217 9.5 261H8Z" fill="#F7F9FC"/>
</svg>
