<svg width="329" height="270" viewBox="0 0 329 270" fill="none" xmlns="http://www.w3.org/2000/svg">
<path d="M-0.00032568 48.0479C-0.00032568 50.9934 2.38749 53.3812 5.33301 53.3812C8.27853 53.3812 10.6663 50.9934 10.6663 48.0479C10.6663 45.1024 8.27853 42.7146 5.33301 42.7146C2.38749 42.7146 -0.00032568 45.1024 -0.00032568 48.0479ZM188.5 5.33331C188.5 8.27883 190.887 10.6666 193.833 10.6666C196.779 10.6666 199.166 8.27883 199.166 5.33331C199.166 2.38779 196.779 -2.0504e-05 193.833 -2.0504e-05C190.887 -2.0504e-05 188.5 2.38779 188.5 5.33331ZM5.33301 48.0479H4.33301V248.333H5.33301H6.33301V48.0479H5.33301ZM25.333 268.333V269.333H307.333V268.333V267.333H25.333V268.333ZM327.333 248.333H328.333V25.3333H327.333H326.333V248.333H327.333ZM307.333 5.33331V4.33331H193.833V5.33331V6.33331H307.333V5.33331ZM327.333 25.3333H328.333C328.333 13.7353 318.931 4.33331 307.333 4.33331V5.33331V6.33331C317.826 6.33331 326.333 14.8399 326.333 25.3333H327.333ZM307.333 268.333V269.333C318.931 269.333 328.333 259.931 328.333 248.333H327.333H326.333C326.333 258.827 317.826 267.333 307.333 267.333V268.333ZM5.33301 248.333H4.33301C4.33301 259.931 13.735 269.333 25.333 269.333V268.333V267.333C14.8396 267.333 6.33301 258.827 6.33301 248.333H5.33301Z" fill="#F7F9FC"/>
</svg>
