<svg width="686" height="221" viewBox="0 0 686 221" fill="none" xmlns="http://www.w3.org/2000/svg">
<path d="M0.000162601 42.1112C0.000162601 45.0568 2.38798 47.4446 5.3335 47.4446C8.27901 47.4446 10.6668 45.0568 10.6668 42.1112C10.6668 39.1657 8.27901 36.7779 5.3335 36.7779C2.38798 36.7779 0.000162601 39.1657 0.000162601 42.1112ZM544.975 5.33334C544.975 8.27886 547.363 10.6667 550.309 10.6667C553.254 10.6667 555.642 8.27886 555.642 5.33334C555.642 2.38782 553.254 1.00136e-05 550.309 1.00136e-05C547.363 1.00136e-05 544.975 2.38782 544.975 5.33334ZM5.3335 42.1112H4.3335V199.333H5.3335H6.3335V42.1112H5.3335ZM25.3335 219.333V220.333H664.333V219.333V218.333H25.3335V219.333ZM684.333 199.333H685.333V25.3333H684.333H683.333V199.333H684.333ZM664.333 5.33334V4.33334H550.309V5.33334V6.33334H664.333V5.33334ZM684.333 25.3333H685.333C685.333 13.7354 675.931 4.33334 664.333 4.33334V5.33334V6.33334C674.827 6.33334 683.333 14.8399 683.333 25.3333H684.333ZM664.333 219.333V220.333C675.931 220.333 685.333 210.931 685.333 199.333H684.333H683.333C683.333 209.827 674.827 218.333 664.333 218.333V219.333ZM5.3335 199.333H4.3335C4.3335 210.931 13.7355 220.333 25.3335 220.333V219.333V218.333C14.8401 218.333 6.3335 209.827 6.3335 199.333H5.3335Z" fill="#F7F9FC"/>
</svg>
