<svg width="709" height="368" viewBox="0 0 709 368" fill="none" xmlns="http://www.w3.org/2000/svg">
<path d="M0.000162601 169.682C0.000162601 172.628 2.38798 175.016 5.3335 175.016C8.27901 175.016 10.6668 172.628 10.6668 169.682C10.6668 166.737 8.27901 164.349 5.3335 164.349C2.38798 164.349 0.000162601 166.737 0.000162601 169.682ZM698 5.33331C698 8.27883 700.388 10.6666 703.333 10.6666C706.279 10.6666 708.667 8.27883 708.667 5.33331C708.667 2.38779 706.279 -2.0504e-05 703.333 -2.0504e-05C700.388 -2.0504e-05 698 2.38779 698 5.33331ZM5.3335 169.682V170.682C5.41899 170.682 5.50426 170.682 5.58929 170.682C5.67433 170.682 5.75913 170.682 5.84371 170.682C5.92829 170.682 6.01264 170.682 6.09676 170.682C6.18089 170.682 6.26478 170.682 6.34845 170.682C6.43212 170.682 6.51556 170.682 6.59877 170.682C6.68199 170.682 6.76498 170.682 6.84774 170.682C6.93051 170.682 7.01305 170.682 7.09536 170.682C7.17768 170.682 7.25977 170.682 7.34163 170.682C7.4235 170.682 7.50514 170.682 7.58656 170.682C7.66798 170.682 7.74918 170.682 7.83015 170.682C7.91112 170.682 7.99187 170.682 8.0724 170.682C8.15293 170.682 8.23324 170.682 8.31333 170.682C8.39342 170.682 8.47329 170.682 8.55293 170.682C8.63258 170.682 8.71201 170.682 8.79121 170.682C8.87042 170.682 8.94941 170.682 9.02818 170.682C9.10695 170.682 9.1855 170.682 9.26383 170.682C9.34217 170.682 9.42028 170.682 9.49818 170.682C9.57608 170.682 9.65376 170.682 9.73122 170.682C9.80869 170.682 9.88594 170.682 9.96297 170.682C10.04 170.682 10.1168 170.682 10.1934 170.682C10.27 170.682 10.3464 170.682 10.4226 170.682C10.4988 170.682 10.5747 170.682 10.6505 170.682C10.7262 170.682 10.8017 170.682 10.8771 170.682C10.9524 170.682 11.0275 170.682 11.1024 170.682C11.1773 170.682 11.252 170.682 11.3264 170.682C11.4009 170.682 11.4752 170.682 11.5492 170.682C11.6233 170.682 11.6971 170.682 11.7708 170.682C11.8444 170.682 11.9178 170.682 11.991 170.682C12.0642 170.682 12.1372 170.682 12.21 170.682C12.2828 170.682 12.3554 170.682 12.4278 170.682C12.5002 170.682 12.5723 170.682 12.6443 170.682C12.7163 170.682 12.788 170.682 12.8596 170.682C12.9311 170.682 13.0025 170.682 13.0736 170.682C13.1448 170.682 13.2157 170.682 13.2865 170.682C13.3572 170.682 13.4277 170.682 13.498 170.682C13.5684 170.682 13.6385 170.682 13.7084 170.682C13.7783 170.682 13.848 170.682 13.9176 170.682C13.9871 170.682 14.0564 170.682 14.1255 170.682C14.1946 170.682 14.2635 170.682 14.3322 170.682C14.4009 170.682 14.4694 170.682 14.5377 170.682C14.606 170.682 14.6742 170.682 14.7421 170.682C14.81 170.682 14.8777 170.682 14.9452 170.682C15.0127 170.682 15.08 170.682 15.1471 170.682C15.2142 170.682 15.2812 170.682 15.3479 170.682C15.4146 170.682 15.4811 170.682 15.5475 170.682C15.6138 170.682 15.6799 170.682 15.7458 170.682C15.8118 170.682 15.8775 170.682 15.9431 170.682C16.0086 170.682 16.074 170.682 16.1391 170.682C16.2043 170.682 16.2692 170.682 16.334 170.682C16.3988 170.682 16.4634 170.682 16.5277 170.682C16.5921 170.682 16.6563 170.682 16.7203 170.682C16.7843 170.682 16.8481 170.682 16.9117 170.682C16.9754 170.682 17.0388 170.682 17.102 170.682C17.1653 170.682 17.2283 170.682 17.2912 170.682C17.354 170.682 17.4167 170.682 17.4792 170.682C17.5416 170.682 17.6039 170.682 17.666 170.682C17.7281 170.682 17.79 170.682 17.8518 170.682C17.9135 170.682 17.975 170.682 18.0364 170.682C18.0977 170.682 18.1589 170.682 18.2199 170.682C18.2809 170.682 18.3417 170.682 18.4023 170.682C18.4629 170.682 18.5233 170.682 18.5835 170.682C18.6438 170.682 18.7038 170.682 18.7637 170.682C18.8236 170.682 18.8833 170.682 18.9428 170.682C19.0023 170.682 19.0616 170.682 19.1207 170.682C19.1799 170.682 19.2388 170.682 19.2976 170.682C19.3564 170.682 19.415 170.682 19.4734 170.682C19.5318 170.682 19.5901 170.682 19.6481 170.682C19.7062 170.682 19.7641 170.682 19.8217 170.682C19.8794 170.682 19.937 170.682 19.9943 170.682C20.0516 170.682 20.1088 170.682 20.1658 170.682C20.2228 170.682 20.2796 170.682 20.3362 170.682C20.3928 170.682 20.4493 170.682 20.5056 170.682C20.5618 170.682 20.6179 170.682 20.6739 170.682C20.7298 170.682 20.7856 170.682 20.8411 170.682C20.8967 170.682 20.9521 170.682 21.0073 170.682C21.0626 170.682 21.1176 170.682 21.1725 170.682C21.2274 170.682 21.2821 170.682 21.3366 170.682C21.3912 170.682 21.4455 170.682 21.4997 170.682C21.5539 170.682 21.6079 170.682 21.6618 170.682C21.7156 170.682 21.7693 170.682 21.8228 170.682C21.8763 170.682 21.9296 170.682 21.9828 170.682C22.036 170.682 22.089 170.682 22.1418 170.682C22.1946 170.682 22.2473 170.682 22.2998 170.682C22.3523 170.682 22.4046 170.682 22.4568 170.682C22.5089 170.682 22.5609 170.682 22.6128 170.682C22.6646 170.682 22.7162 170.682 22.7677 170.682C22.8192 170.682 22.8706 170.682 22.9217 170.682C22.9729 170.682 23.0239 170.682 23.0747 170.682C23.1256 170.682 23.1762 170.682 23.2267 170.682C23.2772 170.682 23.3276 170.682 23.3778 170.682C23.428 170.682 23.478 170.682 23.5278 170.682C23.5777 170.682 23.6274 170.682 23.6769 170.682C23.7264 170.682 23.7758 170.682 23.825 170.682C23.8742 170.682 23.9233 170.682 23.9722 170.682C24.0211 170.682 24.0698 170.682 24.1184 170.682C24.167 170.682 24.2154 170.682 24.2636 170.682C24.3119 170.682 24.36 170.682 24.4079 170.682C24.4559 170.682 24.5037 170.682 24.5513 170.682C24.5989 170.682 24.6464 170.682 24.6937 170.682C24.741 170.682 24.7882 170.682 24.8352 170.682C24.8822 170.682 24.929 170.682 24.9757 170.682C25.0224 170.682 25.069 170.682 25.1153 170.682C25.1617 170.682 25.208 170.682 25.254 170.682C25.3001 170.682 25.346 170.682 25.3918 170.682C25.4376 170.682 25.4832 170.682 25.5287 170.682C25.5742 170.682 25.6195 170.682 25.6646 170.682C25.7098 170.682 25.7548 170.682 25.7997 170.682C25.8446 170.682 25.8893 170.682 25.9339 170.682C25.9784 170.682 26.0229 170.682 26.0671 170.682C26.1114 170.682 26.1555 170.682 26.1995 170.682C26.2435 170.682 26.2873 170.682 26.331 170.682C26.3747 170.682 26.4182 170.682 26.4616 170.682C26.505 170.682 26.5482 170.682 26.5913 170.682C26.6344 170.682 26.6774 170.682 26.7202 170.682C26.763 170.682 26.8056 170.682 26.8481 170.682C26.8907 170.682 26.933 170.682 26.9753 170.682C27.0175 170.682 27.0596 170.682 27.1015 170.682C27.1435 170.682 27.1853 170.682 27.2269 170.682C27.2686 170.682 27.3101 170.682 27.3515 170.682C27.3929 170.682 27.4341 170.682 27.4752 170.682C27.5163 170.682 27.5572 170.682 27.5981 170.682C27.6389 170.682 27.6796 170.682 27.7201 170.682C27.7606 170.682 27.801 170.682 27.8413 170.682C27.8816 170.682 27.9217 170.682 27.9617 170.682C28.0017 170.682 28.0415 170.682 28.0812 170.682C28.1209 170.682 28.1605 170.682 28.1999 170.682C28.2394 170.682 28.2787 170.682 28.3179 170.682C28.357 170.682 28.3961 170.682 28.435 170.682C28.4739 170.682 28.5126 170.682 28.5513 170.682C28.5899 170.682 28.6284 170.682 28.6668 170.682C28.7051 170.682 28.7434 170.682 28.7815 170.682C28.8196 170.682 28.8575 170.682 28.8954 170.682C28.9332 170.682 28.9709 170.682 29.0085 170.682C29.0461 170.682 29.0835 170.682 29.1208 170.682C29.1582 170.682 29.1953 170.682 29.2324 170.682C29.2695 170.682 29.3064 170.682 29.3432 170.682C29.38 170.682 29.4167 170.682 29.4532 170.682C29.4897 170.682 29.5262 170.682 29.5625 170.682C29.5987 170.682 29.6349 170.682 29.6709 170.682C29.707 170.682 29.7429 170.682 29.7787 170.682C29.8145 170.682 29.8501 170.682 29.8857 170.682C29.9212 170.682 29.9566 170.682 29.9919 170.682C30.0272 170.682 30.0623 170.682 30.0974 170.682C30.1324 170.682 30.1673 170.682 30.2021 170.682C30.2369 170.682 30.2716 170.682 30.3062 170.682C30.3407 170.682 30.3751 170.682 30.4095 170.682C30.4438 170.682 30.478 170.682 30.512 170.682C30.5461 170.682 30.58 170.682 30.6139 170.682C30.6477 170.682 30.6814 170.682 30.715 170.682C30.7486 170.682 30.7821 170.682 30.8154 170.682C30.8488 170.682 30.882 170.682 30.9151 170.682C30.9482 170.682 30.9812 170.682 31.0141 170.682C31.047 170.682 31.0798 170.682 31.1124 170.682C31.1451 170.682 31.1776 170.682 31.2101 170.682C31.2425 170.682 31.2748 170.682 31.307 170.682C31.3392 170.682 31.3713 170.682 31.4032 170.682C31.4352 170.682 31.467 170.682 31.4988 170.682C31.5305 170.682 31.5622 170.682 31.5937 170.682C31.6252 170.682 31.6566 170.682 31.6879 170.682C31.7192 170.682 31.7504 170.682 31.7814 170.682C31.8125 170.682 31.8435 170.682 31.8743 170.682C31.9052 170.682 31.9359 170.682 31.9666 170.682C31.9972 170.682 32.0277 170.682 32.0581 170.682C32.0885 170.682 32.1189 170.682 32.1491 170.682C32.1793 170.682 32.2094 170.682 32.2393 170.682C32.2693 170.682 32.2992 170.682 32.329 170.682C32.3588 170.682 32.3884 170.682 32.418 170.682C32.4476 170.682 32.477 170.682 32.5064 170.682C32.5357 170.682 32.565 170.682 32.5941 170.682C32.6233 170.682 32.6523 170.682 32.6812 170.682C32.7102 170.682 32.739 170.682 32.7678 170.682C32.7965 170.682 32.8251 170.682 32.8536 170.682C32.8822 170.682 32.9106 170.682 32.9389 170.682C32.9673 170.682 32.9955 170.682 33.0236 170.682C33.0517 170.682 33.0798 170.682 33.1077 170.682C33.1356 170.682 33.1635 170.682 33.1912 170.682C33.2189 170.682 33.2466 170.682 33.2741 170.682C33.3016 170.682 33.3291 170.682 33.3564 170.682C33.3837 170.682 33.411 170.682 33.4381 170.682C33.4653 170.682 33.4923 170.682 33.5193 170.682C33.5462 170.682 33.5731 170.682 33.5999 170.682C33.6266 170.682 33.6533 170.682 33.6799 170.682C33.7065 170.682 33.7329 170.682 33.7593 170.682C33.7857 170.682 33.812 170.682 33.8382 170.682C33.8644 170.682 33.8905 170.682 33.9166 170.682C33.9426 170.682 33.9685 170.682 33.9943 170.682C34.0202 170.682 34.0459 170.682 34.0716 170.682C34.0972 170.682 34.1228 170.682 34.1483 170.682C34.1738 170.682 34.1991 170.682 34.2244 170.682C34.2497 170.682 34.2749 170.682 34.3001 170.682C34.3252 170.682 34.3502 170.682 34.3752 170.682C34.4001 170.682 34.425 170.682 34.4497 170.682C34.4745 170.682 34.4992 170.682 34.5238 170.682C34.5484 170.682 34.5729 170.682 34.5973 170.682C34.6218 170.682 34.6461 170.682 34.6704 170.682C34.6946 170.682 34.7188 170.682 34.7429 170.682C34.767 170.682 34.791 170.682 34.8149 170.682C34.8389 170.682 34.8627 170.682 34.8865 170.682C34.9102 170.682 34.9339 170.682 34.9575 170.682C34.9811 170.682 35.0046 170.682 35.028 170.682C35.0515 170.682 35.0748 170.682 35.0981 170.682C35.1214 170.682 35.1446 170.682 35.1677 170.682C35.1908 170.682 35.2139 170.682 35.2368 170.682C35.2598 170.682 35.2827 170.682 35.3055 170.682C35.3283 170.682 35.351 170.682 35.3736 170.682C35.3963 170.682 35.4189 170.682 35.4414 170.682C35.4639 170.682 35.4863 170.682 35.5086 170.682C35.531 170.682 35.5532 170.682 35.5754 170.682C35.5976 170.682 35.6197 170.682 35.6418 170.682C35.6638 170.682 35.6858 170.682 35.7077 170.682C35.7296 170.682 35.7514 170.682 35.7732 170.682C35.7949 170.682 35.8166 170.682 35.8382 170.682C35.8598 170.682 35.8814 170.682 35.9029 170.682C35.9243 170.682 35.9457 170.682 35.967 170.682C35.9884 170.682 36.0096 170.682 36.0308 170.682C36.052 170.682 36.0731 170.682 36.0942 170.682C36.1152 170.682 36.1362 170.682 36.1571 170.682C36.178 170.682 36.1989 170.682 36.2197 170.682C36.2404 170.682 36.2611 170.682 36.2818 170.682C36.3024 170.682 36.323 170.682 36.3435 170.682C36.364 170.682 36.3845 170.682 36.4049 170.682C36.4253 170.682 36.4456 170.682 36.4658 170.682C36.4861 170.682 36.5063 170.682 36.5264 170.682C36.5465 170.682 36.5666 170.682 36.5866 170.682C36.6066 170.682 36.6265 170.682 36.6464 170.682C36.6663 170.682 36.6861 170.682 36.7058 170.682C36.7256 170.682 36.7453 170.682 36.7649 170.682C36.7845 170.682 36.8041 170.682 36.8236 170.682C36.8431 170.682 36.8626 170.682 36.882 170.682C36.9014 170.682 36.9207 170.682 36.94 170.682C36.9593 170.682 36.9785 170.682 36.9976 170.682C37.0168 170.682 37.0359 170.682 37.0549 170.682C37.074 170.682 37.093 170.682 37.1119 170.682C37.1308 170.682 37.1497 170.682 37.1685 170.682C37.1874 170.682 37.2061 170.682 37.2248 170.682C37.2436 170.682 37.2622 170.682 37.2808 170.682C37.2994 170.682 37.318 170.682 37.3365 170.682C37.355 170.682 37.3734 170.682 37.3918 170.682C37.4102 170.682 37.4285 170.682 37.4468 170.682C37.4651 170.682 37.4833 170.682 37.5015 170.682C37.5197 170.682 37.5379 170.682 37.5559 170.682C37.574 170.682 37.5921 170.682 37.6101 170.682C37.628 170.682 37.646 170.682 37.6639 170.682C37.6818 170.682 37.6996 170.682 37.7174 170.682C37.7352 170.682 37.7529 170.682 37.7706 170.682C37.7883 170.682 37.806 170.682 37.8236 170.682C37.8412 170.682 37.8588 170.682 37.8763 170.682C37.8938 170.682 37.9113 170.682 37.9287 170.682C37.9461 170.682 37.9635 170.682 37.9808 170.682C37.9981 170.682 38.0154 170.682 38.0327 170.682C38.0499 170.682 38.0671 170.682 38.0843 170.682C38.1015 170.682 38.1186 170.682 38.1357 170.682C38.1527 170.682 38.1698 170.682 38.1868 170.682C38.2038 170.682 38.2207 170.682 38.2376 170.682C38.2545 170.682 38.2714 170.682 38.2883 170.682C38.3051 170.682 38.3219 170.682 38.3386 170.682C38.3554 170.682 38.3721 170.682 38.3888 170.682C38.4055 170.682 38.4221 170.682 38.4387 170.682C38.4553 170.682 38.4719 170.682 38.4884 170.682C38.5049 170.682 38.5214 170.682 38.5379 170.682C38.5544 170.682 38.5708 170.682 38.5872 170.682C38.6035 170.682 38.6199 170.682 38.6362 170.682C38.6525 170.682 38.6688 170.682 38.6851 170.682C38.7013 170.682 38.7175 170.682 38.7337 170.682C38.7499 170.682 38.7661 170.682 38.7822 170.682C38.7983 170.682 38.8144 170.682 38.8304 170.682C38.8465 170.682 38.8625 170.682 38.8785 170.682C38.8945 170.682 38.9105 170.682 38.9264 170.682C38.9423 170.682 38.9582 170.682 38.9741 170.682C38.99 170.682 39.0058 170.682 39.0216 170.682C39.0375 170.682 39.0533 170.682 39.069 170.682C39.0848 170.682 39.1005 170.682 39.1162 170.682C39.1319 170.682 39.1476 170.682 39.1633 170.682C39.1789 170.682 39.1945 170.682 39.2101 170.682C39.2257 170.682 39.2413 170.682 39.2569 170.682C39.2724 170.682 39.288 170.682 39.3035 170.682C39.319 170.682 39.3344 170.682 39.3499 170.682C39.3654 170.682 39.3808 170.682 39.3962 170.682C39.4116 170.682 39.427 170.682 39.4424 170.682C39.4577 170.682 39.4731 170.682 39.4884 170.682C39.5037 170.682 39.5191 170.682 39.5343 170.682C39.5496 170.682 39.5649 170.682 39.5801 170.682C39.5954 170.682 39.6106 170.682 39.6258 170.682C39.641 170.682 39.6562 170.682 39.6714 170.682C39.6865 170.682 39.7017 170.682 39.7168 170.682C39.732 170.682 39.7471 170.682 39.7622 170.682C39.7773 170.682 39.7924 170.682 39.8075 170.682C39.8225 170.682 39.8376 170.682 39.8526 170.682C39.8677 170.682 39.8827 170.682 39.8977 170.682C39.9127 170.682 39.9277 170.682 39.9427 170.682C39.9577 170.682 39.9726 170.682 39.9876 170.682C40.0026 170.682 40.0175 170.682 40.0324 170.682C40.0474 170.682 40.0623 170.682 40.0772 170.682C40.0921 170.682 40.107 170.682 40.1219 170.682C40.1368 170.682 40.1517 170.682 40.1665 170.682C40.1814 170.682 40.1963 170.682 40.2111 170.682C40.226 170.682 40.2408 170.682 40.2556 170.682C40.2705 170.682 40.2853 170.682 40.3001 170.682C40.3149 170.682 40.3297 170.682 40.3445 170.682C40.3593 170.682 40.3741 170.682 40.3889 170.682C40.4037 170.682 40.4185 170.682 40.4333 170.682C40.4481 170.682 40.4628 170.682 40.4776 170.682C40.4924 170.682 40.5071 170.682 40.5219 170.682C40.5367 170.682 40.5514 170.682 40.5662 170.682C40.5809 170.682 40.5957 170.682 40.6104 170.682C40.6252 170.682 40.6399 170.682 40.6547 170.682C40.6694 170.682 40.6842 170.682 40.6989 170.682C40.7136 170.682 40.7284 170.682 40.7431 170.682C40.7579 170.682 40.7726 170.682 40.7874 170.682C40.8021 170.682 40.8169 170.682 40.8316 170.682C40.8464 170.682 40.8611 170.682 40.8759 170.682C40.8906 170.682 40.9054 170.682 40.9201 170.682C40.9349 170.682 40.9496 170.682 40.9644 170.682C40.9791 170.682 40.9939 170.682 41.0087 170.682C41.0235 170.682 41.0382 170.682 41.053 170.682C41.0678 170.682 41.0826 170.682 41.0974 170.682C41.1122 170.682 41.127 170.682 41.1418 170.682C41.1566 170.682 41.1714 170.682 41.1862 170.682C41.201 170.682 41.2159 170.682 41.2307 170.682C41.2455 170.682 41.2604 170.682 41.2752 170.682C41.2901 170.682 41.3049 170.682 41.3198 170.682C41.3347 170.682 41.3496 170.682 41.3644 170.682C41.3793 170.682 41.3942 170.682 41.4091 170.682C41.4241 170.682 41.439 170.682 41.4539 170.682C41.4689 170.682 41.4838 170.682 41.4988 170.682C41.5137 170.682 41.5287 170.682 41.5437 170.682C41.5587 170.682 41.5737 170.682 41.5887 170.682C41.6037 170.682 41.6187 170.682 41.6338 170.682C41.6488 170.682 41.6639 170.682 41.679 170.682C41.694 170.682 41.7091 170.682 41.7242 170.682C41.7393 170.682 41.7545 170.682 41.7696 170.682C41.7847 170.682 41.7999 170.682 41.8151 170.682C41.8302 170.682 41.8454 170.682 41.8607 170.682C41.8759 170.682 41.8911 170.682 41.9063 170.682C41.9216 170.682 41.9369 170.682 41.9522 170.682C41.9674 170.682 41.9828 170.682 41.9981 170.682C42.0134 170.682 42.0288 170.682 42.0441 170.682C42.0595 170.682 42.0749 170.682 42.0903 170.682C42.1058 170.682 42.1212 170.682 42.1367 170.682C42.1521 170.682 42.1676 170.682 42.1831 170.682C42.1986 170.682 42.2142 170.682 42.2297 170.682C42.2453 170.682 42.2609 170.682 42.2765 170.682C42.2921 170.682 42.3077 170.682 42.3234 170.682C42.339 170.682 42.3547 170.682 42.3704 170.682C42.3862 170.682 42.4019 170.682 42.4177 170.682C42.4334 170.682 42.4492 170.682 42.4651 170.682C42.4809 170.682 42.4967 170.682 42.5126 170.682C42.5285 170.682 42.5444 170.682 42.5603 170.682C42.5763 170.682 42.5923 170.682 42.6083 170.682C42.6243 170.682 42.6403 170.682 42.6564 170.682C42.6724 170.682 42.6885 170.682 42.7046 170.682C42.7208 170.682 42.7369 170.682 42.7531 170.682C42.7693 170.682 42.7855 170.682 42.8018 170.682C42.8181 170.682 42.8344 170.682 42.8507 170.682C42.867 170.682 42.8834 170.682 42.8998 170.682C42.9162 170.682 42.9326 170.682 42.9491 170.682C42.9655 170.682 42.982 170.682 42.9986 170.682C43.0151 170.682 43.0317 170.682 43.0483 170.682C43.0649 170.682 43.0816 170.682 43.0983 170.682C43.1149 170.682 43.1317 170.682 43.1484 170.682C43.1652 170.682 43.182 170.682 43.1989 170.682C43.2157 170.682 43.2326 170.682 43.2495 170.682C43.2664 170.682 43.2834 170.682 43.3004 170.682C43.3174 170.682 43.3345 170.682 43.3515 170.682C43.3686 170.682 43.3858 170.682 43.4029 170.682C43.4201 170.682 43.4373 170.682 43.4546 170.682C43.4718 170.682 43.4891 170.682 43.5065 170.682C43.5238 170.682 43.5412 170.682 43.5587 170.682C43.5761 170.682 43.5936 170.682 43.6111 170.682C43.6286 170.682 43.6462 170.682 43.6638 170.682C43.6814 170.682 43.6991 170.682 43.7168 170.682C43.7345 170.682 43.7523 170.682 43.7701 170.682C43.7879 170.682 43.8057 170.682 43.8237 170.682C43.8416 170.682 43.8595 170.682 43.8775 170.682C43.8955 170.682 43.9136 170.682 43.9317 170.682C43.9498 170.682 43.9679 170.682 43.9861 170.682C44.0043 170.682 44.0226 170.682 44.0409 170.682C44.0592 170.682 44.0775 170.682 44.0959 170.682C44.1143 170.682 44.1328 170.682 44.1513 170.682C44.1698 170.682 44.1884 170.682 44.207 170.682C44.2256 170.682 44.2443 170.682 44.263 170.682C44.2817 170.682 44.3005 170.682 44.3194 170.682C44.3382 170.682 44.3571 170.682 44.376 170.682C44.395 170.682 44.414 170.682 44.433 170.682C44.4521 170.682 44.4712 170.682 44.4904 170.682C44.5096 170.682 44.5288 170.682 44.5481 170.682C44.5674 170.682 44.5867 170.682 44.6061 170.682C44.6255 170.682 44.645 170.682 44.6645 170.682C44.6841 170.682 44.7037 170.682 44.7233 170.682C44.743 170.682 44.7627 170.682 44.7824 170.682C44.8022 170.682 44.822 170.682 44.8419 170.682C44.8618 170.682 44.8818 170.682 44.9018 170.682C44.9218 170.682 44.9419 170.682 44.962 170.682C44.9822 170.682 45.0024 170.682 45.0226 170.682C45.0429 170.682 45.0632 170.682 45.0836 170.682C45.104 170.682 45.1245 170.682 45.145 170.682C45.1656 170.682 45.1862 170.682 45.2068 170.682C45.2275 170.682 45.2482 170.682 45.269 170.682C45.2898 170.682 45.3107 170.682 45.3316 170.682C45.3525 170.682 45.3735 170.682 45.3946 170.682C45.4157 170.682 45.4368 170.682 45.458 170.682C45.4792 170.682 45.5005 170.682 45.5218 170.682C45.5432 170.682 45.5646 170.682 45.5861 170.682C45.6076 170.682 45.6291 170.682 45.6508 170.682C45.6724 170.682 45.6941 170.682 45.7159 170.682C45.7376 170.682 45.7595 170.682 45.7814 170.682C45.8033 170.682 45.8253 170.682 45.8474 170.682C45.8694 170.682 45.8916 170.682 45.9138 170.682C45.936 170.682 45.9583 170.682 45.9807 170.682C46.003 170.682 46.0255 170.682 46.048 170.682C46.0705 170.682 46.0931 170.682 46.1158 170.682C46.1384 170.682 46.1612 170.682 46.184 170.682C46.2068 170.682 46.2297 170.682 46.2527 170.682C46.2757 170.682 46.2987 170.682 46.3219 170.682C46.345 170.682 46.3682 170.682 46.3915 170.682C46.4148 170.682 46.4382 170.682 46.4617 170.682C46.4851 170.682 46.5087 170.682 46.5323 170.682C46.5559 170.682 46.5796 170.682 46.6034 170.682C46.6272 170.682 46.651 170.682 46.675 170.682C46.6989 170.682 46.723 170.682 46.7471 170.682C46.7712 170.682 46.7954 170.682 46.8197 170.682C46.8439 170.682 46.8683 170.682 46.8928 170.682C46.9172 170.682 46.9417 170.682 46.9664 170.682C46.991 170.682 47.0157 170.682 47.0405 170.682C47.0653 170.682 47.0902 170.682 47.1151 170.682C47.1401 170.682 47.1652 170.682 47.1903 170.682C47.2155 170.682 47.2407 170.682 47.266 170.682C47.2913 170.682 47.3167 170.682 47.3422 170.682C47.3677 170.682 47.3933 170.682 47.419 170.682C47.4447 170.682 47.4705 170.682 47.4963 170.682C47.5222 170.682 47.5481 170.682 47.5742 170.682C47.6002 170.682 47.6264 170.682 47.6526 170.682C47.6788 170.682 47.7051 170.682 47.7315 170.682C47.758 170.682 47.7845 170.682 47.8111 170.682C47.8377 170.682 47.8644 170.682 47.8912 170.682C47.9179 170.682 47.9448 170.682 47.9718 170.682C47.9988 170.682 48.0259 170.682 48.053 170.682C48.0802 170.682 48.1075 170.682 48.1348 170.682C48.1622 170.682 48.1897 170.682 48.2172 170.682C48.2448 170.682 48.2725 170.682 48.3002 170.682C48.328 170.682 48.3558 170.682 48.3838 170.682C48.4117 170.682 48.4398 170.682 48.4679 170.682C48.4961 170.682 48.5244 170.682 48.5527 170.682C48.5811 170.682 48.6095 170.682 48.6381 170.682C48.6666 170.682 48.6953 170.682 48.7241 170.682C48.7528 170.682 48.7817 170.682 48.8106 170.682C48.8396 170.682 48.8687 170.682 48.8979 170.682C48.927 170.682 48.9563 170.682 48.9857 170.682C49.0151 170.682 49.0446 170.682 49.0741 170.682C49.1037 170.682 49.1334 170.682 49.1632 170.682C49.193 170.682 49.2229 170.682 49.253 170.682C49.283 170.682 49.3131 170.682 49.3433 170.682C49.3736 170.682 49.4039 170.682 49.4343 170.682C49.4648 170.682 49.4953 170.682 49.526 170.682C49.5567 170.682 49.5874 170.682 49.6183 170.682C49.6492 170.682 49.6802 170.682 49.7113 170.682C49.7424 170.682 49.7736 170.682 49.8049 170.682C49.8363 170.682 49.8677 170.682 49.8992 170.682C49.9308 170.682 49.9624 170.682 49.9942 170.682C50.026 170.682 50.0579 170.682 50.0899 170.682C50.1219 170.682 50.154 170.682 50.1862 170.682C50.2184 170.682 50.2508 170.682 50.2832 170.682C50.3157 170.682 50.3482 170.682 50.3809 170.682C50.4136 170.682 50.4464 170.682 50.4793 170.682C50.5122 170.682 50.5453 170.682 50.5784 170.682C50.6116 170.682 50.6448 170.682 50.6782 170.682C50.7116 170.682 50.7451 170.682 50.7787 170.682C50.8124 170.682 50.8461 170.682 50.88 170.682C50.9138 170.682 50.9478 170.682 50.9819 170.682C51.016 170.682 51.0502 170.682 51.0846 170.682C51.1189 170.682 51.1534 170.682 51.1879 170.682C51.2225 170.682 51.2572 170.682 51.2921 170.682C51.3269 170.682 51.3618 170.682 51.3969 170.682C51.432 170.682 51.4672 170.682 51.5025 170.682C51.5378 170.682 51.5733 170.682 51.6088 170.682C51.6444 170.682 51.6801 170.682 51.7159 170.682C51.7517 170.682 51.7877 170.682 51.8237 170.682C51.8598 170.682 51.896 170.682 51.9323 170.682C51.9687 170.682 52.0051 170.682 52.0417 170.682C52.0783 170.682 52.115 170.682 52.1518 170.682C52.1886 170.682 52.2256 170.682 52.2627 170.682C52.2998 170.682 52.337 170.682 52.3744 170.682C52.4117 170.682 52.4492 170.682 52.4868 170.682C52.5244 170.682 52.5622 170.682 52.6 170.682C52.6379 170.682 52.6759 170.682 52.714 170.682C52.7522 170.682 52.7904 170.682 52.8288 170.682C52.8672 170.682 52.9058 170.682 52.9445 170.682C52.9831 170.682 53.0219 170.682 53.0609 170.682C53.0998 170.682 53.1389 170.682 53.1781 170.682C53.2173 170.682 53.2566 170.682 53.2961 170.682C53.3356 170.682 53.3752 170.682 53.4149 170.682C53.4547 170.682 53.4946 170.682 53.5346 170.682C53.5746 170.682 53.6148 170.682 53.6551 170.682C53.6954 170.682 53.7358 170.682 53.7764 170.682C53.8169 170.682 53.8577 170.682 53.8985 170.682C53.9394 170.682 53.9804 170.682 54.0215 170.682C54.0626 170.682 54.1039 170.682 54.1453 170.682C54.1867 170.682 54.2283 170.682 54.27 170.682C54.3117 170.682 54.3535 170.682 54.3955 170.682C54.4375 170.682 54.4796 170.682 54.5219 170.682C54.5641 170.682 54.6066 170.682 54.6491 170.682C54.6917 170.682 54.7344 170.682 54.7772 170.682C54.8201 170.682 54.863 170.682 54.9062 170.682C54.9493 170.682 54.9926 170.682 55.036 170.682C55.0794 170.682 55.123 170.682 55.1667 170.682C55.2105 170.682 55.2543 170.682 55.2983 170.682C55.3424 170.682 55.3865 170.682 55.4308 170.682C55.4751 170.682 55.5196 170.682 55.5642 170.682C55.6088 170.682 55.6536 170.682 55.6985 170.682C55.7434 170.682 55.7884 170.682 55.8337 170.682C55.8789 170.682 55.9242 170.682 55.9697 170.682C56.0152 170.682 56.0609 170.682 56.1067 170.682V169.682V168.682C56.0609 168.682 56.0152 168.682 55.9697 168.682C55.9242 168.682 55.8789 168.682 55.8337 168.682C55.7884 168.682 55.7434 168.682 55.6985 168.682C55.6536 168.682 55.6088 168.682 55.5642 168.682C55.5196 168.682 55.4751 168.682 55.4308 168.682C55.3865 168.682 55.3424 168.682 55.2983 168.682C55.2543 168.682 55.2105 168.682 55.1667 168.682C55.123 168.682 55.0794 168.682 55.036 168.682C54.9926 168.682 54.9493 168.682 54.9062 168.682C54.863 168.682 54.8201 168.682 54.7772 168.682C54.7344 168.682 54.6917 168.682 54.6491 168.682C54.6066 168.682 54.5641 168.682 54.5219 168.682C54.4796 168.682 54.4375 168.682 54.3955 168.682C54.3535 168.682 54.3117 168.682 54.27 168.682C54.2283 168.682 54.1867 168.682 54.1453 168.682C54.1039 168.682 54.0626 168.682 54.0215 168.682C53.9804 168.682 53.9394 168.682 53.8985 168.682C53.8577 168.682 53.8169 168.682 53.7764 168.682C53.7358 168.682 53.6954 168.682 53.6551 168.682C53.6148 168.682 53.5746 168.682 53.5346 168.682C53.4946 168.682 53.4547 168.682 53.4149 168.682C53.3752 168.682 53.3356 168.682 53.2961 168.682C53.2566 168.682 53.2173 168.682 53.1781 168.682C53.1389 168.682 53.0998 168.682 53.0609 168.682C53.0219 168.682 52.9831 168.682 52.9445 168.682C52.9058 168.682 52.8672 168.682 52.8288 168.682C52.7904 168.682 52.7522 168.682 52.714 168.682C52.6759 168.682 52.6379 168.682 52.6 168.682C52.5622 168.682 52.5244 168.682 52.4868 168.682C52.4492 168.682 52.4117 168.682 52.3744 168.682C52.337 168.682 52.2998 168.682 52.2627 168.682C52.2256 168.682 52.1886 168.682 52.1518 168.682C52.115 168.682 52.0783 168.682 52.0417 168.682C52.0051 168.682 51.9687 168.682 51.9323 168.682C51.896 168.682 51.8598 168.682 51.8237 168.682C51.7877 168.682 51.7517 168.682 51.7159 168.682C51.6801 168.682 51.6444 168.682 51.6088 168.682C51.5733 168.682 51.5378 168.682 51.5025 168.682C51.4672 168.682 51.432 168.682 51.3969 168.682C51.3618 168.682 51.3269 168.682 51.2921 168.682C51.2572 168.682 51.2225 168.682 51.1879 168.682C51.1534 168.682 51.1189 168.682 51.0846 168.682C51.0502 168.682 51.016 168.682 50.9819 168.682C50.9478 168.682 50.9138 168.682 50.88 168.682C50.8461 168.682 50.8124 168.682 50.7787 168.682C50.7451 168.682 50.7116 168.682 50.6782 168.682C50.6448 168.682 50.6116 168.682 50.5784 168.682C50.5453 168.682 50.5122 168.682 50.4793 168.682C50.4464 168.682 50.4136 168.682 50.3809 168.682C50.3482 168.682 50.3157 168.682 50.2832 168.682C50.2508 168.682 50.2184 168.682 50.1862 168.682C50.154 168.682 50.1219 168.682 50.0899 168.682C50.0579 168.682 50.026 168.682 49.9942 168.682C49.9624 168.682 49.9308 168.682 49.8992 168.682C49.8677 168.682 49.8363 168.682 49.8049 168.682C49.7736 168.682 49.7424 168.682 49.7113 168.682C49.6802 168.682 49.6492 168.682 49.6183 168.682C49.5874 168.682 49.5567 168.682 49.526 168.682C49.4953 168.682 49.4648 168.682 49.4343 168.682C49.4039 168.682 49.3736 168.682 49.3433 168.682C49.3131 168.682 49.283 168.682 49.253 168.682C49.2229 168.682 49.193 168.682 49.1632 168.682C49.1334 168.682 49.1037 168.682 49.0741 168.682C49.0446 168.682 49.0151 168.682 48.9857 168.682C48.9563 168.682 48.927 168.682 48.8979 168.682C48.8687 168.682 48.8396 168.682 48.8106 168.682C48.7817 168.682 48.7528 168.682 48.7241 168.682C48.6953 168.682 48.6666 168.682 48.6381 168.682C48.6095 168.682 48.5811 168.682 48.5527 168.682C48.5244 168.682 48.4961 168.682 48.4679 168.682C48.4398 168.682 48.4117 168.682 48.3838 168.682C48.3558 168.682 48.328 168.682 48.3002 168.682C48.2725 168.682 48.2448 168.682 48.2172 168.682C48.1897 168.682 48.1622 168.682 48.1348 168.682C48.1075 168.682 48.0802 168.682 48.053 168.682C48.0259 168.682 47.9988 168.682 47.9718 168.682C47.9448 168.682 47.9179 168.682 47.8912 168.682C47.8644 168.682 47.8377 168.682 47.8111 168.682C47.7845 168.682 47.758 168.682 47.7315 168.682C47.7051 168.682 47.6788 168.682 47.6526 168.682C47.6264 168.682 47.6002 168.682 47.5742 168.682C47.5481 168.682 47.5222 168.682 47.4963 168.682C47.4705 168.682 47.4447 168.682 47.419 168.682C47.3933 168.682 47.3677 168.682 47.3422 168.682C47.3167 168.682 47.2913 168.682 47.266 168.682C47.2407 168.682 47.2155 168.682 47.1903 168.682C47.1652 168.682 47.1401 168.682 47.1151 168.682C47.0902 168.682 47.0653 168.682 47.0405 168.682C47.0157 168.682 46.991 168.682 46.9664 168.682C46.9417 168.682 46.9172 168.682 46.8928 168.682C46.8683 168.682 46.8439 168.682 46.8197 168.682C46.7954 168.682 46.7712 168.682 46.7471 168.682C46.723 168.682 46.6989 168.682 46.675 168.682C46.651 168.682 46.6272 168.682 46.6034 168.682C46.5796 168.682 46.5559 168.682 46.5323 168.682C46.5087 168.682 46.4851 168.682 46.4617 168.682C46.4382 168.682 46.4148 168.682 46.3915 168.682C46.3682 168.682 46.345 168.682 46.3219 168.682C46.2987 168.682 46.2757 168.682 46.2527 168.682C46.2297 168.682 46.2068 168.682 46.184 168.682C46.1612 168.682 46.1384 168.682 46.1158 168.682C46.0931 168.682 46.0705 168.682 46.048 168.682C46.0255 168.682 46.003 168.682 45.9807 168.682C45.9583 168.682 45.936 168.682 45.9138 168.682C45.8916 168.682 45.8694 168.682 45.8474 168.682C45.8253 168.682 45.8033 168.682 45.7814 168.682C45.7595 168.682 45.7376 168.682 45.7159 168.682C45.6941 168.682 45.6724 168.682 45.6508 168.682C45.6291 168.682 45.6076 168.682 45.5861 168.682C45.5646 168.682 45.5432 168.682 45.5218 168.682C45.5005 168.682 45.4792 168.682 45.458 168.682C45.4368 168.682 45.4157 168.682 45.3946 168.682C45.3735 168.682 45.3525 168.682 45.3316 168.682C45.3107 168.682 45.2898 168.682 45.269 168.682C45.2482 168.682 45.2275 168.682 45.2068 168.682C45.1862 168.682 45.1656 168.682 45.145 168.682C45.1245 168.682 45.104 168.682 45.0836 168.682C45.0632 168.682 45.0429 168.682 45.0226 168.682C45.0024 168.682 44.9822 168.682 44.962 168.682C44.9419 168.682 44.9218 168.682 44.9018 168.682C44.8818 168.682 44.8618 168.682 44.8419 168.682C44.822 168.682 44.8022 168.682 44.7824 168.682C44.7627 168.682 44.743 168.682 44.7233 168.682C44.7037 168.682 44.6841 168.682 44.6645 168.682C44.645 168.682 44.6255 168.682 44.6061 168.682C44.5867 168.682 44.5674 168.682 44.5481 168.682C44.5288 168.682 44.5096 168.682 44.4904 168.682C44.4712 168.682 44.4521 168.682 44.433 168.682C44.414 168.682 44.395 168.682 44.376 168.682C44.3571 168.682 44.3382 168.682 44.3194 168.682C44.3005 168.682 44.2817 168.682 44.263 168.682C44.2443 168.682 44.2256 168.682 44.207 168.682C44.1884 168.682 44.1698 168.682 44.1513 168.682C44.1328 168.682 44.1143 168.682 44.0959 168.682C44.0775 168.682 44.0592 168.682 44.0409 168.682C44.0226 168.682 44.0043 168.682 43.9861 168.682C43.9679 168.682 43.9498 168.682 43.9317 168.682C43.9136 168.682 43.8955 168.682 43.8775 168.682C43.8595 168.682 43.8416 168.682 43.8237 168.682C43.8057 168.682 43.7879 168.682 43.7701 168.682C43.7523 168.682 43.7345 168.682 43.7168 168.682C43.6991 168.682 43.6814 168.682 43.6638 168.682C43.6462 168.682 43.6286 168.682 43.6111 168.682C43.5936 168.682 43.5761 168.682 43.5587 168.682C43.5412 168.682 43.5238 168.682 43.5065 168.682C43.4891 168.682 43.4718 168.682 43.4546 168.682C43.4373 168.682 43.4201 168.682 43.4029 168.682C43.3858 168.682 43.3686 168.682 43.3515 168.682C43.3345 168.682 43.3174 168.682 43.3004 168.682C43.2834 168.682 43.2664 168.682 43.2495 168.682C43.2326 168.682 43.2157 168.682 43.1989 168.682C43.182 168.682 43.1652 168.682 43.1484 168.682C43.1317 168.682 43.1149 168.682 43.0983 168.682C43.0816 168.682 43.0649 168.682 43.0483 168.682C43.0317 168.682 43.0151 168.682 42.9986 168.682C42.982 168.682 42.9655 168.682 42.9491 168.682C42.9326 168.682 42.9162 168.682 42.8998 168.682C42.8834 168.682 42.867 168.682 42.8507 168.682C42.8344 168.682 42.8181 168.682 42.8018 168.682C42.7855 168.682 42.7693 168.682 42.7531 168.682C42.7369 168.682 42.7208 168.682 42.7046 168.682C42.6885 168.682 42.6724 168.682 42.6564 168.682C42.6403 168.682 42.6243 168.682 42.6083 168.682C42.5923 168.682 42.5763 168.682 42.5603 168.682C42.5444 168.682 42.5285 168.682 42.5126 168.682C42.4967 168.682 42.4809 168.682 42.4651 168.682C42.4492 168.682 42.4334 168.682 42.4177 168.682C42.4019 168.682 42.3862 168.682 42.3704 168.682C42.3547 168.682 42.339 168.682 42.3234 168.682C42.3077 168.682 42.2921 168.682 42.2765 168.682C42.2609 168.682 42.2453 168.682 42.2297 168.682C42.2142 168.682 42.1986 168.682 42.1831 168.682C42.1676 168.682 42.1521 168.682 42.1367 168.682C42.1212 168.682 42.1058 168.682 42.0903 168.682C42.0749 168.682 42.0595 168.682 42.0441 168.682C42.0288 168.682 42.0134 168.682 41.9981 168.682C41.9828 168.682 41.9674 168.682 41.9522 168.682C41.9369 168.682 41.9216 168.682 41.9063 168.682C41.8911 168.682 41.8759 168.682 41.8607 168.682C41.8454 168.682 41.8302 168.682 41.8151 168.682C41.7999 168.682 41.7847 168.682 41.7696 168.682C41.7545 168.682 41.7393 168.682 41.7242 168.682C41.7091 168.682 41.694 168.682 41.679 168.682C41.6639 168.682 41.6488 168.682 41.6338 168.682C41.6187 168.682 41.6037 168.682 41.5887 168.682C41.5737 168.682 41.5587 168.682 41.5437 168.682C41.5287 168.682 41.5137 168.682 41.4988 168.682C41.4838 168.682 41.4689 168.682 41.4539 168.682C41.439 168.682 41.4241 168.682 41.4091 168.682C41.3942 168.682 41.3793 168.682 41.3644 168.682C41.3496 168.682 41.3347 168.682 41.3198 168.682C41.3049 168.682 41.2901 168.682 41.2752 168.682C41.2604 168.682 41.2455 168.682 41.2307 168.682C41.2159 168.682 41.201 168.682 41.1862 168.682C41.1714 168.682 41.1566 168.682 41.1418 168.682C41.127 168.682 41.1122 168.682 41.0974 168.682C41.0826 168.682 41.0678 168.682 41.053 168.682C41.0382 168.682 41.0235 168.682 41.0087 168.682C40.9939 168.682 40.9791 168.682 40.9644 168.682C40.9496 168.682 40.9349 168.682 40.9201 168.682C40.9054 168.682 40.8906 168.682 40.8759 168.682C40.8611 168.682 40.8464 168.682 40.8316 168.682C40.8169 168.682 40.8021 168.682 40.7874 168.682C40.7726 168.682 40.7579 168.682 40.7431 168.682C40.7284 168.682 40.7136 168.682 40.6989 168.682C40.6842 168.682 40.6694 168.682 40.6547 168.682C40.6399 168.682 40.6252 168.682 40.6104 168.682C40.5957 168.682 40.5809 168.682 40.5662 168.682C40.5514 168.682 40.5367 168.682 40.5219 168.682C40.5071 168.682 40.4924 168.682 40.4776 168.682C40.4628 168.682 40.4481 168.682 40.4333 168.682C40.4185 168.682 40.4037 168.682 40.3889 168.682C40.3741 168.682 40.3593 168.682 40.3445 168.682C40.3297 168.682 40.3149 168.682 40.3001 168.682C40.2853 168.682 40.2705 168.682 40.2556 168.682C40.2408 168.682 40.226 168.682 40.2111 168.682C40.1963 168.682 40.1814 168.682 40.1665 168.682C40.1517 168.682 40.1368 168.682 40.1219 168.682C40.107 168.682 40.0921 168.682 40.0772 168.682C40.0623 168.682 40.0474 168.682 40.0324 168.682C40.0175 168.682 40.0026 168.682 39.9876 168.682C39.9726 168.682 39.9577 168.682 39.9427 168.682C39.9277 168.682 39.9127 168.682 39.8977 168.682C39.8827 168.682 39.8677 168.682 39.8526 168.682C39.8376 168.682 39.8225 168.682 39.8075 168.682C39.7924 168.682 39.7773 168.682 39.7622 168.682C39.7471 168.682 39.732 168.682 39.7168 168.682C39.7017 168.682 39.6865 168.682 39.6714 168.682C39.6562 168.682 39.641 168.682 39.6258 168.682C39.6106 168.682 39.5954 168.682 39.5801 168.682C39.5649 168.682 39.5496 168.682 39.5343 168.682C39.5191 168.682 39.5037 168.682 39.4884 168.682C39.4731 168.682 39.4577 168.682 39.4424 168.682C39.427 168.682 39.4116 168.682 39.3962 168.682C39.3808 168.682 39.3654 168.682 39.3499 168.682C39.3344 168.682 39.319 168.682 39.3035 168.682C39.288 168.682 39.2724 168.682 39.2569 168.682C39.2413 168.682 39.2257 168.682 39.2101 168.682C39.1945 168.682 39.1789 168.682 39.1633 168.682C39.1476 168.682 39.1319 168.682 39.1162 168.682C39.1005 168.682 39.0848 168.682 39.069 168.682C39.0533 168.682 39.0375 168.682 39.0216 168.682C39.0058 168.682 38.99 168.682 38.9741 168.682C38.9582 168.682 38.9423 168.682 38.9264 168.682C38.9105 168.682 38.8945 168.682 38.8785 168.682C38.8625 168.682 38.8465 168.682 38.8304 168.682C38.8144 168.682 38.7983 168.682 38.7822 168.682C38.7661 168.682 38.7499 168.682 38.7337 168.682C38.7175 168.682 38.7013 168.682 38.6851 168.682C38.6688 168.682 38.6525 168.682 38.6362 168.682C38.6199 168.682 38.6035 168.682 38.5872 168.682C38.5708 168.682 38.5544 168.682 38.5379 168.682C38.5214 168.682 38.5049 168.682 38.4884 168.682C38.4719 168.682 38.4553 168.682 38.4387 168.682C38.4221 168.682 38.4055 168.682 38.3888 168.682C38.3721 168.682 38.3554 168.682 38.3386 168.682C38.3219 168.682 38.3051 168.682 38.2883 168.682C38.2714 168.682 38.2545 168.682 38.2376 168.682C38.2207 168.682 38.2038 168.682 38.1868 168.682C38.1698 168.682 38.1527 168.682 38.1357 168.682C38.1186 168.682 38.1015 168.682 38.0843 168.682C38.0671 168.682 38.0499 168.682 38.0327 168.682C38.0154 168.682 37.9981 168.682 37.9808 168.682C37.9635 168.682 37.9461 168.682 37.9287 168.682C37.9113 168.682 37.8938 168.682 37.8763 168.682C37.8588 168.682 37.8412 168.682 37.8236 168.682C37.806 168.682 37.7883 168.682 37.7706 168.682C37.7529 168.682 37.7352 168.682 37.7174 168.682C37.6996 168.682 37.6818 168.682 37.6639 168.682C37.646 168.682 37.628 168.682 37.6101 168.682C37.5921 168.682 37.574 168.682 37.5559 168.682C37.5379 168.682 37.5197 168.682 37.5015 168.682C37.4833 168.682 37.4651 168.682 37.4468 168.682C37.4285 168.682 37.4102 168.682 37.3918 168.682C37.3734 168.682 37.355 168.682 37.3365 168.682C37.318 168.682 37.2994 168.682 37.2808 168.682C37.2622 168.682 37.2436 168.682 37.2248 168.682C37.2061 168.682 37.1874 168.682 37.1685 168.682C37.1497 168.682 37.1308 168.682 37.1119 168.682C37.093 168.682 37.074 168.682 37.0549 168.682C37.0359 168.682 37.0168 168.682 36.9976 168.682C36.9785 168.682 36.9593 168.682 36.94 168.682C36.9207 168.682 36.9014 168.682 36.882 168.682C36.8626 168.682 36.8431 168.682 36.8236 168.682C36.8041 168.682 36.7845 168.682 36.7649 168.682C36.7453 168.682 36.7256 168.682 36.7058 168.682C36.6861 168.682 36.6663 168.682 36.6464 168.682C36.6265 168.682 36.6066 168.682 36.5866 168.682C36.5666 168.682 36.5465 168.682 36.5264 168.682C36.5063 168.682 36.4861 168.682 36.4658 168.682C36.4456 168.682 36.4253 168.682 36.4049 168.682C36.3845 168.682 36.364 168.682 36.3435 168.682C36.323 168.682 36.3024 168.682 36.2818 168.682C36.2611 168.682 36.2404 168.682 36.2197 168.682C36.1989 168.682 36.178 168.682 36.1571 168.682C36.1362 168.682 36.1152 168.682 36.0942 168.682C36.0731 168.682 36.052 168.682 36.0308 168.682C36.0096 168.682 35.9884 168.682 35.967 168.682C35.9457 168.682 35.9243 168.682 35.9029 168.682C35.8814 168.682 35.8598 168.682 35.8382 168.682C35.8166 168.682 35.7949 168.682 35.7732 168.682C35.7514 168.682 35.7296 168.682 35.7077 168.682C35.6858 168.682 35.6638 168.682 35.6418 168.682C35.6197 168.682 35.5976 168.682 35.5754 168.682C35.5532 168.682 35.531 168.682 35.5086 168.682C35.4863 168.682 35.4639 168.682 35.4414 168.682C35.4189 168.682 35.3963 168.682 35.3736 168.682C35.351 168.682 35.3283 168.682 35.3055 168.682C35.2827 168.682 35.2598 168.682 35.2368 168.682C35.2139 168.682 35.1908 168.682 35.1677 168.682C35.1446 168.682 35.1214 168.682 35.0981 168.682C35.0748 168.682 35.0515 168.682 35.028 168.682C35.0046 168.682 34.9811 168.682 34.9575 168.682C34.9339 168.682 34.9102 168.682 34.8865 168.682C34.8627 168.682 34.8389 168.682 34.8149 168.682C34.791 168.682 34.767 168.682 34.7429 168.682C34.7188 168.682 34.6946 168.682 34.6704 168.682C34.6461 168.682 34.6218 168.682 34.5973 168.682C34.5729 168.682 34.5484 168.682 34.5238 168.682C34.4992 168.682 34.4745 168.682 34.4497 168.682C34.425 168.682 34.4001 168.682 34.3752 168.682C34.3502 168.682 34.3252 168.682 34.3001 168.682C34.2749 168.682 34.2497 168.682 34.2244 168.682C34.1991 168.682 34.1738 168.682 34.1483 168.682C34.1228 168.682 34.0972 168.682 34.0716 168.682C34.0459 168.682 34.0202 168.682 33.9943 168.682C33.9685 168.682 33.9426 168.682 33.9166 168.682C33.8905 168.682 33.8644 168.682 33.8382 168.682C33.812 168.682 33.7857 168.682 33.7593 168.682C33.7329 168.682 33.7065 168.682 33.6799 168.682C33.6533 168.682 33.6266 168.682 33.5999 168.682C33.5731 168.682 33.5462 168.682 33.5193 168.682C33.4923 168.682 33.4653 168.682 33.4381 168.682C33.411 168.682 33.3837 168.682 33.3564 168.682C33.3291 168.682 33.3016 168.682 33.2741 168.682C33.2466 168.682 33.2189 168.682 33.1912 168.682C33.1635 168.682 33.1356 168.682 33.1077 168.682C33.0798 168.682 33.0517 168.682 33.0236 168.682C32.9955 168.682 32.9673 168.682 32.9389 168.682C32.9106 168.682 32.8822 168.682 32.8536 168.682C32.8251 168.682 32.7965 168.682 32.7678 168.682C32.739 168.682 32.7102 168.682 32.6812 168.682C32.6523 168.682 32.6233 168.682 32.5941 168.682C32.565 168.682 32.5357 168.682 32.5064 168.682C32.477 168.682 32.4476 168.682 32.418 168.682C32.3884 168.682 32.3588 168.682 32.329 168.682C32.2992 168.682 32.2693 168.682 32.2393 168.682C32.2094 168.682 32.1793 168.682 32.1491 168.682C32.1189 168.682 32.0885 168.682 32.0581 168.682C32.0277 168.682 31.9972 168.682 31.9666 168.682C31.9359 168.682 31.9052 168.682 31.8743 168.682C31.8435 168.682 31.8125 168.682 31.7814 168.682C31.7504 168.682 31.7192 168.682 31.6879 168.682C31.6566 168.682 31.6252 168.682 31.5937 168.682C31.5622 168.682 31.5305 168.682 31.4988 168.682C31.467 168.682 31.4352 168.682 31.4032 168.682C31.3713 168.682 31.3392 168.682 31.307 168.682C31.2748 168.682 31.2425 168.682 31.2101 168.682C31.1776 168.682 31.1451 168.682 31.1124 168.682C31.0798 168.682 31.047 168.682 31.0141 168.682C30.9812 168.682 30.9482 168.682 30.9151 168.682C30.882 168.682 30.8488 168.682 30.8154 168.682C30.7821 168.682 30.7486 168.682 30.715 168.682C30.6814 168.682 30.6477 168.682 30.6139 168.682C30.58 168.682 30.5461 168.682 30.512 168.682C30.478 168.682 30.4438 168.682 30.4095 168.682C30.3751 168.682 30.3407 168.682 30.3062 168.682C30.2716 168.682 30.2369 168.682 30.2021 168.682C30.1673 168.682 30.1324 168.682 30.0974 168.682C30.0623 168.682 30.0272 168.682 29.9919 168.682C29.9566 168.682 29.9212 168.682 29.8857 168.682C29.8501 168.682 29.8145 168.682 29.7787 168.682C29.7429 168.682 29.707 168.682 29.6709 168.682C29.6349 168.682 29.5987 168.682 29.5625 168.682C29.5262 168.682 29.4897 168.682 29.4532 168.682C29.4167 168.682 29.38 168.682 29.3432 168.682C29.3064 168.682 29.2695 168.682 29.2324 168.682C29.1953 168.682 29.1582 168.682 29.1208 168.682C29.0835 168.682 29.0461 168.682 29.0085 168.682C28.9709 168.682 28.9332 168.682 28.8954 168.682C28.8575 168.682 28.8196 168.682 28.7815 168.682C28.7434 168.682 28.7051 168.682 28.6668 168.682C28.6284 168.682 28.5899 168.682 28.5513 168.682C28.5126 168.682 28.4739 168.682 28.435 168.682C28.3961 168.682 28.357 168.682 28.3179 168.682C28.2787 168.682 28.2394 168.682 28.1999 168.682C28.1605 168.682 28.1209 168.682 28.0812 168.682C28.0415 168.682 28.0017 168.682 27.9617 168.682C27.9217 168.682 27.8816 168.682 27.8413 168.682C27.801 168.682 27.7606 168.682 27.7201 168.682C27.6796 168.682 27.6389 168.682 27.5981 168.682C27.5572 168.682 27.5163 168.682 27.4752 168.682C27.4341 168.682 27.3929 168.682 27.3515 168.682C27.3101 168.682 27.2686 168.682 27.2269 168.682C27.1853 168.682 27.1435 168.682 27.1015 168.682C27.0596 168.682 27.0175 168.682 26.9753 168.682C26.933 168.682 26.8907 168.682 26.8481 168.682C26.8056 168.682 26.763 168.682 26.7202 168.682C26.6774 168.682 26.6344 168.682 26.5913 168.682C26.5482 168.682 26.505 168.682 26.4616 168.682C26.4182 168.682 26.3747 168.682 26.331 168.682C26.2873 168.682 26.2435 168.682 26.1995 168.682C26.1555 168.682 26.1114 168.682 26.0671 168.682C26.0229 168.682 25.9784 168.682 25.9339 168.682C25.8893 168.682 25.8446 168.682 25.7997 168.682C25.7548 168.682 25.7098 168.682 25.6646 168.682C25.6195 168.682 25.5742 168.682 25.5287 168.682C25.4832 168.682 25.4376 168.682 25.3918 168.682C25.346 168.682 25.3001 168.682 25.254 168.682C25.208 168.682 25.1617 168.682 25.1153 168.682C25.069 168.682 25.0224 168.682 24.9757 168.682C24.929 168.682 24.8822 168.682 24.8352 168.682C24.7882 168.682 24.741 168.682 24.6937 168.682C24.6464 168.682 24.5989 168.682 24.5513 168.682C24.5037 168.682 24.4559 168.682 24.4079 168.682C24.36 168.682 24.3119 168.682 24.2636 168.682C24.2154 168.682 24.167 168.682 24.1184 168.682C24.0698 168.682 24.0211 168.682 23.9722 168.682C23.9233 168.682 23.8742 168.682 23.825 168.682C23.7758 168.682 23.7264 168.682 23.6769 168.682C23.6274 168.682 23.5777 168.682 23.5278 168.682C23.478 168.682 23.428 168.682 23.3778 168.682C23.3276 168.682 23.2772 168.682 23.2267 168.682C23.1762 168.682 23.1256 168.682 23.0747 168.682C23.0239 168.682 22.9729 168.682 22.9217 168.682C22.8706 168.682 22.8192 168.682 22.7677 168.682C22.7162 168.682 22.6646 168.682 22.6128 168.682C22.5609 168.682 22.5089 168.682 22.4568 168.682C22.4046 168.682 22.3523 168.682 22.2998 168.682C22.2473 168.682 22.1946 168.682 22.1418 168.682C22.089 168.682 22.036 168.682 21.9828 168.682C21.9296 168.682 21.8763 168.682 21.8228 168.682C21.7693 168.682 21.7156 168.682 21.6618 168.682C21.6079 168.682 21.5539 168.682 21.4997 168.682C21.4455 168.682 21.3912 168.682 21.3366 168.682C21.2821 168.682 21.2274 168.682 21.1725 168.682C21.1176 168.682 21.0626 168.682 21.0073 168.682C20.9521 168.682 20.8967 168.682 20.8411 168.682C20.7856 168.682 20.7298 168.682 20.6739 168.682C20.6179 168.682 20.5618 168.682 20.5056 168.682C20.4493 168.682 20.3928 168.682 20.3362 168.682C20.2796 168.682 20.2228 168.682 20.1658 168.682C20.1088 168.682 20.0516 168.682 19.9943 168.682C19.937 168.682 19.8794 168.682 19.8217 168.682C19.7641 168.682 19.7062 168.682 19.6481 168.682C19.5901 168.682 19.5318 168.682 19.4734 168.682C19.415 168.682 19.3564 168.682 19.2976 168.682C19.2388 168.682 19.1799 168.682 19.1207 168.682C19.0616 168.682 19.0023 168.682 18.9428 168.682C18.8833 168.682 18.8236 168.682 18.7637 168.682C18.7038 168.682 18.6438 168.682 18.5835 168.682C18.5233 168.682 18.4629 168.682 18.4023 168.682C18.3417 168.682 18.2809 168.682 18.2199 168.682C18.1589 168.682 18.0977 168.682 18.0364 168.682C17.975 168.682 17.9135 168.682 17.8518 168.682C17.79 168.682 17.7281 168.682 17.666 168.682C17.6039 168.682 17.5416 168.682 17.4792 168.682C17.4167 168.682 17.354 168.682 17.2912 168.682C17.2283 168.682 17.1653 168.682 17.102 168.682C17.0388 168.682 16.9754 168.682 16.9117 168.682C16.8481 168.682 16.7843 168.682 16.7203 168.682C16.6563 168.682 16.5921 168.682 16.5277 168.682C16.4634 168.682 16.3988 168.682 16.334 168.682C16.2692 168.682 16.2043 168.682 16.1391 168.682C16.074 168.682 16.0086 168.682 15.9431 168.682C15.8775 168.682 15.8118 168.682 15.7458 168.682C15.6799 168.682 15.6138 168.682 15.5475 168.682C15.4811 168.682 15.4146 168.682 15.3479 168.682C15.2812 168.682 15.2142 168.682 15.1471 168.682C15.08 168.682 15.0127 168.682 14.9452 168.682C14.8777 168.682 14.81 168.682 14.7421 168.682C14.6742 168.682 14.606 168.682 14.5377 168.682C14.4694 168.682 14.4009 168.682 14.3322 168.682C14.2635 168.682 14.1946 168.682 14.1255 168.682C14.0564 168.682 13.9871 168.682 13.9176 168.682C13.848 168.682 13.7783 168.682 13.7084 168.682C13.6385 168.682 13.5684 168.682 13.498 168.682C13.4277 168.682 13.3572 168.682 13.2865 168.682C13.2157 168.682 13.1448 168.682 13.0736 168.682C13.0025 168.682 12.9311 168.682 12.8596 168.682C12.788 168.682 12.7163 168.682 12.6443 168.682C12.5723 168.682 12.5002 168.682 12.4278 168.682C12.3554 168.682 12.2828 168.682 12.21 168.682C12.1372 168.682 12.0642 168.682 11.991 168.682C11.9178 168.682 11.8444 168.682 11.7708 168.682C11.6971 168.682 11.6233 168.682 11.5492 168.682C11.4752 168.682 11.4009 168.682 11.3264 168.682C11.252 168.682 11.1773 168.682 11.1024 168.682C11.0275 168.682 10.9524 168.682 10.8771 168.682C10.8017 168.682 10.7262 168.682 10.6505 168.682C10.5747 168.682 10.4988 168.682 10.4226 168.682C10.3464 168.682 10.27 168.682 10.1934 168.682C10.1168 168.682 10.04 168.682 9.96297 168.682C9.88594 168.682 9.80869 168.682 9.73122 168.682C9.65376 168.682 9.57608 168.682 9.49818 168.682C9.42028 168.682 9.34217 168.682 9.26383 168.682C9.1855 168.682 9.10695 168.682 9.02818 168.682C8.94941 168.682 8.87042 168.682 8.79121 168.682C8.71201 168.682 8.63258 168.682 8.55293 168.682C8.47329 168.682 8.39342 168.682 8.31333 168.682C8.23324 168.682 8.15293 168.682 8.0724 168.682C7.99187 168.682 7.91112 168.682 7.83015 168.682C7.74918 168.682 7.66798 168.682 7.58656 168.682C7.50514 168.682 7.4235 168.682 7.34163 168.682C7.25977 168.682 7.17768 168.682 7.09536 168.682C7.01305 168.682 6.93051 168.682 6.84774 168.682C6.76498 168.682 6.68199 168.682 6.59877 168.682C6.51556 168.682 6.43212 168.682 6.34845 168.682C6.26478 168.682 6.18089 168.682 6.09676 168.682C6.01264 168.682 5.92829 168.682 5.84371 168.682C5.75913 168.682 5.67433 168.682 5.58929 168.682C5.50426 168.682 5.41899 168.682 5.3335 168.682V169.682ZM76.147 189.682H75.147V346.333H76.147H77.147V189.682H76.147ZM96.147 366.333V367.333H683.334V366.333V365.333H96.147V366.333ZM703.333 346.333H704.333V5.33331H703.333H702.333V346.333H703.333ZM683.334 366.333V367.333C694.932 367.333 704.333 357.931 704.333 346.333H703.333H702.333C702.333 356.827 693.827 365.333 683.334 365.333V366.333ZM76.147 346.333H75.147C75.147 357.931 84.549 367.333 96.147 367.333V366.333V365.333C85.6535 365.333 77.147 356.827 77.147 346.333H76.147ZM56.1067 169.682V170.682C66.6027 170.682 75.147 179.192 75.147 189.682H76.147H77.147C77.147 178.082 67.7021 168.682 56.1067 168.682V169.682Z" fill="#C12930"/>
</svg>
