<svg width="344" height="567" viewBox="0 0 344 567" fill="none" xmlns="http://www.w3.org/2000/svg">
<path d="M-0.00032568 260.279C-0.00032568 263.225 2.38749 265.613 5.33301 265.613C8.27853 265.613 10.6663 263.225 10.6663 260.279C10.6663 257.334 8.27853 254.946 5.33301 254.946C2.38749 254.946 -0.00032568 257.334 -0.00032568 260.279ZM333 5.33331C333 8.27883 335.387 10.6666 338.333 10.6666C341.279 10.6666 343.666 8.27883 343.666 5.33331C343.666 2.38779 341.279 -2.0504e-05 338.333 -2.0504e-05C335.387 -2.0504e-05 333 2.38779 333 5.33331ZM5.33301 260.279V261.279C5.34808 261.279 5.36314 261.279 5.37818 261.279C5.39322 261.279 5.40825 261.279 5.42326 261.279C5.43827 261.279 5.45327 261.279 5.46825 261.279C5.48323 261.279 5.4982 261.279 5.51315 261.279C5.52811 261.279 5.54304 261.279 5.55797 261.279C5.57289 261.279 5.5878 261.279 5.60269 261.279C5.61758 261.279 5.63246 261.279 5.64733 261.279C5.66219 261.279 5.67704 261.279 5.69187 261.279C5.70671 261.279 5.72152 261.279 5.73633 261.279C5.75113 261.279 5.76592 261.279 5.7807 261.279C5.79547 261.279 5.81023 261.279 5.82497 261.279C5.83972 261.279 5.85445 261.279 5.86917 261.279C5.88388 261.279 5.89858 261.279 5.91327 261.279C5.92795 261.279 5.94262 261.279 5.95728 261.279C5.97194 261.279 5.98658 261.279 6.00121 261.279C6.01583 261.279 6.03045 261.279 6.04504 261.279C6.05964 261.279 6.07422 261.279 6.08879 261.279C6.10336 261.279 6.11791 261.279 6.13245 261.279C6.14699 261.279 6.16152 261.279 6.17603 261.279C6.19054 261.279 6.20503 261.279 6.21951 261.279C6.23399 261.279 6.24846 261.279 6.26291 261.279C6.27736 261.279 6.2918 261.279 6.30622 261.279C6.32064 261.279 6.33505 261.279 6.34944 261.279C6.36383 261.279 6.37821 261.279 6.39258 261.279C6.40694 261.279 6.42129 261.279 6.43563 261.279C6.44996 261.279 6.46428 261.279 6.47859 261.279C6.49289 261.279 6.50718 261.279 6.52146 261.279C6.53574 261.279 6.55 261.279 6.56425 261.279C6.5785 261.279 6.59273 261.279 6.60695 261.279C6.62117 261.279 6.63537 261.279 6.64956 261.279C6.66375 261.279 6.67793 261.279 6.69209 261.279C6.70625 261.279 6.7204 261.279 6.73453 261.279C6.74866 261.279 6.76278 261.279 6.77688 261.279C6.79099 261.279 6.80508 261.279 6.81915 261.279C6.83323 261.279 6.84729 261.279 6.86133 261.279C6.87538 261.279 6.88941 261.279 6.90343 261.279C6.91745 261.279 6.93145 261.279 6.94544 261.279C6.95943 261.279 6.9734 261.279 6.98736 261.279C7.00132 261.279 7.01527 261.279 7.0292 261.279C7.04313 261.279 7.05705 261.279 7.07095 261.279C7.08486 261.279 7.09875 261.279 7.11262 261.279C7.1265 261.279 7.14036 261.279 7.1542 261.279C7.16805 261.279 7.18188 261.279 7.1957 261.279C7.20952 261.279 7.22332 261.279 7.23711 261.279C7.2509 261.279 7.26468 261.279 7.27844 261.279C7.2922 261.279 7.30595 261.279 7.31968 261.279C7.33341 261.279 7.34713 261.279 7.36084 261.279C7.37454 261.279 7.38823 261.279 7.40191 261.279C7.41558 261.279 7.42925 261.279 7.4429 261.279C7.45654 261.279 7.47018 261.279 7.4838 261.279C7.49742 261.279 7.51102 261.279 7.52462 261.279C7.53821 261.279 7.55179 261.279 7.56535 261.279C7.57891 261.279 7.59246 261.279 7.606 261.279C7.61954 261.279 7.63306 261.279 7.64657 261.279C7.66007 261.279 7.67357 261.279 7.68705 261.279C7.70053 261.279 7.71399 261.279 7.72745 261.279C7.7409 261.279 7.75434 261.279 7.76776 261.279C7.78118 261.279 7.79459 261.279 7.80799 261.279C7.82139 261.279 7.83477 261.279 7.84814 261.279C7.8615 261.279 7.87486 261.279 7.8882 261.279C7.90154 261.279 7.91487 261.279 7.92818 261.279C7.94149 261.279 7.95479 261.279 7.96808 261.279C7.98136 261.279 7.99463 261.279 8.00789 261.279C8.02115 261.279 8.03439 261.279 8.04762 261.279C8.06085 261.279 8.07407 261.279 8.08727 261.279C8.10047 261.279 8.11366 261.279 8.12683 261.279C8.14001 261.279 8.15317 261.279 8.16632 261.279C8.17946 261.279 8.1926 261.279 8.20572 261.279C8.21884 261.279 8.23194 261.279 8.24503 261.279C8.25812 261.279 8.2712 261.279 8.28427 261.279C8.29733 261.279 8.31038 261.279 8.32342 261.279C8.33646 261.279 8.34948 261.279 8.36249 261.279C8.3755 261.279 8.3885 261.279 8.40148 261.279C8.41446 261.279 8.42743 261.279 8.44039 261.279C8.45334 261.279 8.46628 261.279 8.47921 261.279C8.49214 261.279 8.50505 261.279 8.51795 261.279C8.53085 261.279 8.54374 261.279 8.55661 261.279C8.56949 261.279 8.58235 261.279 8.59519 261.279C8.60804 261.279 8.62087 261.279 8.63369 261.279C8.64651 261.279 8.65932 261.279 8.67211 261.279C8.6849 261.279 8.69768 261.279 8.71045 261.279C8.72321 261.279 8.73596 261.279 8.7487 261.279C8.76144 261.279 8.77416 261.279 8.78687 261.279C8.79958 261.279 8.81228 261.279 8.82497 261.279C8.83765 261.279 8.85032 261.279 8.86298 261.279C8.87564 261.279 8.88828 261.279 8.90091 261.279C8.91354 261.279 8.92616 261.279 8.93876 261.279C8.95137 261.279 8.96396 261.279 8.97653 261.279C8.98911 261.279 9.00167 261.279 9.01422 261.279C9.02677 261.279 9.03931 261.279 9.05183 261.279C9.06436 261.279 9.07687 261.279 9.08936 261.279C9.10186 261.279 9.11434 261.279 9.12681 261.279C9.13928 261.279 9.15174 261.279 9.16418 261.279C9.17663 261.279 9.18906 261.279 9.20147 261.279C9.21389 261.279 9.22629 261.279 9.23868 261.279C9.25107 261.279 9.26345 261.279 9.27581 261.279C9.28818 261.279 9.30053 261.279 9.31287 261.279C9.3252 261.279 9.33753 261.279 9.34984 261.279C9.36215 261.279 9.37445 261.279 9.38673 261.279C9.39902 261.279 9.41129 261.279 9.42355 261.279C9.4358 261.279 9.44805 261.279 9.46028 261.279C9.47251 261.279 9.48473 261.279 9.49694 261.279C9.50914 261.279 9.52133 261.279 9.53351 261.279C9.54569 261.279 9.55786 261.279 9.57001 261.279C9.58216 261.279 9.5943 261.279 9.60643 261.279C9.61856 261.279 9.63067 261.279 9.64277 261.279C9.65487 261.279 9.66696 261.279 9.67904 261.279C9.69111 261.279 9.70317 261.279 9.71522 261.279C9.72727 261.279 9.7393 261.279 9.75133 261.279C9.76335 261.279 9.77536 261.279 9.78735 261.279C9.79935 261.279 9.81134 261.279 9.82331 261.279C9.83528 261.279 9.84723 261.279 9.85918 261.279C9.87112 261.279 9.88305 261.279 9.89497 261.279C9.90689 261.279 9.9188 261.279 9.93069 261.279C9.94258 261.279 9.95446 261.279 9.96633 261.279C9.9782 261.279 9.99005 261.279 10.0019 261.279C10.0137 261.279 10.0256 261.279 10.0374 261.279C10.0492 261.279 10.061 261.279 10.0728 261.279C10.0846 261.279 10.0964 261.279 10.1081 261.279C10.1199 261.279 10.1316 261.279 10.1434 261.279C10.1551 261.279 10.1668 261.279 10.1785 261.279C10.1903 261.279 10.202 261.279 10.2136 261.279C10.2253 261.279 10.237 261.279 10.2487 261.279C10.2603 261.279 10.272 261.279 10.2836 261.279C10.2953 261.279 10.3069 261.279 10.3185 261.279C10.3301 261.279 10.3417 261.279 10.3533 261.279C10.3649 261.279 10.3764 261.279 10.388 261.279C10.3996 261.279 10.4111 261.279 10.4226 261.279C10.4342 261.279 10.4457 261.279 10.4572 261.279C10.4687 261.279 10.4802 261.279 10.4917 261.279C10.5032 261.279 10.5147 261.279 10.5261 261.279C10.5376 261.279 10.549 261.279 10.5604 261.279C10.5719 261.279 10.5833 261.279 10.5947 261.279C10.6061 261.279 10.6175 261.279 10.6289 261.279C10.6403 261.279 10.6517 261.279 10.663 261.279C10.6744 261.279 10.6857 261.279 10.697 261.279C10.7084 261.279 10.7197 261.279 10.731 261.279C10.7423 261.279 10.7536 261.279 10.7649 261.279C10.7762 261.279 10.7874 261.279 10.7987 261.279C10.81 261.279 10.8212 261.279 10.8324 261.279C10.8437 261.279 10.8549 261.279 10.8661 261.279C10.8773 261.279 10.8885 261.279 10.8997 261.279C10.9109 261.279 10.922 261.279 10.9332 261.279C10.9444 261.279 10.9555 261.279 10.9666 261.279C10.9778 261.279 10.9889 261.279 11 261.279C11.0111 261.279 11.0222 261.279 11.0333 261.279C11.0444 261.279 11.0555 261.279 11.0665 261.279C11.0776 261.279 11.0886 261.279 11.0997 261.279C11.1107 261.279 11.1217 261.279 11.1327 261.279C11.1437 261.279 11.1547 261.279 11.1657 261.279C11.1767 261.279 11.1877 261.279 11.1986 261.279C11.2096 261.279 11.2206 261.279 11.2315 261.279C11.2424 261.279 11.2533 261.279 11.2643 261.279C11.2752 261.279 11.2861 261.279 11.297 261.279C11.3079 261.279 11.3187 261.279 11.3296 261.279C11.3405 261.279 11.3513 261.279 11.3621 261.279C11.373 261.279 11.3838 261.279 11.3946 261.279C11.4054 261.279 11.4162 261.279 11.427 261.279C11.4378 261.279 11.4486 261.279 11.4594 261.279C11.4701 261.279 11.4809 261.279 11.4916 261.279C11.5024 261.279 11.5131 261.279 11.5238 261.279C11.5345 261.279 11.5452 261.279 11.5559 261.279C11.5666 261.279 11.5773 261.279 11.588 261.279C11.5987 261.279 11.6093 261.279 11.62 261.279C11.6306 261.279 11.6412 261.279 11.6519 261.279C11.6625 261.279 11.6731 261.279 11.6837 261.279C11.6943 261.279 11.7049 261.279 11.7154 261.279C11.726 261.279 11.7366 261.279 11.7471 261.279C11.7577 261.279 11.7682 261.279 11.7787 261.279C11.7893 261.279 11.7998 261.279 11.8103 261.279C11.8208 261.279 11.8313 261.279 11.8418 261.279C11.8522 261.279 11.8627 261.279 11.8732 261.279C11.8836 261.279 11.8941 261.279 11.9045 261.279C11.9149 261.279 11.9253 261.279 11.9357 261.279C11.9461 261.279 11.9565 261.279 11.9669 261.279C11.9773 261.279 11.9877 261.279 11.998 261.279C12.0084 261.279 12.0188 261.279 12.0291 261.279C12.0394 261.279 12.0497 261.279 12.0601 261.279C12.0704 261.279 12.0807 261.279 12.091 261.279C12.1013 261.279 12.1115 261.279 12.1218 261.279C12.1321 261.279 12.1423 261.279 12.1526 261.279C12.1628 261.279 12.173 261.279 12.1832 261.279C12.1935 261.279 12.2037 261.279 12.2139 261.279C12.2241 261.279 12.2342 261.279 12.2444 261.279C12.2546 261.279 12.2648 261.279 12.2749 261.279C12.2851 261.279 12.2952 261.279 12.3053 261.279C12.3154 261.279 12.3256 261.279 12.3357 261.279C12.3458 261.279 12.3558 261.279 12.3659 261.279C12.376 261.279 12.3861 261.279 12.3961 261.279C12.4062 261.279 12.4162 261.279 12.4263 261.279C12.4363 261.279 12.4463 261.279 12.4563 261.279C12.4663 261.279 12.4763 261.279 12.4863 261.279C12.4963 261.279 12.5063 261.279 12.5162 261.279C12.5262 261.279 12.5362 261.279 12.5461 261.279C12.556 261.279 12.566 261.279 12.5759 261.279C12.5858 261.279 12.5957 261.279 12.6056 261.279C12.6155 261.279 12.6254 261.279 12.6353 261.279C12.6451 261.279 12.655 261.279 12.6648 261.279C12.6747 261.279 12.6845 261.279 12.6944 261.279C12.7042 261.279 12.714 261.279 12.7238 261.279C12.7336 261.279 12.7434 261.279 12.7532 261.279C12.763 261.279 12.7727 261.279 12.7825 261.279C12.7922 261.279 12.802 261.279 12.8117 261.279C12.8215 261.279 12.8312 261.279 12.8409 261.279C12.8506 261.279 12.8603 261.279 12.87 261.279C12.8797 261.279 12.8894 261.279 12.899 261.279C12.9087 261.279 12.9184 261.279 12.928 261.279C12.9376 261.279 12.9473 261.279 12.9569 261.279C12.9665 261.279 12.9761 261.279 12.9857 261.279C12.9953 261.279 13.0049 261.279 13.0145 261.279C13.0241 261.279 13.0336 261.279 13.0432 261.279C13.0528 261.279 13.0623 261.279 13.0718 261.279C13.0814 261.279 13.0909 261.279 13.1004 261.279C13.1099 261.279 13.1194 261.279 13.1289 261.279C13.1384 261.279 13.1479 261.279 13.1573 261.279C13.1668 261.279 13.1763 261.279 13.1857 261.279C13.1951 261.279 13.2046 261.279 13.214 261.279C13.2234 261.279 13.2328 261.279 13.2422 261.279C13.2516 261.279 13.261 261.279 13.2704 261.279C13.2798 261.279 13.2891 261.279 13.2985 261.279C13.3078 261.279 13.3172 261.279 13.3265 261.279C13.3359 261.279 13.3452 261.279 13.3545 261.279C13.3638 261.279 13.3731 261.279 13.3824 261.279C13.3917 261.279 13.401 261.279 13.4102 261.279C13.4195 261.279 13.4288 261.279 13.438 261.279C13.4472 261.279 13.4565 261.279 13.4657 261.279C13.4749 261.279 13.4841 261.279 13.4933 261.279C13.5026 261.279 13.5117 261.279 13.5209 261.279C13.5301 261.279 13.5393 261.279 13.5484 261.279C13.5576 261.279 13.5667 261.279 13.5759 261.279C13.585 261.279 13.5941 261.279 13.6033 261.279C13.6124 261.279 13.6215 261.279 13.6306 261.279C13.6397 261.279 13.6487 261.279 13.6578 261.279C13.6669 261.279 13.676 261.279 13.685 261.279C13.6941 261.279 13.7031 261.279 13.7121 261.279C13.7211 261.279 13.7302 261.279 13.7392 261.279C13.7482 261.279 13.7572 261.279 13.7662 261.279C13.7752 261.279 13.7841 261.279 13.7931 261.279C13.8021 261.279 13.811 261.279 13.82 261.279C13.8289 261.279 13.8378 261.279 13.8468 261.279C13.8557 261.279 13.8646 261.279 13.8735 261.279C13.8824 261.279 13.8913 261.279 13.9002 261.279C13.909 261.279 13.9179 261.279 13.9268 261.279C13.9356 261.279 13.9445 261.279 13.9533 261.279C13.9621 261.279 13.971 261.279 13.9798 261.279C13.9886 261.279 13.9974 261.279 14.0062 261.279C14.015 261.279 14.0238 261.279 14.0326 261.279C14.0413 261.279 14.0501 261.279 14.0588 261.279C14.0676 261.279 14.0763 261.279 14.0851 261.279C14.0938 261.279 14.1025 261.279 14.1112 261.279C14.12 261.279 14.1286 261.279 14.1373 261.279C14.146 261.279 14.1547 261.279 14.1634 261.279C14.172 261.279 14.1807 261.279 14.1894 261.279C14.198 261.279 14.2066 261.279 14.2153 261.279C14.2239 261.279 14.2325 261.279 14.2411 261.279C14.2497 261.279 14.2583 261.279 14.2669 261.279C14.2755 261.279 14.2841 261.279 14.2926 261.279C14.3012 261.279 14.3098 261.279 14.3183 261.279C14.3268 261.279 14.3354 261.279 14.3439 261.279C14.3524 261.279 14.3609 261.279 14.3694 261.279C14.3779 261.279 14.3864 261.279 14.3949 261.279C14.4034 261.279 14.4119 261.279 14.4203 261.279C14.4288 261.279 14.4372 261.279 14.4457 261.279C14.4541 261.279 14.4626 261.279 14.471 261.279C14.4794 261.279 14.4878 261.279 14.4962 261.279C14.5046 261.279 14.513 261.279 14.5214 261.279C14.5298 261.279 14.5381 261.279 14.5465 261.279C14.5549 261.279 14.5632 261.279 14.5715 261.279C14.5799 261.279 14.5882 261.279 14.5965 261.279C14.6048 261.279 14.6132 261.279 14.6215 261.279C14.6298 261.279 14.638 261.279 14.6463 261.279C14.6546 261.279 14.6629 261.279 14.6711 261.279C14.6794 261.279 14.6876 261.279 14.6959 261.279C14.7041 261.279 14.7123 261.279 14.7206 261.279C14.7288 261.279 14.737 261.279 14.7452 261.279C14.7534 261.279 14.7616 261.279 14.7697 261.279C14.7779 261.279 14.7861 261.279 14.7943 261.279C14.8024 261.279 14.8106 261.279 14.8187 261.279C14.8268 261.279 14.835 261.279 14.8431 261.279C14.8512 261.279 14.8593 261.279 14.8674 261.279C14.8755 261.279 14.8836 261.279 14.8917 261.279C14.8998 261.279 14.9078 261.279 14.9159 261.279C14.9239 261.279 14.932 261.279 14.94 261.279C14.9481 261.279 14.9561 261.279 14.9641 261.279C14.9721 261.279 14.9801 261.279 14.9881 261.279C14.9961 261.279 15.0041 261.279 15.0121 261.279C15.0201 261.279 15.0281 261.279 15.036 261.279C15.044 261.279 15.0519 261.279 15.0599 261.279C15.0678 261.279 15.0757 261.279 15.0837 261.279C15.0916 261.279 15.0995 261.279 15.1074 261.279C15.1153 261.279 15.1232 261.279 15.1311 261.279C15.139 261.279 15.1468 261.279 15.1547 261.279C15.1625 261.279 15.1704 261.279 15.1782 261.279C15.1861 261.279 15.1939 261.279 15.2017 261.279C15.2096 261.279 15.2174 261.279 15.2252 261.279C15.233 261.279 15.2408 261.279 15.2486 261.279C15.2564 261.279 15.2641 261.279 15.2719 261.279C15.2797 261.279 15.2874 261.279 15.2952 261.279C15.3029 261.279 15.3106 261.279 15.3184 261.279C15.3261 261.279 15.3338 261.279 15.3415 261.279C15.3492 261.279 15.3569 261.279 15.3646 261.279C15.3723 261.279 15.38 261.279 15.3877 261.279C15.3953 261.279 15.403 261.279 15.4106 261.279C15.4183 261.279 15.4259 261.279 15.4336 261.279C15.4412 261.279 15.4488 261.279 15.4564 261.279C15.464 261.279 15.4716 261.279 15.4792 261.279C15.4868 261.279 15.4944 261.279 15.502 261.279C15.5096 261.279 15.5171 261.279 15.5247 261.279C15.5322 261.279 15.5398 261.279 15.5473 261.279C15.5549 261.279 15.5624 261.279 15.5699 261.279C15.5774 261.279 15.5849 261.279 15.5924 261.279C15.5999 261.279 15.6074 261.279 15.6149 261.279C15.6224 261.279 15.6299 261.279 15.6373 261.279C15.6448 261.279 15.6522 261.279 15.6597 261.279C15.6671 261.279 15.6746 261.279 15.682 261.279C15.6894 261.279 15.6968 261.279 15.7042 261.279C15.7116 261.279 15.719 261.279 15.7264 261.279C15.7338 261.279 15.7412 261.279 15.7485 261.279C15.7559 261.279 15.7633 261.279 15.7706 261.279C15.778 261.279 15.7853 261.279 15.7927 261.279C15.8 261.279 15.8073 261.279 15.8146 261.279C15.8219 261.279 15.8292 261.279 15.8365 261.279C15.8438 261.279 15.8511 261.279 15.8584 261.279C15.8657 261.279 15.8729 261.279 15.8802 261.279C15.8875 261.279 15.8947 261.279 15.9019 261.279C15.9092 261.279 15.9164 261.279 15.9236 261.279C15.9309 261.279 15.9381 261.279 15.9453 261.279C15.9525 261.279 15.9597 261.279 15.9669 261.279C15.974 261.279 15.9812 261.279 15.9884 261.279C15.9956 261.279 16.0027 261.279 16.0099 261.279C16.017 261.279 16.0242 261.279 16.0313 261.279C16.0384 261.279 16.0455 261.279 16.0527 261.279C16.0598 261.279 16.0669 261.279 16.074 261.279C16.0811 261.279 16.0881 261.279 16.0952 261.279C16.1023 261.279 16.1094 261.279 16.1164 261.279C16.1235 261.279 16.1305 261.279 16.1376 261.279C16.1446 261.279 16.1517 261.279 16.1587 261.279C16.1657 261.279 16.1727 261.279 16.1797 261.279C16.1867 261.279 16.1937 261.279 16.2007 261.279C16.2077 261.279 16.2147 261.279 16.2217 261.279C16.2286 261.279 16.2356 261.279 16.2425 261.279C16.2495 261.279 16.2564 261.279 16.2634 261.279C16.2703 261.279 16.2772 261.279 16.2841 261.279C16.2911 261.279 16.298 261.279 16.3049 261.279C16.3118 261.279 16.3187 261.279 16.3255 261.279C16.3324 261.279 16.3393 261.279 16.3462 261.279C16.353 261.279 16.3599 261.279 16.3667 261.279C16.3736 261.279 16.3804 261.279 16.3872 261.279C16.3941 261.279 16.4009 261.279 16.4077 261.279C16.4145 261.279 16.4213 261.279 16.4281 261.279C16.4349 261.279 16.4417 261.279 16.4485 261.279C16.4553 261.279 16.462 261.279 16.4688 261.279C16.4755 261.279 16.4823 261.279 16.489 261.279C16.4958 261.279 16.5025 261.279 16.5092 261.279C16.516 261.279 16.5227 261.279 16.5294 261.279C16.5361 261.279 16.5428 261.279 16.5495 261.279C16.5562 261.279 16.5629 261.279 16.5695 261.279C16.5762 261.279 16.5829 261.279 16.5895 261.279C16.5962 261.279 16.6028 261.279 16.6095 261.279C16.6161 261.279 16.6228 261.279 16.6294 261.279C16.636 261.279 16.6426 261.279 16.6492 261.279C16.6558 261.279 16.6624 261.279 16.669 261.279C16.6756 261.279 16.6822 261.279 16.6888 261.279C16.6953 261.279 16.7019 261.279 16.7085 261.279C16.715 261.279 16.7216 261.279 16.7281 261.279C16.7346 261.279 16.7412 261.279 16.7477 261.279C16.7542 261.279 16.7607 261.279 16.7672 261.279C16.7737 261.279 16.7802 261.279 16.7867 261.279C16.7932 261.279 16.7997 261.279 16.8062 261.279C16.8126 261.279 16.8191 261.279 16.8255 261.279C16.832 261.279 16.8384 261.279 16.8449 261.279C16.8513 261.279 16.8578 261.279 16.8642 261.279C16.8706 261.279 16.877 261.279 16.8834 261.279C16.8898 261.279 16.8962 261.279 16.9026 261.279C16.909 261.279 16.9154 261.279 16.9217 261.279C16.9281 261.279 16.9345 261.279 16.9408 261.279C16.9472 261.279 16.9535 261.279 16.9599 261.279C16.9662 261.279 16.9726 261.279 16.9789 261.279C16.9852 261.279 16.9915 261.279 16.9978 261.279C17.0041 261.279 17.0104 261.279 17.0167 261.279C17.023 261.279 17.0293 261.279 17.0356 261.279C17.0418 261.279 17.0481 261.279 17.0544 261.279C17.0606 261.279 17.0669 261.279 17.0731 261.279C17.0793 261.279 17.0856 261.279 17.0918 261.279C17.098 261.279 17.1042 261.279 17.1105 261.279C17.1167 261.279 17.1229 261.279 17.1291 261.279C17.1353 261.279 17.1414 261.279 17.1476 261.279C17.1538 261.279 17.16 261.279 17.1661 261.279C17.1723 261.279 17.1784 261.279 17.1846 261.279C17.1907 261.279 17.1969 261.279 17.203 261.279C17.2091 261.279 17.2152 261.279 17.2214 261.279C17.2275 261.279 17.2336 261.279 17.2397 261.279C17.2458 261.279 17.2519 261.279 17.2579 261.279C17.264 261.279 17.2701 261.279 17.2762 261.279C17.2822 261.279 17.2883 261.279 17.2943 261.279C17.3004 261.279 17.3064 261.279 17.3125 261.279C17.3185 261.279 17.3245 261.279 17.3305 261.279C17.3366 261.279 17.3426 261.279 17.3486 261.279C17.3546 261.279 17.3606 261.279 17.3666 261.279C17.3726 261.279 17.3785 261.279 17.3845 261.279C17.3905 261.279 17.3964 261.279 17.4024 261.279C17.4083 261.279 17.4143 261.279 17.4202 261.279C17.4262 261.279 17.4321 261.279 17.438 261.279C17.444 261.279 17.4499 261.279 17.4558 261.279C17.4617 261.279 17.4676 261.279 17.4735 261.279C17.4794 261.279 17.4853 261.279 17.4912 261.279C17.497 261.279 17.5029 261.279 17.5088 261.279C17.5146 261.279 17.5205 261.279 17.5263 261.279C17.5322 261.279 17.538 261.279 17.5439 261.279C17.5497 261.279 17.5555 261.279 17.5613 261.279C17.5672 261.279 17.573 261.279 17.5788 261.279C17.5846 261.279 17.5904 261.279 17.5962 261.279C17.6019 261.279 17.6077 261.279 17.6135 261.279C17.6193 261.279 17.625 261.279 17.6308 261.279C17.6365 261.279 17.6423 261.279 17.648 261.279C17.6538 261.279 17.6595 261.279 17.6652 261.279C17.671 261.279 17.6767 261.279 17.6824 261.279C17.6881 261.279 17.6938 261.279 17.6995 261.279C17.7052 261.279 17.7109 261.279 17.7166 261.279C17.7223 261.279 17.7279 261.279 17.7336 261.279C17.7393 261.279 17.7449 261.279 17.7506 261.279C17.7562 261.279 17.7619 261.279 17.7675 261.279C17.7732 261.279 17.7788 261.279 17.7844 261.279C17.79 261.279 17.7957 261.279 17.8013 261.279C17.8069 261.279 17.8125 261.279 17.8181 261.279C17.8237 261.279 17.8293 261.279 17.8348 261.279C17.8404 261.279 17.846 261.279 17.8515 261.279C17.8571 261.279 17.8627 261.279 17.8682 261.279C17.8738 261.279 17.8793 261.279 17.8848 261.279C17.8904 261.279 17.8959 261.279 17.9014 261.279C17.907 261.279 17.9125 261.279 17.918 261.279C17.9235 261.279 17.929 261.279 17.9345 261.279C17.94 261.279 17.9454 261.279 17.9509 261.279C17.9564 261.279 17.9619 261.279 17.9673 261.279C17.9728 261.279 17.9783 261.279 17.9837 261.279C17.9892 261.279 17.9946 261.279 18 261.279C18.0055 261.279 18.0109 261.279 18.0163 261.279C18.0217 261.279 18.0271 261.279 18.0326 261.279C18.038 261.279 18.0434 261.279 18.0487 261.279C18.0541 261.279 18.0595 261.279 18.0649 261.279C18.0703 261.279 18.0757 261.279 18.081 261.279C18.0864 261.279 18.0917 261.279 18.0971 261.279C18.1024 261.279 18.1078 261.279 18.1131 261.279C18.1184 261.279 18.1238 261.279 18.1291 261.279C18.1344 261.279 18.1397 261.279 18.145 261.279C18.1504 261.279 18.1557 261.279 18.1609 261.279C18.1662 261.279 18.1715 261.279 18.1768 261.279C18.1821 261.279 18.1874 261.279 18.1926 261.279C18.1979 261.279 18.2031 261.279 18.2084 261.279C18.2137 261.279 18.2189 261.279 18.2241 261.279C18.2294 261.279 18.2346 261.279 18.2398 261.279C18.2451 261.279 18.2503 261.279 18.2555 261.279C18.2607 261.279 18.2659 261.279 18.2711 261.279C18.2763 261.279 18.2815 261.279 18.2867 261.279C18.2919 261.279 18.297 261.279 18.3022 261.279C18.3074 261.279 18.3125 261.279 18.3177 261.279C18.3228 261.279 18.328 261.279 18.3331 261.279C18.3383 261.279 18.3434 261.279 18.3485 261.279C18.3537 261.279 18.3588 261.279 18.3639 261.279C18.369 261.279 18.3741 261.279 18.3792 261.279C18.3843 261.279 18.3894 261.279 18.3945 261.279C18.3996 261.279 18.4047 261.279 18.4098 261.279C18.4148 261.279 18.4199 261.279 18.425 261.279C18.43 261.279 18.4351 261.279 18.4401 261.279C18.4452 261.279 18.4502 261.279 18.4553 261.279C18.4603 261.279 18.4653 261.279 18.4704 261.279C18.4754 261.279 18.4804 261.279 18.4854 261.279C18.4904 261.279 18.4954 261.279 18.5004 261.279C18.5054 261.279 18.5104 261.279 18.5154 261.279C18.5204 261.279 18.5253 261.279 18.5303 261.279C18.5353 261.279 18.5403 261.279 18.5452 261.279C18.5502 261.279 18.5551 261.279 18.5601 261.279C18.565 261.279 18.5699 261.279 18.5749 261.279C18.5798 261.279 18.5847 261.279 18.5896 261.279C18.5946 261.279 18.5995 261.279 18.6044 261.279C18.6093 261.279 18.6142 261.279 18.6191 261.279C18.624 261.279 18.6289 261.279 18.6337 261.279C18.6386 261.279 18.6435 261.279 18.6484 261.279C18.6532 261.279 18.6581 261.279 18.6629 261.279C18.6678 261.279 18.6726 261.279 18.6775 261.279C18.6823 261.279 18.6872 261.279 18.692 261.279C18.6968 261.279 18.7016 261.279 18.7065 261.279C18.7113 261.279 18.7161 261.279 18.7209 261.279C18.7257 261.279 18.7305 261.279 18.7353 261.279C18.7401 261.279 18.7449 261.279 18.7496 261.279C18.7544 261.279 18.7592 261.279 18.7639 261.279C18.7687 261.279 18.7735 261.279 18.7782 261.279C18.783 261.279 18.7877 261.279 18.7925 261.279C18.7972 261.279 18.8019 261.279 18.8067 261.279C18.8114 261.279 18.8161 261.279 18.8208 261.279C18.8256 261.279 18.8303 261.279 18.835 261.279C18.8397 261.279 18.8444 261.279 18.8491 261.279C18.8538 261.279 18.8584 261.279 18.8631 261.279C18.8678 261.279 18.8725 261.279 18.8771 261.279C18.8818 261.279 18.8865 261.279 18.8911 261.279C18.8958 261.279 18.9004 261.279 18.9051 261.279C18.9097 261.279 18.9144 261.279 18.919 261.279C18.9236 261.279 18.9282 261.279 18.9329 261.279C18.9375 261.279 18.9421 261.279 18.9467 261.279C18.9513 261.279 18.9559 261.279 18.9605 261.279C18.9651 261.279 18.9697 261.279 18.9743 261.279C18.9788 261.279 18.9834 261.279 18.988 261.279C18.9926 261.279 18.9971 261.279 19.0017 261.279C19.0062 261.279 19.0108 261.279 19.0153 261.279C19.0199 261.279 19.0244 261.279 19.029 261.279C19.0335 261.279 19.038 261.279 19.0426 261.279C19.0471 261.279 19.0516 261.279 19.0561 261.279C19.0606 261.279 19.0651 261.279 19.0696 261.279C19.0741 261.279 19.0786 261.279 19.0831 261.279C19.0876 261.279 19.0921 261.279 19.0966 261.279C19.101 261.279 19.1055 261.279 19.11 261.279C19.1144 261.279 19.1189 261.279 19.1234 261.279V260.279V259.279C19.1189 259.279 19.1144 259.279 19.11 259.279C19.1055 259.279 19.101 259.279 19.0966 259.279C19.0921 259.279 19.0876 259.279 19.0831 259.279C19.0786 259.279 19.0741 259.279 19.0696 259.279C19.0651 259.279 19.0606 259.279 19.0561 259.279C19.0516 259.279 19.0471 259.279 19.0426 259.279C19.038 259.279 19.0335 259.279 19.029 259.279C19.0244 259.279 19.0199 259.279 19.0153 259.279C19.0108 259.279 19.0062 259.279 19.0017 259.279C18.9971 259.279 18.9926 259.279 18.988 259.279C18.9834 259.279 18.9788 259.279 18.9743 259.279C18.9697 259.279 18.9651 259.279 18.9605 259.279C18.9559 259.279 18.9513 259.279 18.9467 259.279C18.9421 259.279 18.9375 259.279 18.9329 259.279C18.9282 259.279 18.9236 259.279 18.919 259.279C18.9144 259.279 18.9097 259.279 18.9051 259.279C18.9004 259.279 18.8958 259.279 18.8911 259.279C18.8865 259.279 18.8818 259.279 18.8771 259.279C18.8725 259.279 18.8678 259.279 18.8631 259.279C18.8584 259.279 18.8538 259.279 18.8491 259.279C18.8444 259.279 18.8397 259.279 18.835 259.279C18.8303 259.279 18.8256 259.279 18.8208 259.279C18.8161 259.279 18.8114 259.279 18.8067 259.279C18.8019 259.279 18.7972 259.279 18.7925 259.279C18.7877 259.279 18.783 259.279 18.7782 259.279C18.7735 259.279 18.7687 259.279 18.7639 259.279C18.7592 259.279 18.7544 259.279 18.7496 259.279C18.7449 259.279 18.7401 259.279 18.7353 259.279C18.7305 259.279 18.7257 259.279 18.7209 259.279C18.7161 259.279 18.7113 259.279 18.7065 259.279C18.7016 259.279 18.6968 259.279 18.692 259.279C18.6872 259.279 18.6823 259.279 18.6775 259.279C18.6726 259.279 18.6678 259.279 18.6629 259.279C18.6581 259.279 18.6532 259.279 18.6484 259.279C18.6435 259.279 18.6386 259.279 18.6337 259.279C18.6289 259.279 18.624 259.279 18.6191 259.279C18.6142 259.279 18.6093 259.279 18.6044 259.279C18.5995 259.279 18.5946 259.279 18.5896 259.279C18.5847 259.279 18.5798 259.279 18.5749 259.279C18.5699 259.279 18.565 259.279 18.5601 259.279C18.5551 259.279 18.5502 259.279 18.5452 259.279C18.5403 259.279 18.5353 259.279 18.5303 259.279C18.5253 259.279 18.5204 259.279 18.5154 259.279C18.5104 259.279 18.5054 259.279 18.5004 259.279C18.4954 259.279 18.4904 259.279 18.4854 259.279C18.4804 259.279 18.4754 259.279 18.4704 259.279C18.4653 259.279 18.4603 259.279 18.4553 259.279C18.4502 259.279 18.4452 259.279 18.4401 259.279C18.4351 259.279 18.43 259.279 18.425 259.279C18.4199 259.279 18.4148 259.279 18.4098 259.279C18.4047 259.279 18.3996 259.279 18.3945 259.279C18.3894 259.279 18.3843 259.279 18.3792 259.279C18.3741 259.279 18.369 259.279 18.3639 259.279C18.3588 259.279 18.3537 259.279 18.3485 259.279C18.3434 259.279 18.3383 259.279 18.3331 259.279C18.328 259.279 18.3228 259.279 18.3177 259.279C18.3125 259.279 18.3074 259.279 18.3022 259.279C18.297 259.279 18.2919 259.279 18.2867 259.279C18.2815 259.279 18.2763 259.279 18.2711 259.279C18.2659 259.279 18.2607 259.279 18.2555 259.279C18.2503 259.279 18.2451 259.279 18.2398 259.279C18.2346 259.279 18.2294 259.279 18.2241 259.279C18.2189 259.279 18.2137 259.279 18.2084 259.279C18.2031 259.279 18.1979 259.279 18.1926 259.279C18.1874 259.279 18.1821 259.279 18.1768 259.279C18.1715 259.279 18.1662 259.279 18.1609 259.279C18.1557 259.279 18.1504 259.279 18.145 259.279C18.1397 259.279 18.1344 259.279 18.1291 259.279C18.1238 259.279 18.1184 259.279 18.1131 259.279C18.1078 259.279 18.1024 259.279 18.0971 259.279C18.0917 259.279 18.0864 259.279 18.081 259.279C18.0757 259.279 18.0703 259.279 18.0649 259.279C18.0595 259.279 18.0541 259.279 18.0487 259.279C18.0434 259.279 18.038 259.279 18.0326 259.279C18.0271 259.279 18.0217 259.279 18.0163 259.279C18.0109 259.279 18.0055 259.279 18 259.279C17.9946 259.279 17.9892 259.279 17.9837 259.279C17.9783 259.279 17.9728 259.279 17.9673 259.279C17.9619 259.279 17.9564 259.279 17.9509 259.279C17.9454 259.279 17.94 259.279 17.9345 259.279C17.929 259.279 17.9235 259.279 17.918 259.279C17.9125 259.279 17.907 259.279 17.9014 259.279C17.8959 259.279 17.8904 259.279 17.8848 259.279C17.8793 259.279 17.8738 259.279 17.8682 259.279C17.8627 259.279 17.8571 259.279 17.8515 259.279C17.846 259.279 17.8404 259.279 17.8348 259.279C17.8293 259.279 17.8237 259.279 17.8181 259.279C17.8125 259.279 17.8069 259.279 17.8013 259.279C17.7957 259.279 17.79 259.279 17.7844 259.279C17.7788 259.279 17.7732 259.279 17.7675 259.279C17.7619 259.279 17.7562 259.279 17.7506 259.279C17.7449 259.279 17.7393 259.279 17.7336 259.279C17.7279 259.279 17.7223 259.279 17.7166 259.279C17.7109 259.279 17.7052 259.279 17.6995 259.279C17.6938 259.279 17.6881 259.279 17.6824 259.279C17.6767 259.279 17.671 259.279 17.6652 259.279C17.6595 259.279 17.6538 259.279 17.648 259.279C17.6423 259.279 17.6365 259.279 17.6308 259.279C17.625 259.279 17.6193 259.279 17.6135 259.279C17.6077 259.279 17.6019 259.279 17.5962 259.279C17.5904 259.279 17.5846 259.279 17.5788 259.279C17.573 259.279 17.5672 259.279 17.5613 259.279C17.5555 259.279 17.5497 259.279 17.5439 259.279C17.538 259.279 17.5322 259.279 17.5263 259.279C17.5205 259.279 17.5146 259.279 17.5088 259.279C17.5029 259.279 17.497 259.279 17.4912 259.279C17.4853 259.279 17.4794 259.279 17.4735 259.279C17.4676 259.279 17.4617 259.279 17.4558 259.279C17.4499 259.279 17.444 259.279 17.438 259.279C17.4321 259.279 17.4262 259.279 17.4202 259.279C17.4143 259.279 17.4083 259.279 17.4024 259.279C17.3964 259.279 17.3905 259.279 17.3845 259.279C17.3785 259.279 17.3726 259.279 17.3666 259.279C17.3606 259.279 17.3546 259.279 17.3486 259.279C17.3426 259.279 17.3366 259.279 17.3305 259.279C17.3245 259.279 17.3185 259.279 17.3125 259.279C17.3064 259.279 17.3004 259.279 17.2943 259.279C17.2883 259.279 17.2822 259.279 17.2762 259.279C17.2701 259.279 17.264 259.279 17.2579 259.279C17.2519 259.279 17.2458 259.279 17.2397 259.279C17.2336 259.279 17.2275 259.279 17.2214 259.279C17.2152 259.279 17.2091 259.279 17.203 259.279C17.1969 259.279 17.1907 259.279 17.1846 259.279C17.1784 259.279 17.1723 259.279 17.1661 259.279C17.16 259.279 17.1538 259.279 17.1476 259.279C17.1414 259.279 17.1353 259.279 17.1291 259.279C17.1229 259.279 17.1167 259.279 17.1105 259.279C17.1042 259.279 17.098 259.279 17.0918 259.279C17.0856 259.279 17.0793 259.279 17.0731 259.279C17.0669 259.279 17.0606 259.279 17.0544 259.279C17.0481 259.279 17.0418 259.279 17.0356 259.279C17.0293 259.279 17.023 259.279 17.0167 259.279C17.0104 259.279 17.0041 259.279 16.9978 259.279C16.9915 259.279 16.9852 259.279 16.9789 259.279C16.9726 259.279 16.9662 259.279 16.9599 259.279C16.9535 259.279 16.9472 259.279 16.9408 259.279C16.9345 259.279 16.9281 259.279 16.9217 259.279C16.9154 259.279 16.909 259.279 16.9026 259.279C16.8962 259.279 16.8898 259.279 16.8834 259.279C16.877 259.279 16.8706 259.279 16.8642 259.279C16.8578 259.279 16.8513 259.279 16.8449 259.279C16.8384 259.279 16.832 259.279 16.8255 259.279C16.8191 259.279 16.8126 259.279 16.8062 259.279C16.7997 259.279 16.7932 259.279 16.7867 259.279C16.7802 259.279 16.7737 259.279 16.7672 259.279C16.7607 259.279 16.7542 259.279 16.7477 259.279C16.7412 259.279 16.7346 259.279 16.7281 259.279C16.7216 259.279 16.715 259.279 16.7085 259.279C16.7019 259.279 16.6953 259.279 16.6888 259.279C16.6822 259.279 16.6756 259.279 16.669 259.279C16.6624 259.279 16.6558 259.279 16.6492 259.279C16.6426 259.279 16.636 259.279 16.6294 259.279C16.6228 259.279 16.6161 259.279 16.6095 259.279C16.6028 259.279 16.5962 259.279 16.5895 259.279C16.5829 259.279 16.5762 259.279 16.5695 259.279C16.5629 259.279 16.5562 259.279 16.5495 259.279C16.5428 259.279 16.5361 259.279 16.5294 259.279C16.5227 259.279 16.516 259.279 16.5092 259.279C16.5025 259.279 16.4958 259.279 16.489 259.279C16.4823 259.279 16.4755 259.279 16.4688 259.279C16.462 259.279 16.4553 259.279 16.4485 259.279C16.4417 259.279 16.4349 259.279 16.4281 259.279C16.4213 259.279 16.4145 259.279 16.4077 259.279C16.4009 259.279 16.3941 259.279 16.3872 259.279C16.3804 259.279 16.3736 259.279 16.3667 259.279C16.3599 259.279 16.353 259.279 16.3462 259.279C16.3393 259.279 16.3324 259.279 16.3255 259.279C16.3187 259.279 16.3118 259.279 16.3049 259.279C16.298 259.279 16.2911 259.279 16.2841 259.279C16.2772 259.279 16.2703 259.279 16.2634 259.279C16.2564 259.279 16.2495 259.279 16.2425 259.279C16.2356 259.279 16.2286 259.279 16.2217 259.279C16.2147 259.279 16.2077 259.279 16.2007 259.279C16.1937 259.279 16.1867 259.279 16.1797 259.279C16.1727 259.279 16.1657 259.279 16.1587 259.279C16.1517 259.279 16.1446 259.279 16.1376 259.279C16.1305 259.279 16.1235 259.279 16.1164 259.279C16.1094 259.279 16.1023 259.279 16.0952 259.279C16.0881 259.279 16.0811 259.279 16.074 259.279C16.0669 259.279 16.0598 259.279 16.0527 259.279C16.0455 259.279 16.0384 259.279 16.0313 259.279C16.0242 259.279 16.017 259.279 16.0099 259.279C16.0027 259.279 15.9956 259.279 15.9884 259.279C15.9812 259.279 15.974 259.279 15.9669 259.279C15.9597 259.279 15.9525 259.279 15.9453 259.279C15.9381 259.279 15.9309 259.279 15.9236 259.279C15.9164 259.279 15.9092 259.279 15.9019 259.279C15.8947 259.279 15.8875 259.279 15.8802 259.279C15.8729 259.279 15.8657 259.279 15.8584 259.279C15.8511 259.279 15.8438 259.279 15.8365 259.279C15.8292 259.279 15.8219 259.279 15.8146 259.279C15.8073 259.279 15.8 259.279 15.7927 259.279C15.7853 259.279 15.778 259.279 15.7706 259.279C15.7633 259.279 15.7559 259.279 15.7485 259.279C15.7412 259.279 15.7338 259.279 15.7264 259.279C15.719 259.279 15.7116 259.279 15.7042 259.279C15.6968 259.279 15.6894 259.279 15.682 259.279C15.6746 259.279 15.6671 259.279 15.6597 259.279C15.6522 259.279 15.6448 259.279 15.6373 259.279C15.6299 259.279 15.6224 259.279 15.6149 259.279C15.6074 259.279 15.5999 259.279 15.5924 259.279C15.5849 259.279 15.5774 259.279 15.5699 259.279C15.5624 259.279 15.5549 259.279 15.5473 259.279C15.5398 259.279 15.5322 259.279 15.5247 259.279C15.5171 259.279 15.5096 259.279 15.502 259.279C15.4944 259.279 15.4868 259.279 15.4792 259.279C15.4716 259.279 15.464 259.279 15.4564 259.279C15.4488 259.279 15.4412 259.279 15.4336 259.279C15.4259 259.279 15.4183 259.279 15.4106 259.279C15.403 259.279 15.3953 259.279 15.3877 259.279C15.38 259.279 15.3723 259.279 15.3646 259.279C15.3569 259.279 15.3492 259.279 15.3415 259.279C15.3338 259.279 15.3261 259.279 15.3184 259.279C15.3106 259.279 15.3029 259.279 15.2952 259.279C15.2874 259.279 15.2797 259.279 15.2719 259.279C15.2641 259.279 15.2564 259.279 15.2486 259.279C15.2408 259.279 15.233 259.279 15.2252 259.279C15.2174 259.279 15.2096 259.279 15.2017 259.279C15.1939 259.279 15.1861 259.279 15.1782 259.279C15.1704 259.279 15.1625 259.279 15.1547 259.279C15.1468 259.279 15.139 259.279 15.1311 259.279C15.1232 259.279 15.1153 259.279 15.1074 259.279C15.0995 259.279 15.0916 259.279 15.0837 259.279C15.0757 259.279 15.0678 259.279 15.0599 259.279C15.0519 259.279 15.044 259.279 15.036 259.279C15.0281 259.279 15.0201 259.279 15.0121 259.279C15.0041 259.279 14.9961 259.279 14.9881 259.279C14.9801 259.279 14.9721 259.279 14.9641 259.279C14.9561 259.279 14.9481 259.279 14.94 259.279C14.932 259.279 14.9239 259.279 14.9159 259.279C14.9078 259.279 14.8998 259.279 14.8917 259.279C14.8836 259.279 14.8755 259.279 14.8674 259.279C14.8593 259.279 14.8512 259.279 14.8431 259.279C14.835 259.279 14.8268 259.279 14.8187 259.279C14.8106 259.279 14.8024 259.279 14.7943 259.279C14.7861 259.279 14.7779 259.279 14.7697 259.279C14.7616 259.279 14.7534 259.279 14.7452 259.279C14.737 259.279 14.7288 259.279 14.7206 259.279C14.7123 259.279 14.7041 259.279 14.6959 259.279C14.6876 259.279 14.6794 259.279 14.6711 259.279C14.6629 259.279 14.6546 259.279 14.6463 259.279C14.638 259.279 14.6298 259.279 14.6215 259.279C14.6132 259.279 14.6048 259.279 14.5965 259.279C14.5882 259.279 14.5799 259.279 14.5715 259.279C14.5632 259.279 14.5549 259.279 14.5465 259.279C14.5381 259.279 14.5298 259.279 14.5214 259.279C14.513 259.279 14.5046 259.279 14.4962 259.279C14.4878 259.279 14.4794 259.279 14.471 259.279C14.4626 259.279 14.4541 259.279 14.4457 259.279C14.4372 259.279 14.4288 259.279 14.4203 259.279C14.4119 259.279 14.4034 259.279 14.3949 259.279C14.3864 259.279 14.3779 259.279 14.3694 259.279C14.3609 259.279 14.3524 259.279 14.3439 259.279C14.3354 259.279 14.3268 259.279 14.3183 259.279C14.3098 259.279 14.3012 259.279 14.2926 259.279C14.2841 259.279 14.2755 259.279 14.2669 259.279C14.2583 259.279 14.2497 259.279 14.2411 259.279C14.2325 259.279 14.2239 259.279 14.2153 259.279C14.2066 259.279 14.198 259.279 14.1894 259.279C14.1807 259.279 14.172 259.279 14.1634 259.279C14.1547 259.279 14.146 259.279 14.1373 259.279C14.1286 259.279 14.12 259.279 14.1112 259.279C14.1025 259.279 14.0938 259.279 14.0851 259.279C14.0763 259.279 14.0676 259.279 14.0588 259.279C14.0501 259.279 14.0413 259.279 14.0326 259.279C14.0238 259.279 14.015 259.279 14.0062 259.279C13.9974 259.279 13.9886 259.279 13.9798 259.279C13.971 259.279 13.9621 259.279 13.9533 259.279C13.9445 259.279 13.9356 259.279 13.9268 259.279C13.9179 259.279 13.909 259.279 13.9002 259.279C13.8913 259.279 13.8824 259.279 13.8735 259.279C13.8646 259.279 13.8557 259.279 13.8468 259.279C13.8378 259.279 13.8289 259.279 13.82 259.279C13.811 259.279 13.8021 259.279 13.7931 259.279C13.7841 259.279 13.7752 259.279 13.7662 259.279C13.7572 259.279 13.7482 259.279 13.7392 259.279C13.7302 259.279 13.7211 259.279 13.7121 259.279C13.7031 259.279 13.6941 259.279 13.685 259.279C13.676 259.279 13.6669 259.279 13.6578 259.279C13.6487 259.279 13.6397 259.279 13.6306 259.279C13.6215 259.279 13.6124 259.279 13.6033 259.279C13.5941 259.279 13.585 259.279 13.5759 259.279C13.5667 259.279 13.5576 259.279 13.5484 259.279C13.5393 259.279 13.5301 259.279 13.5209 259.279C13.5117 259.279 13.5026 259.279 13.4933 259.279C13.4841 259.279 13.4749 259.279 13.4657 259.279C13.4565 259.279 13.4472 259.279 13.438 259.279C13.4288 259.279 13.4195 259.279 13.4102 259.279C13.401 259.279 13.3917 259.279 13.3824 259.279C13.3731 259.279 13.3638 259.279 13.3545 259.279C13.3452 259.279 13.3359 259.279 13.3265 259.279C13.3172 259.279 13.3078 259.279 13.2985 259.279C13.2891 259.279 13.2798 259.279 13.2704 259.279C13.261 259.279 13.2516 259.279 13.2422 259.279C13.2328 259.279 13.2234 259.279 13.214 259.279C13.2046 259.279 13.1951 259.279 13.1857 259.279C13.1763 259.279 13.1668 259.279 13.1573 259.279C13.1479 259.279 13.1384 259.279 13.1289 259.279C13.1194 259.279 13.1099 259.279 13.1004 259.279C13.0909 259.279 13.0814 259.279 13.0718 259.279C13.0623 259.279 13.0528 259.279 13.0432 259.279C13.0336 259.279 13.0241 259.279 13.0145 259.279C13.0049 259.279 12.9953 259.279 12.9857 259.279C12.9761 259.279 12.9665 259.279 12.9569 259.279C12.9473 259.279 12.9376 259.279 12.928 259.279C12.9184 259.279 12.9087 259.279 12.899 259.279C12.8894 259.279 12.8797 259.279 12.87 259.279C12.8603 259.279 12.8506 259.279 12.8409 259.279C12.8312 259.279 12.8215 259.279 12.8117 259.279C12.802 259.279 12.7922 259.279 12.7825 259.279C12.7727 259.279 12.763 259.279 12.7532 259.279C12.7434 259.279 12.7336 259.279 12.7238 259.279C12.714 259.279 12.7042 259.279 12.6944 259.279C12.6845 259.279 12.6747 259.279 12.6648 259.279C12.655 259.279 12.6451 259.279 12.6353 259.279C12.6254 259.279 12.6155 259.279 12.6056 259.279C12.5957 259.279 12.5858 259.279 12.5759 259.279C12.566 259.279 12.556 259.279 12.5461 259.279C12.5362 259.279 12.5262 259.279 12.5162 259.279C12.5063 259.279 12.4963 259.279 12.4863 259.279C12.4763 259.279 12.4663 259.279 12.4563 259.279C12.4463 259.279 12.4363 259.279 12.4263 259.279C12.4162 259.279 12.4062 259.279 12.3961 259.279C12.3861 259.279 12.376 259.279 12.3659 259.279C12.3558 259.279 12.3458 259.279 12.3357 259.279C12.3256 259.279 12.3154 259.279 12.3053 259.279C12.2952 259.279 12.2851 259.279 12.2749 259.279C12.2648 259.279 12.2546 259.279 12.2444 259.279C12.2342 259.279 12.2241 259.279 12.2139 259.279C12.2037 259.279 12.1935 259.279 12.1832 259.279C12.173 259.279 12.1628 259.279 12.1526 259.279C12.1423 259.279 12.1321 259.279 12.1218 259.279C12.1115 259.279 12.1013 259.279 12.091 259.279C12.0807 259.279 12.0704 259.279 12.0601 259.279C12.0497 259.279 12.0394 259.279 12.0291 259.279C12.0188 259.279 12.0084 259.279 11.998 259.279C11.9877 259.279 11.9773 259.279 11.9669 259.279C11.9565 259.279 11.9461 259.279 11.9357 259.279C11.9253 259.279 11.9149 259.279 11.9045 259.279C11.8941 259.279 11.8836 259.279 11.8732 259.279C11.8627 259.279 11.8522 259.279 11.8418 259.279C11.8313 259.279 11.8208 259.279 11.8103 259.279C11.7998 259.279 11.7893 259.279 11.7787 259.279C11.7682 259.279 11.7577 259.279 11.7471 259.279C11.7366 259.279 11.726 259.279 11.7154 259.279C11.7049 259.279 11.6943 259.279 11.6837 259.279C11.6731 259.279 11.6625 259.279 11.6519 259.279C11.6412 259.279 11.6306 259.279 11.62 259.279C11.6093 259.279 11.5987 259.279 11.588 259.279C11.5773 259.279 11.5666 259.279 11.5559 259.279C11.5452 259.279 11.5345 259.279 11.5238 259.279C11.5131 259.279 11.5024 259.279 11.4916 259.279C11.4809 259.279 11.4701 259.279 11.4594 259.279C11.4486 259.279 11.4378 259.279 11.427 259.279C11.4162 259.279 11.4054 259.279 11.3946 259.279C11.3838 259.279 11.373 259.279 11.3621 259.279C11.3513 259.279 11.3405 259.279 11.3296 259.279C11.3187 259.279 11.3079 259.279 11.297 259.279C11.2861 259.279 11.2752 259.279 11.2643 259.279C11.2533 259.279 11.2424 259.279 11.2315 259.279C11.2206 259.279 11.2096 259.279 11.1986 259.279C11.1877 259.279 11.1767 259.279 11.1657 259.279C11.1547 259.279 11.1437 259.279 11.1327 259.279C11.1217 259.279 11.1107 259.279 11.0997 259.279C11.0886 259.279 11.0776 259.279 11.0665 259.279C11.0555 259.279 11.0444 259.279 11.0333 259.279C11.0222 259.279 11.0111 259.279 11 259.279C10.9889 259.279 10.9778 259.279 10.9666 259.279C10.9555 259.279 10.9444 259.279 10.9332 259.279C10.922 259.279 10.9109 259.279 10.8997 259.279C10.8885 259.279 10.8773 259.279 10.8661 259.279C10.8549 259.279 10.8437 259.279 10.8324 259.279C10.8212 259.279 10.81 259.279 10.7987 259.279C10.7874 259.279 10.7762 259.279 10.7649 259.279C10.7536 259.279 10.7423 259.279 10.731 259.279C10.7197 259.279 10.7084 259.279 10.697 259.279C10.6857 259.279 10.6744 259.279 10.663 259.279C10.6517 259.279 10.6403 259.279 10.6289 259.279C10.6175 259.279 10.6061 259.279 10.5947 259.279C10.5833 259.279 10.5719 259.279 10.5604 259.279C10.549 259.279 10.5376 259.279 10.5261 259.279C10.5147 259.279 10.5032 259.279 10.4917 259.279C10.4802 259.279 10.4687 259.279 10.4572 259.279C10.4457 259.279 10.4342 259.279 10.4226 259.279C10.4111 259.279 10.3996 259.279 10.388 259.279C10.3764 259.279 10.3649 259.279 10.3533 259.279C10.3417 259.279 10.3301 259.279 10.3185 259.279C10.3069 259.279 10.2953 259.279 10.2836 259.279C10.272 259.279 10.2603 259.279 10.2487 259.279C10.237 259.279 10.2253 259.279 10.2136 259.279C10.202 259.279 10.1903 259.279 10.1785 259.279C10.1668 259.279 10.1551 259.279 10.1434 259.279C10.1316 259.279 10.1199 259.279 10.1081 259.279C10.0964 259.279 10.0846 259.279 10.0728 259.279C10.061 259.279 10.0492 259.279 10.0374 259.279C10.0256 259.279 10.0137 259.279 10.0019 259.279C9.99005 259.279 9.9782 259.279 9.96633 259.279C9.95446 259.279 9.94258 259.279 9.93069 259.279C9.9188 259.279 9.90689 259.279 9.89497 259.279C9.88305 259.279 9.87112 259.279 9.85918 259.279C9.84723 259.279 9.83528 259.279 9.82331 259.279C9.81134 259.279 9.79935 259.279 9.78735 259.279C9.77536 259.279 9.76335 259.279 9.75133 259.279C9.7393 259.279 9.72727 259.279 9.71522 259.279C9.70317 259.279 9.69111 259.279 9.67904 259.279C9.66696 259.279 9.65487 259.279 9.64277 259.279C9.63067 259.279 9.61856 259.279 9.60643 259.279C9.5943 259.279 9.58216 259.279 9.57001 259.279C9.55786 259.279 9.54569 259.279 9.53351 259.279C9.52133 259.279 9.50914 259.279 9.49694 259.279C9.48473 259.279 9.47251 259.279 9.46028 259.279C9.44805 259.279 9.4358 259.279 9.42355 259.279C9.41129 259.279 9.39902 259.279 9.38673 259.279C9.37445 259.279 9.36215 259.279 9.34984 259.279C9.33753 259.279 9.3252 259.279 9.31287 259.279C9.30053 259.279 9.28818 259.279 9.27581 259.279C9.26345 259.279 9.25107 259.279 9.23868 259.279C9.22629 259.279 9.21389 259.279 9.20147 259.279C9.18906 259.279 9.17663 259.279 9.16418 259.279C9.15174 259.279 9.13928 259.279 9.12681 259.279C9.11434 259.279 9.10186 259.279 9.08936 259.279C9.07687 259.279 9.06436 259.279 9.05183 259.279C9.03931 259.279 9.02677 259.279 9.01422 259.279C9.00167 259.279 8.98911 259.279 8.97653 259.279C8.96396 259.279 8.95137 259.279 8.93876 259.279C8.92616 259.279 8.91354 259.279 8.90091 259.279C8.88828 259.279 8.87564 259.279 8.86298 259.279C8.85032 259.279 8.83765 259.279 8.82497 259.279C8.81228 259.279 8.79958 259.279 8.78687 259.279C8.77416 259.279 8.76144 259.279 8.7487 259.279C8.73596 259.279 8.72321 259.279 8.71045 259.279C8.69768 259.279 8.6849 259.279 8.67211 259.279C8.65932 259.279 8.64651 259.279 8.63369 259.279C8.62087 259.279 8.60804 259.279 8.59519 259.279C8.58235 259.279 8.56949 259.279 8.55661 259.279C8.54374 259.279 8.53085 259.279 8.51795 259.279C8.50505 259.279 8.49214 259.279 8.47921 259.279C8.46628 259.279 8.45334 259.279 8.44039 259.279C8.42743 259.279 8.41446 259.279 8.40148 259.279C8.3885 259.279 8.3755 259.279 8.36249 259.279C8.34948 259.279 8.33646 259.279 8.32342 259.279C8.31038 259.279 8.29733 259.279 8.28427 259.279C8.2712 259.279 8.25812 259.279 8.24503 259.279C8.23194 259.279 8.21884 259.279 8.20572 259.279C8.1926 259.279 8.17946 259.279 8.16632 259.279C8.15317 259.279 8.14001 259.279 8.12683 259.279C8.11366 259.279 8.10047 259.279 8.08727 259.279C8.07407 259.279 8.06085 259.279 8.04762 259.279C8.03439 259.279 8.02115 259.279 8.00789 259.279C7.99463 259.279 7.98136 259.279 7.96808 259.279C7.95479 259.279 7.94149 259.279 7.92818 259.279C7.91487 259.279 7.90154 259.279 7.8882 259.279C7.87486 259.279 7.8615 259.279 7.84814 259.279C7.83477 259.279 7.82139 259.279 7.80799 259.279C7.79459 259.279 7.78118 259.279 7.76776 259.279C7.75434 259.279 7.7409 259.279 7.72745 259.279C7.71399 259.279 7.70053 259.279 7.68705 259.279C7.67357 259.279 7.66007 259.279 7.64657 259.279C7.63306 259.279 7.61954 259.279 7.606 259.279C7.59246 259.279 7.57891 259.279 7.56535 259.279C7.55179 259.279 7.53821 259.279 7.52462 259.279C7.51102 259.279 7.49742 259.279 7.4838 259.279C7.47018 259.279 7.45654 259.279 7.4429 259.279C7.42925 259.279 7.41558 259.279 7.40191 259.279C7.38823 259.279 7.37454 259.279 7.36084 259.279C7.34713 259.279 7.33341 259.279 7.31968 259.279C7.30595 259.279 7.2922 259.279 7.27844 259.279C7.26468 259.279 7.2509 259.279 7.23711 259.279C7.22332 259.279 7.20952 259.279 7.1957 259.279C7.18188 259.279 7.16805 259.279 7.1542 259.279C7.14036 259.279 7.1265 259.279 7.11262 259.279C7.09875 259.279 7.08486 259.279 7.07095 259.279C7.05705 259.279 7.04313 259.279 7.0292 259.279C7.01527 259.279 7.00132 259.279 6.98736 259.279C6.9734 259.279 6.95943 259.279 6.94544 259.279C6.93145 259.279 6.91745 259.279 6.90343 259.279C6.88941 259.279 6.87538 259.279 6.86133 259.279C6.84729 259.279 6.83323 259.279 6.81915 259.279C6.80508 259.279 6.79099 259.279 6.77688 259.279C6.76278 259.279 6.74866 259.279 6.73453 259.279C6.7204 259.279 6.70625 259.279 6.69209 259.279C6.67793 259.279 6.66375 259.279 6.64956 259.279C6.63537 259.279 6.62117 259.279 6.60695 259.279C6.59273 259.279 6.5785 259.279 6.56425 259.279C6.55 259.279 6.53574 259.279 6.52146 259.279C6.50718 259.279 6.49289 259.279 6.47859 259.279C6.46428 259.279 6.44996 259.279 6.43563 259.279C6.42129 259.279 6.40694 259.279 6.39258 259.279C6.37821 259.279 6.36383 259.279 6.34944 259.279C6.33505 259.279 6.32064 259.279 6.30622 259.279C6.2918 259.279 6.27736 259.279 6.26291 259.279C6.24846 259.279 6.23399 259.279 6.21951 259.279C6.20503 259.279 6.19054 259.279 6.17603 259.279C6.16152 259.279 6.14699 259.279 6.13245 259.279C6.11791 259.279 6.10336 259.279 6.08879 259.279C6.07422 259.279 6.05964 259.279 6.04504 259.279C6.03045 259.279 6.01583 259.279 6.00121 259.279C5.98658 259.279 5.97194 259.279 5.95728 259.279C5.94262 259.279 5.92795 259.279 5.91327 259.279C5.89858 259.279 5.88388 259.279 5.86917 259.279C5.85445 259.279 5.83972 259.279 5.82497 259.279C5.81023 259.279 5.79547 259.279 5.7807 259.279C5.76592 259.279 5.75113 259.279 5.73633 259.279C5.72152 259.279 5.70671 259.279 5.69187 259.279C5.67704 259.279 5.66219 259.279 5.64733 259.279C5.63246 259.279 5.61758 259.279 5.60269 259.279C5.5878 259.279 5.57289 259.279 5.55797 259.279C5.54304 259.279 5.52811 259.279 5.51315 259.279C5.4982 259.279 5.48323 259.279 5.46825 259.279C5.45327 259.279 5.43827 259.279 5.42326 259.279C5.40825 259.279 5.39322 259.279 5.37818 259.279C5.36314 259.279 5.34808 259.279 5.33301 259.279V260.279ZM39.1165 280.279H38.1165V545.333H39.1165H40.1165V280.279H39.1165ZM59.1165 565.333V566.333H318.333V565.333V564.333H59.1165V565.333ZM338.333 545.333H339.333V5.33331H338.333H337.333V545.333H338.333ZM318.333 565.333V566.333C329.931 566.333 339.333 556.931 339.333 545.333H338.333H337.333C337.333 555.827 328.826 564.333 318.333 564.333V565.333ZM39.1165 545.333H38.1165C38.1165 556.931 47.5185 566.333 59.1165 566.333V565.333V564.333C48.6231 564.333 40.1165 555.827 40.1165 545.333H39.1165ZM19.1234 260.279V261.279C29.6163 261.279 38.1165 269.785 38.1165 280.279H39.1165H40.1165C40.1165 268.682 30.7218 259.279 19.1234 259.279V260.279Z" fill="#C12930"/>
</svg>
