<svg width="1207" height="507" viewBox="0 0 1207 507" fill="none" xmlns="http://www.w3.org/2000/svg">
<path d="M0 234.264C0 238.683 3.58172 242.264 8 242.264C12.4183 242.264 16 238.683 16 234.264C16 229.846 12.4183 226.264 8 226.264C3.58172 226.264 0 229.846 0 234.264ZM1191 8C1191 12.4183 1194.58 16 1199 16C1203.42 16 1207 12.4183 1207 8C1207 3.58172 1203.42 0 1199 0C1194.58 0 1191 3.58172 1191 8ZM8 234.264V235.764C8.16023 235.764 8.31995 235.764 8.47918 235.764C8.63841 235.764 8.79714 235.764 8.95538 235.764C9.11361 235.764 9.27135 235.764 9.42859 235.764C9.58584 235.764 9.74259 235.764 9.89884 235.764C10.0551 235.764 10.2109 235.764 10.3661 235.764C10.5214 235.764 10.6762 235.764 10.8305 235.764C10.9848 235.764 11.1386 235.764 11.2919 235.764C11.4452 235.764 11.598 235.764 11.7504 235.764C11.9027 235.764 12.0546 235.764 12.206 235.764C12.3573 235.764 12.5082 235.764 12.6586 235.764C12.809 235.764 12.959 235.764 13.1084 235.764C13.2579 235.764 13.4068 235.764 13.5553 235.764C13.7038 235.764 13.8518 235.764 13.9993 235.764C14.1469 235.764 14.2939 235.764 14.4405 235.764C14.5871 235.764 14.7332 235.764 14.8788 235.764C15.0245 235.764 15.1696 235.764 15.3143 235.764C15.459 235.764 15.6032 235.764 15.747 235.764C15.8907 235.764 16.034 235.764 16.1768 235.764C16.3196 235.764 16.4619 235.764 16.6038 235.764C16.7457 235.764 16.8871 235.764 17.0281 235.764C17.169 235.764 17.3095 235.764 17.4495 235.764C17.5895 235.764 17.7291 235.764 17.8682 235.764C18.0073 235.764 18.1459 235.764 18.2841 235.764C18.4223 235.764 18.56 235.764 18.6972 235.764C18.8345 235.764 18.9713 235.764 19.1077 235.764C19.244 235.764 19.3799 235.764 19.5153 235.764C19.6508 235.764 19.7858 235.764 19.9203 235.764C20.0548 235.764 20.1889 235.764 20.3226 235.764C20.4562 235.764 20.5894 235.764 20.7221 235.764C20.8548 235.764 20.9871 235.764 21.119 235.764C21.2508 235.764 21.3822 235.764 21.5132 235.764C21.6441 235.764 21.7746 235.764 21.9047 235.764C22.0347 235.764 22.1644 235.764 22.2935 235.764C22.4227 235.764 22.5514 235.764 22.6797 235.764C22.808 235.764 22.9359 235.764 23.0633 235.764C23.1907 235.764 23.3177 235.764 23.4443 235.764C23.5708 235.764 23.6969 235.764 23.8226 235.764C23.9483 235.764 24.0735 235.764 24.1984 235.764C24.3232 235.764 24.4475 235.764 24.5715 235.764C24.6955 235.764 24.819 235.764 24.9421 235.764C25.0652 235.764 25.1878 235.764 25.3101 235.764C25.4323 235.764 25.5541 235.764 25.6755 235.764C25.7969 235.764 25.9178 235.764 26.0384 235.764C26.1589 235.764 26.279 235.764 26.3987 235.764C26.5184 235.764 26.6377 235.764 26.7565 235.764C26.8754 235.764 26.9938 235.764 27.1118 235.764C27.2298 235.764 27.3474 235.764 27.4646 235.764C27.5818 235.764 27.6986 235.764 27.8149 235.764C27.9312 235.764 28.0472 235.764 28.1627 235.764C28.2782 235.764 28.3933 235.764 28.508 235.764C28.6227 235.764 28.737 235.764 28.8509 235.764C28.9648 235.764 29.0783 235.764 29.1913 235.764C29.3044 235.764 29.417 235.764 29.5293 235.764C29.6415 235.764 29.7534 235.764 29.8648 235.764C29.9763 235.764 30.0873 235.764 30.198 235.764C30.3086 235.764 30.4188 235.764 30.5287 235.764C30.6385 235.764 30.7479 235.764 30.857 235.764C30.966 235.764 31.0746 235.764 31.1829 235.764C31.2911 235.764 31.399 235.764 31.5064 235.764C31.6139 235.764 31.7209 235.764 31.8276 235.764C31.9343 235.764 32.0405 235.764 32.1464 235.764C32.2523 235.764 32.3578 235.764 32.4629 235.764C32.568 235.764 32.6727 235.764 32.777 235.764C32.8813 235.764 32.9853 235.764 33.0888 235.764C33.1924 235.764 33.2955 235.764 33.3983 235.764C33.5011 235.764 33.6035 235.764 33.7055 235.764C33.8075 235.764 33.9091 235.764 34.0104 235.764C34.1116 235.764 34.2125 235.764 34.313 235.764C34.4135 235.764 34.5136 235.764 34.6133 235.764C34.7131 235.764 34.8124 235.764 34.9114 235.764C35.0104 235.764 35.109 235.764 35.2073 235.764C35.3055 235.764 35.4034 235.764 35.5008 235.764C35.5983 235.764 35.6955 235.764 35.7922 235.764C35.889 235.764 35.9853 235.764 36.0814 235.764C36.1774 235.764 36.273 235.764 36.3683 235.764C36.4636 235.764 36.5585 235.764 36.653 235.764C36.7476 235.764 36.8418 235.764 36.9356 235.764C37.0294 235.764 37.1229 235.764 37.216 235.764C37.3091 235.764 37.4018 235.764 37.4942 235.764C37.5865 235.764 37.6786 235.764 37.7702 235.764C37.8619 235.764 37.9532 235.764 38.0441 235.764C38.1351 235.764 38.2257 235.764 38.3159 235.764C38.4062 235.764 38.4961 235.764 38.5856 235.764C38.6751 235.764 38.7643 235.764 38.8531 235.764C38.942 235.764 39.0305 235.764 39.1186 235.764C39.2067 235.764 39.2945 235.764 39.382 235.764C39.4694 235.764 39.5565 235.764 39.6432 235.764C39.73 235.764 39.8164 235.764 39.9024 235.764C39.9885 235.764 40.0742 235.764 40.1596 235.764C40.245 235.764 40.33 235.764 40.4147 235.764C40.4994 235.764 40.5838 235.764 40.6678 235.764C40.7518 235.764 40.8355 235.764 40.9188 235.764C41.0022 235.764 41.0852 235.764 41.1679 235.764C41.2505 235.764 41.3329 235.764 41.4149 235.764C41.4969 235.764 41.5786 235.764 41.6599 235.764C41.7413 235.764 41.8223 235.764 41.903 235.764C41.9837 235.764 42.064 235.764 42.144 235.764C42.2241 235.764 42.3038 235.764 42.3832 235.764C42.4625 235.764 42.5416 235.764 42.6203 235.764C42.6991 235.764 42.7775 235.764 42.8555 235.764C42.9336 235.764 43.0114 235.764 43.0888 235.764C43.1663 235.764 43.2434 235.764 43.3202 235.764C43.397 235.764 43.4735 235.764 43.5497 235.764C43.6259 235.764 43.7017 235.764 43.7773 235.764C43.8528 235.764 43.928 235.764 44.0029 235.764C44.0779 235.764 44.1525 235.764 44.2268 235.764C44.3011 235.764 44.375 235.764 44.4487 235.764C44.5224 235.764 44.5957 235.764 44.6688 235.764C44.7419 235.764 44.8146 235.764 44.887 235.764C44.9595 235.764 45.0316 235.764 45.1035 235.764C45.1753 235.764 45.2468 235.764 45.318 235.764C45.3893 235.764 45.4602 235.764 45.5308 235.764C45.6015 235.764 45.6718 235.764 45.7418 235.764C45.8118 235.764 45.8816 235.764 45.951 235.764C46.0204 235.764 46.0896 235.764 46.1584 235.764C46.2272 235.764 46.2958 235.764 46.364 235.764C46.4323 235.764 46.5003 235.764 46.5679 235.764C46.6356 235.764 46.703 235.764 46.7701 235.764C46.8371 235.764 46.9039 235.764 46.9705 235.764C47.037 235.764 47.1032 235.764 47.1691 235.764C47.2351 235.764 47.3007 235.764 47.3661 235.764C47.4314 235.764 47.4965 235.764 47.5613 235.764C47.6261 235.764 47.6906 235.764 47.7549 235.764C47.8191 235.764 47.8831 235.764 47.9468 235.764C48.0104 235.764 48.0738 235.764 48.137 235.764C48.2001 235.764 48.2629 235.764 48.3255 235.764C48.3881 235.764 48.4504 235.764 48.5124 235.764C48.5744 235.764 48.6362 235.764 48.6976 235.764C48.7591 235.764 48.8203 235.764 48.8813 235.764C48.9422 235.764 49.0029 235.764 49.0633 235.764C49.1236 235.764 49.1838 235.764 49.2436 235.764C49.3035 235.764 49.3631 235.764 49.4224 235.764C49.4818 235.764 49.5408 235.764 49.5996 235.764C49.6584 235.764 49.717 235.764 49.7753 235.764C49.8335 235.764 49.8916 235.764 49.9493 235.764C50.0071 235.764 50.0646 235.764 50.1218 235.764C50.1791 235.764 50.2361 235.764 50.2928 235.764C50.3495 235.764 50.406 235.764 50.4622 235.764C50.5185 235.764 50.5744 235.764 50.6301 235.764C50.6859 235.764 50.7413 235.764 50.7965 235.764C50.8517 235.764 50.9067 235.764 50.9614 235.764C51.0161 235.764 51.0706 235.764 51.1248 235.764C51.1791 235.764 51.233 235.764 51.2868 235.764C51.3405 235.764 51.394 235.764 51.4472 235.764C51.5005 235.764 51.5534 235.764 51.6062 235.764C51.659 235.764 51.7115 235.764 51.7637 235.764C51.816 235.764 51.8681 235.764 51.9199 235.764C51.9717 235.764 52.0232 235.764 52.0745 235.764C52.1259 235.764 52.177 235.764 52.2278 235.764C52.2787 235.764 52.3293 235.764 52.3797 235.764C52.4301 235.764 52.4802 235.764 52.5301 235.764C52.5801 235.764 52.6298 235.764 52.6792 235.764C52.7287 235.764 52.7779 235.764 52.8269 235.764C52.8759 235.764 52.9247 235.764 52.9733 235.764C53.0218 235.764 53.0702 235.764 53.1183 235.764C53.1664 235.764 53.2143 235.764 53.2619 235.764C53.3096 235.764 53.357 235.764 53.4043 235.764C53.4515 235.764 53.4985 235.764 53.5453 235.764C53.592 235.764 53.6386 235.764 53.685 235.764C53.7313 235.764 53.7774 235.764 53.8234 235.764C53.8693 235.764 53.915 235.764 53.9605 235.764C54.006 235.764 54.0512 235.764 54.0963 235.764C54.1414 235.764 54.1862 235.764 54.2309 235.764C54.2755 235.764 54.32 235.764 54.3642 235.764C54.4084 235.764 54.4524 235.764 54.4963 235.764C54.5401 235.764 54.5837 235.764 54.6271 235.764C54.6705 235.764 54.7137 235.764 54.7567 235.764C54.7997 235.764 54.8425 235.764 54.8851 235.764C54.9277 235.764 54.9701 235.764 55.0123 235.764C55.0545 235.764 55.0965 235.764 55.1383 235.764C55.1801 235.764 55.2217 235.764 55.2631 235.764C55.3045 235.764 55.3457 235.764 55.3868 235.764C55.4278 235.764 55.4686 235.764 55.5093 235.764C55.5499 235.764 55.5904 235.764 55.6306 235.764C55.6709 235.764 55.7109 235.764 55.7508 235.764C55.7907 235.764 55.8304 235.764 55.8699 235.764C55.9094 235.764 55.9487 235.764 55.9879 235.764C56.027 235.764 56.066 235.764 56.1047 235.764C56.1435 235.764 56.1821 235.764 56.2205 235.764C56.2589 235.764 56.2971 235.764 56.3352 235.764C56.3732 235.764 56.4111 235.764 56.4488 235.764C56.4865 235.764 56.524 235.764 56.5613 235.764C56.5987 235.764 56.6358 235.764 56.6728 235.764C56.7098 235.764 56.7466 235.764 56.7833 235.764C56.8199 235.764 56.8564 235.764 56.8927 235.764C56.929 235.764 56.9651 235.764 57.0011 235.764C57.0371 235.764 57.0728 235.764 57.1085 235.764C57.1441 235.764 57.1796 235.764 57.2149 235.764C57.2502 235.764 57.2853 235.764 57.3203 235.764C57.3552 235.764 57.3901 235.764 57.4247 235.764C57.4593 235.764 57.4938 235.764 57.5282 235.764C57.5625 235.764 57.5967 235.764 57.6307 235.764C57.6647 235.764 57.6985 235.764 57.7322 235.764C57.7659 235.764 57.7995 235.764 57.8328 235.764C57.8662 235.764 57.8995 235.764 57.9325 235.764C57.9656 235.764 57.9986 235.764 58.0313 235.764C58.0641 235.764 58.0967 235.764 58.1292 235.764C58.1617 235.764 58.194 235.764 58.2262 235.764C58.2584 235.764 58.2904 235.764 58.3223 235.764C58.3542 235.764 58.386 235.764 58.4176 235.764C58.4492 235.764 58.4806 235.764 58.5119 235.764C58.5433 235.764 58.5744 235.764 58.6055 235.764C58.6365 235.764 58.6674 235.764 58.6982 235.764C58.7289 235.764 58.7596 235.764 58.79 235.764C58.8205 235.764 58.8509 235.764 58.8811 235.764C58.9113 235.764 58.9414 235.764 58.9713 235.764C59.0013 235.764 59.0311 235.764 59.0608 235.764C59.0905 235.764 59.12 235.764 59.1494 235.764C59.1789 235.764 59.2082 235.764 59.2373 235.764C59.2665 235.764 59.2955 235.764 59.3245 235.764C59.3534 235.764 59.3822 235.764 59.4108 235.764C59.4395 235.764 59.468 235.764 59.4965 235.764C59.5249 235.764 59.5532 235.764 59.5814 235.764C59.6095 235.764 59.6376 235.764 59.6655 235.764C59.6935 235.764 59.7213 235.764 59.749 235.764C59.7767 235.764 59.8043 235.764 59.8318 235.764C59.8593 235.764 59.8866 235.764 59.9139 235.764C59.9411 235.764 59.9683 235.764 59.9953 235.764C60.0223 235.764 60.0492 235.764 60.076 235.764C60.1028 235.764 60.1295 235.764 60.1561 235.764C60.1827 235.764 60.2092 235.764 60.2355 235.764C60.2619 235.764 60.2882 235.764 60.3143 235.764C60.3405 235.764 60.3666 235.764 60.3925 235.764C60.4185 235.764 60.4443 235.764 60.4701 235.764C60.4958 235.764 60.5215 235.764 60.547 235.764C60.5726 235.764 60.598 235.764 60.6234 235.764C60.6488 235.764 60.674 235.764 60.6992 235.764C60.7243 235.764 60.7494 235.764 60.7744 235.764C60.7994 235.764 60.8243 235.764 60.8491 235.764C60.8738 235.764 60.8985 235.764 60.9232 235.764C60.9478 235.764 60.9723 235.764 60.9967 235.764C61.0212 235.764 61.0455 235.764 61.0698 235.764C61.094 235.764 61.1182 235.764 61.1423 235.764C61.1664 235.764 61.1904 235.764 61.2143 235.764C61.2382 235.764 61.2621 235.764 61.2858 235.764C61.3096 235.764 61.3333 235.764 61.3568 235.764C61.3805 235.764 61.404 235.764 61.4274 235.764C61.4509 235.764 61.4742 235.764 61.4975 235.764C61.5208 235.764 61.544 235.764 61.5672 235.764C61.5903 235.764 61.6134 235.764 61.6363 235.764C61.6593 235.764 61.6823 235.764 61.7051 235.764C61.728 235.764 61.7508 235.764 61.7735 235.764C61.7962 235.764 61.8188 235.764 61.8414 235.764C61.864 235.764 61.8865 235.764 61.9089 235.764C61.9314 235.764 61.9538 235.764 61.9761 235.764C61.9984 235.764 62.0207 235.764 62.0429 235.764C62.065 235.764 62.0872 235.764 62.1093 235.764C62.1313 235.764 62.1533 235.764 62.1753 235.764C62.1973 235.764 62.2192 235.764 62.241 235.764C62.2628 235.764 62.2846 235.764 62.3064 235.764C62.3281 235.764 62.3498 235.764 62.3714 235.764C62.393 235.764 62.4146 235.764 62.4361 235.764C62.4577 235.764 62.4791 235.764 62.5005 235.764C62.522 235.764 62.5434 235.764 62.5647 235.764C62.586 235.764 62.6073 235.764 62.6285 235.764C62.6498 235.764 62.671 235.764 62.6921 235.764C62.7132 235.764 62.7344 235.764 62.7554 235.764C62.7765 235.764 62.7975 235.764 62.8185 235.764C62.8395 235.764 62.8604 235.764 62.8813 235.764C62.9022 235.764 62.9231 235.764 62.9439 235.764C62.9647 235.764 62.9855 235.764 63.0063 235.764C63.027 235.764 63.0478 235.764 63.0685 235.764C63.0891 235.764 63.1098 235.764 63.1304 235.764C63.1511 235.764 63.1717 235.764 63.1922 235.764C63.2128 235.764 63.2333 235.764 63.2538 235.764C63.2743 235.764 63.2948 235.764 63.3153 235.764C63.3357 235.764 63.3562 235.764 63.3766 235.764C63.397 235.764 63.4174 235.764 63.4377 235.764C63.4581 235.764 63.4784 235.764 63.4988 235.764C63.5191 235.764 63.5394 235.764 63.5597 235.764C63.5799 235.764 63.6002 235.764 63.6205 235.764C63.6407 235.764 63.6609 235.764 63.6811 235.764C63.7014 235.764 63.7216 235.764 63.7417 235.764C63.7619 235.764 63.7821 235.764 63.8023 235.764C63.8224 235.764 63.8426 235.764 63.8627 235.764C63.8829 235.764 63.903 235.764 63.9231 235.764C63.9432 235.764 63.9634 235.764 63.9835 235.764C64.0036 235.764 64.0237 235.764 64.0438 235.764C64.0639 235.764 64.084 235.764 64.1041 235.764C64.1242 235.764 64.1442 235.764 64.1643 235.764C64.1844 235.764 64.2045 235.764 64.2246 235.764C64.2447 235.764 64.2648 235.764 64.2849 235.764C64.305 235.764 64.3251 235.764 64.3452 235.764C64.3653 235.764 64.3854 235.764 64.4055 235.764C64.4256 235.764 64.4457 235.764 64.4659 235.764C64.486 235.764 64.5061 235.764 64.5263 235.764C64.5464 235.764 64.5666 235.764 64.5867 235.764C64.6069 235.764 64.6271 235.764 64.6473 235.764C64.6675 235.764 64.6877 235.764 64.7079 235.764C64.7281 235.764 64.7484 235.764 64.7686 235.764C64.7889 235.764 64.8092 235.764 64.8294 235.764C64.8497 235.764 64.8701 235.764 64.8904 235.764C64.9107 235.764 64.9311 235.764 64.9514 235.764C64.9718 235.764 64.9922 235.764 65.0126 235.764C65.0331 235.764 65.0535 235.764 65.074 235.764C65.0944 235.764 65.1149 235.764 65.1355 235.764C65.156 235.764 65.1765 235.764 65.1971 235.764C65.2177 235.764 65.2383 235.764 65.259 235.764C65.2796 235.764 65.3003 235.764 65.321 235.764C65.3417 235.764 65.3625 235.764 65.3832 235.764C65.404 235.764 65.4248 235.764 65.4457 235.764C65.4665 235.764 65.4874 235.764 65.5083 235.764C65.5293 235.764 65.5502 235.764 65.5712 235.764C65.5922 235.764 65.6133 235.764 65.6344 235.764C65.6554 235.764 65.6766 235.764 65.6977 235.764C65.7189 235.764 65.7401 235.764 65.7614 235.764C65.7827 235.764 65.804 235.764 65.8253 235.764C65.8467 235.764 65.8681 235.764 65.8895 235.764C65.911 235.764 65.9325 235.764 65.954 235.764C65.9756 235.764 65.9972 235.764 66.0188 235.764C66.0405 235.764 66.0622 235.764 66.084 235.764C66.1057 235.764 66.1276 235.764 66.1494 235.764C66.1713 235.764 66.1932 235.764 66.2152 235.764C66.2372 235.764 66.2593 235.764 66.2814 235.764C66.3035 235.764 66.3256 235.764 66.3479 235.764C66.3701 235.764 66.3924 235.764 66.4147 235.764C66.4371 235.764 66.4595 235.764 66.482 235.764C66.5045 235.764 66.527 235.764 66.5496 235.764C66.5723 235.764 66.5949 235.764 66.6177 235.764C66.6404 235.764 66.6633 235.764 66.6862 235.764C66.709 235.764 66.732 235.764 66.755 235.764C66.7781 235.764 66.8012 235.764 66.8244 235.764C66.8475 235.764 66.8708 235.764 66.8941 235.764C66.9175 235.764 66.9409 235.764 66.9644 235.764C66.9878 235.764 67.0114 235.764 67.035 235.764C67.0587 235.764 67.0824 235.764 67.1062 235.764C67.13 235.764 67.1539 235.764 67.1779 235.764C67.2018 235.764 67.2259 235.764 67.25 235.764C67.2742 235.764 67.2984 235.764 67.3227 235.764C67.347 235.764 67.3714 235.764 67.3959 235.764C67.4204 235.764 67.4449 235.764 67.4696 235.764C67.4943 235.764 67.519 235.764 67.5438 235.764C67.5687 235.764 67.5936 235.764 67.6187 235.764C67.6437 235.764 67.6688 235.764 67.694 235.764C67.7193 235.764 67.7446 235.764 67.77 235.764C67.7954 235.764 67.8209 235.764 67.8465 235.764C67.8721 235.764 67.8978 235.764 67.9236 235.764C67.9494 235.764 67.9754 235.764 68.0014 235.764C68.0274 235.764 68.0535 235.764 68.0797 235.764C68.1059 235.764 68.1323 235.764 68.1587 235.764C68.1851 235.764 68.2117 235.764 68.2383 235.764C68.265 235.764 68.2917 235.764 68.3186 235.764C68.3454 235.764 68.3724 235.764 68.3995 235.764C68.4266 235.764 68.4538 235.764 68.4811 235.764C68.5084 235.764 68.5358 235.764 68.5634 235.764C68.5909 235.764 68.6186 235.764 68.6463 235.764C68.6741 235.764 68.702 235.764 68.73 235.764C68.758 235.764 68.7861 235.764 68.8144 235.764C68.8426 235.764 68.871 235.764 68.8995 235.764C68.928 235.764 68.9566 235.764 68.9853 235.764C69.014 235.764 69.0429 235.764 69.0719 235.764C69.1009 235.764 69.13 235.764 69.1592 235.764C69.1885 235.764 69.2178 235.764 69.2473 235.764C69.2768 235.764 69.3065 235.764 69.3362 235.764C69.366 235.764 69.3959 235.764 69.4259 235.764C69.4559 235.764 69.4861 235.764 69.5164 235.764C69.5466 235.764 69.5771 235.764 69.6076 235.764C69.6382 235.764 69.6689 235.764 69.6997 235.764C69.7306 235.764 69.7615 235.764 69.7927 235.764C69.8238 235.764 69.855 235.764 69.8864 235.764C69.9178 235.764 69.9494 235.764 69.981 235.764C70.0127 235.764 70.0446 235.764 70.0765 235.764C70.1085 235.764 70.1406 235.764 70.1729 235.764C70.2051 235.764 70.2376 235.764 70.2701 235.764C70.3027 235.764 70.3354 235.764 70.3683 235.764C70.4011 235.764 70.4341 235.764 70.4673 235.764C70.5005 235.764 70.5338 235.764 70.5673 235.764C70.6007 235.764 70.6344 235.764 70.6681 235.764C70.7019 235.764 70.7359 235.764 70.77 235.764C70.8041 235.764 70.8383 235.764 70.8727 235.764C70.9071 235.764 70.9417 235.764 70.9765 235.764C71.0112 235.764 71.0461 235.764 71.0812 235.764C71.1162 235.764 71.1514 235.764 71.1868 235.764C71.2222 235.764 71.2578 235.764 71.2935 235.764C71.3292 235.764 71.3651 235.764 71.4012 235.764C71.4372 235.764 71.4734 235.764 71.5098 235.764C71.5462 235.764 71.5828 235.764 71.6196 235.764C71.6563 235.764 71.6932 235.764 71.7303 235.764C71.7674 235.764 71.8046 235.764 71.8421 235.764C71.8795 235.764 71.9171 235.764 71.9549 235.764C71.9927 235.764 72.0307 235.764 72.0688 235.764C72.107 235.764 72.1453 235.764 72.1838 235.764C72.2223 235.764 72.261 235.764 72.2999 235.764C72.3387 235.764 72.3778 235.764 72.417 235.764C72.4563 235.764 72.4957 235.764 72.5353 235.764C72.5749 235.764 72.6147 235.764 72.6547 235.764C72.6947 235.764 72.7349 235.764 72.7752 235.764C72.8156 235.764 72.8561 235.764 72.8969 235.764C72.9376 235.764 72.9786 235.764 73.0197 235.764C73.0608 235.764 73.1022 235.764 73.1437 235.764C73.1852 235.764 73.2269 235.764 73.2688 235.764C73.3108 235.764 73.3529 235.764 73.3952 235.764C73.4375 235.764 73.48 235.764 73.5227 235.764C73.5654 235.764 73.6083 235.764 73.6514 235.764C73.6946 235.764 73.7379 235.764 73.7814 235.764C73.8249 235.764 73.8686 235.764 73.9126 235.764C73.9565 235.764 74.0006 235.764 74.045 235.764C74.0893 235.764 74.1339 235.764 74.1786 235.764C74.2234 235.764 74.2684 235.764 74.3136 235.764C74.3587 235.764 74.4041 235.764 74.4498 235.764C74.4954 235.764 74.5412 235.764 74.5872 235.764C74.6333 235.764 74.6795 235.764 74.726 235.764C74.7724 235.764 74.8191 235.764 74.866 235.764C74.9129 235.764 74.9601 235.764 75.0074 235.764C75.0548 235.764 75.1023 235.764 75.1501 235.764C75.1979 235.764 75.2459 235.764 75.2941 235.764C75.3424 235.764 75.3908 235.764 75.4395 235.764C75.4882 235.764 75.5371 235.764 75.5862 235.764C75.6354 235.764 75.6847 235.764 75.7343 235.764C75.7839 235.764 75.8337 235.764 75.8838 235.764C75.9338 235.764 75.9841 235.764 76.0346 235.764C76.0852 235.764 76.1359 235.764 76.1869 235.764C76.2379 235.764 76.2891 235.764 76.3406 235.764C76.392 235.764 76.4437 235.764 76.4956 235.764C76.5476 235.764 76.5997 235.764 76.6522 235.764C76.7046 235.764 76.7572 235.764 76.8101 235.764C76.863 235.764 76.9161 235.764 76.9695 235.764C77.0229 235.764 77.0765 235.764 77.1304 235.764C77.1842 235.764 77.2383 235.764 77.2927 235.764C77.3471 235.764 77.4017 235.764 77.4565 235.764C77.5114 235.764 77.5665 235.764 77.6218 235.764C77.6772 235.764 77.7328 235.764 77.7886 235.764C77.8445 235.764 77.9006 235.764 77.957 235.764C78.0133 235.764 78.07 235.764 78.1268 235.764C78.1837 235.764 78.2408 235.764 78.2982 235.764C78.3556 235.764 78.4133 235.764 78.4712 235.764C78.5291 235.764 78.5872 235.764 78.6457 235.764C78.7041 235.764 78.7628 235.764 78.8217 235.764C78.8807 235.764 78.9399 235.764 78.9994 235.764C79.0588 235.764 79.1186 235.764 79.1786 235.764C79.2386 235.764 79.2989 235.764 79.3594 235.764C79.42 235.764 79.4808 235.764 79.5419 235.764C79.603 235.764 79.6643 235.764 79.726 235.764C79.7876 235.764 79.8495 235.764 79.9117 235.764C79.9738 235.764 80.0363 235.764 80.099 235.764C80.1617 235.764 80.2247 235.764 80.288 235.764C80.3513 235.764 80.4148 235.764 80.4787 235.764C80.5425 235.764 80.6066 235.764 80.671 235.764C80.7354 235.764 80.8001 235.764 80.865 235.764C80.93 235.764 80.9952 235.764 81.0608 235.764C81.1263 235.764 81.1921 235.764 81.2582 235.764C81.3243 235.764 81.3907 235.764 81.4574 235.764C81.524 235.764 81.591 235.764 81.6582 235.764C81.7255 235.764 81.793 235.764 81.8609 235.764C81.9287 235.764 81.9968 235.764 82.0652 235.764C82.1336 235.764 82.2023 235.764 82.2714 235.764C82.3404 235.764 82.4097 235.764 82.4793 235.764C82.5489 235.764 82.6188 235.764 82.6889 235.764C82.7591 235.764 82.8296 235.764 82.9004 235.764C82.9712 235.764 83.0423 235.764 83.1137 235.764C83.1851 235.764 83.2568 235.764 83.3288 235.764C83.4008 235.764 83.4731 235.764 83.5457 235.764C83.6183 235.764 83.6913 235.764 83.7645 235.764C83.8377 235.764 83.9112 235.764 83.9851 235.764C84.0589 235.764 84.1331 235.764 84.2076 235.764C84.282 235.764 84.3568 235.764 84.4319 235.764C84.507 235.764 84.5824 235.764 84.6581 235.764C84.7338 235.764 84.8098 235.764 84.8862 235.764C84.9625 235.764 85.0392 235.764 85.1162 235.764C85.1932 235.764 85.2705 235.764 85.3481 235.764C85.4257 235.764 85.5037 235.764 85.5819 235.764C85.6602 235.764 85.7388 235.764 85.8177 235.764C85.8966 235.764 85.9758 235.764 86.0554 235.764C86.135 235.764 86.2149 235.764 86.2951 235.764C86.3753 235.764 86.4558 235.764 86.5367 235.764C86.6176 235.764 86.6988 235.764 86.7803 235.764C86.8618 235.764 86.9437 235.764 87.0259 235.764C87.1081 235.764 87.1906 235.764 87.2735 235.764C87.3563 235.764 87.4395 235.764 87.5231 235.764C87.6066 235.764 87.6905 235.764 87.7747 235.764C87.8589 235.764 87.9434 235.764 88.0283 235.764C88.1132 235.764 88.1984 235.764 88.284 235.764C88.3696 235.764 88.4555 235.764 88.5417 235.764C88.628 235.764 88.7146 235.764 88.8015 235.764C88.8884 235.764 88.9757 235.764 89.0634 235.764C89.151 235.764 89.239 235.764 89.3273 235.764C89.4156 235.764 89.5043 235.764 89.5933 235.764C89.6824 235.764 89.7717 235.764 89.8615 235.764C89.9512 235.764 90.0413 235.764 90.1317 235.764C90.2222 235.764 90.3129 235.764 90.4041 235.764C90.4952 235.764 90.5867 235.764 90.6786 235.764C90.7705 235.764 90.8627 235.764 90.9553 235.764C91.0478 235.764 91.1408 235.764 91.2341 235.764C91.3274 235.764 91.421 235.764 91.5151 235.764C91.6091 235.764 91.7035 235.764 91.7982 235.764C91.893 235.764 91.9881 235.764 92.0836 235.764C92.1791 235.764 92.2749 235.764 92.3711 235.764C92.4673 235.764 92.5639 235.764 92.6609 235.764C92.7578 235.764 92.8552 235.764 92.9529 235.764C93.0506 235.764 93.1486 235.764 93.2471 235.764C93.3455 235.764 93.4443 235.764 93.5435 235.764C93.6427 235.764 93.7423 235.764 93.8422 235.764C93.9422 235.764 94.0425 235.764 94.1432 235.764C94.2439 235.764 94.345 235.764 94.4465 235.764C94.5479 235.764 94.6498 235.764 94.752 235.764C94.8542 235.764 94.9568 235.764 95.0598 235.764C95.1628 235.764 95.2662 235.764 95.37 235.764C95.4737 235.764 95.5779 235.764 95.6824 235.764C95.7869 235.764 95.8919 235.764 95.9972 235.764C96.1025 235.764 96.2082 235.764 96.3143 235.764C96.4204 235.764 96.5269 235.764 96.6338 235.764C96.7407 235.764 96.8479 235.764 96.9556 235.764C97.0633 235.764 97.1713 235.764 97.2798 235.764C97.3883 235.764 97.4971 235.764 97.6064 235.764C97.7157 235.764 97.8253 235.764 97.9354 235.764C98.0454 235.764 98.1559 235.764 98.2667 235.764C98.3776 235.764 98.4889 235.764 98.6005 235.764C98.7122 235.764 98.8243 235.764 98.9368 235.764C99.0492 235.764 99.1621 235.764 99.2754 235.764C99.3887 235.764 99.5024 235.764 99.6165 235.764C99.7306 235.764 99.8451 235.764 99.9601 235.764C100.075 235.764 100.19 235.764 100.306 235.764V234.264V232.764C100.19 232.764 100.075 232.764 99.9601 232.764C99.8451 232.764 99.7306 232.764 99.6165 232.764C99.5024 232.764 99.3887 232.764 99.2754 232.764C99.1621 232.764 99.0492 232.764 98.9368 232.764C98.8243 232.764 98.7122 232.764 98.6005 232.764C98.4889 232.764 98.3776 232.764 98.2667 232.764C98.1559 232.764 98.0454 232.764 97.9354 232.764C97.8253 232.764 97.7157 232.764 97.6064 232.764C97.4971 232.764 97.3883 232.764 97.2798 232.764C97.1713 232.764 97.0633 232.764 96.9556 232.764C96.8479 232.764 96.7407 232.764 96.6338 232.764C96.5269 232.764 96.4204 232.764 96.3143 232.764C96.2082 232.764 96.1025 232.764 95.9972 232.764C95.8919 232.764 95.7869 232.764 95.6824 232.764C95.5779 232.764 95.4737 232.764 95.37 232.764C95.2662 232.764 95.1628 232.764 95.0598 232.764C94.9568 232.764 94.8542 232.764 94.752 232.764C94.6498 232.764 94.5479 232.764 94.4465 232.764C94.345 232.764 94.2439 232.764 94.1432 232.764C94.0425 232.764 93.9422 232.764 93.8422 232.764C93.7423 232.764 93.6427 232.764 93.5435 232.764C93.4443 232.764 93.3455 232.764 93.2471 232.764C93.1486 232.764 93.0506 232.764 92.9529 232.764C92.8552 232.764 92.7578 232.764 92.6609 232.764C92.5639 232.764 92.4673 232.764 92.3711 232.764C92.2749 232.764 92.1791 232.764 92.0836 232.764C91.9881 232.764 91.893 232.764 91.7982 232.764C91.7035 232.764 91.6091 232.764 91.5151 232.764C91.421 232.764 91.3274 232.764 91.2341 232.764C91.1408 232.764 91.0478 232.764 90.9553 232.764C90.8627 232.764 90.7705 232.764 90.6786 232.764C90.5867 232.764 90.4952 232.764 90.4041 232.764C90.3129 232.764 90.2222 232.764 90.1317 232.764C90.0413 232.764 89.9512 232.764 89.8615 232.764C89.7717 232.764 89.6824 232.764 89.5933 232.764C89.5043 232.764 89.4156 232.764 89.3273 232.764C89.239 232.764 89.151 232.764 89.0634 232.764C88.9757 232.764 88.8884 232.764 88.8015 232.764C88.7146 232.764 88.628 232.764 88.5417 232.764C88.4555 232.764 88.3696 232.764 88.284 232.764C88.1984 232.764 88.1132 232.764 88.0283 232.764C87.9434 232.764 87.8589 232.764 87.7747 232.764C87.6905 232.764 87.6066 232.764 87.5231 232.764C87.4395 232.764 87.3563 232.764 87.2735 232.764C87.1906 232.764 87.1081 232.764 87.0259 232.764C86.9437 232.764 86.8618 232.764 86.7803 232.764C86.6988 232.764 86.6176 232.764 86.5367 232.764C86.4558 232.764 86.3753 232.764 86.2951 232.764C86.2149 232.764 86.135 232.764 86.0554 232.764C85.9758 232.764 85.8966 232.764 85.8177 232.764C85.7388 232.764 85.6602 232.764 85.5819 232.764C85.5037 232.764 85.4257 232.764 85.3481 232.764C85.2705 232.764 85.1932 232.764 85.1162 232.764C85.0392 232.764 84.9625 232.764 84.8862 232.764C84.8098 232.764 84.7338 232.764 84.6581 232.764C84.5824 232.764 84.507 232.764 84.4319 232.764C84.3568 232.764 84.282 232.764 84.2076 232.764C84.1331 232.764 84.0589 232.764 83.9851 232.764C83.9112 232.764 83.8377 232.764 83.7645 232.764C83.6913 232.764 83.6183 232.764 83.5457 232.764C83.4731 232.764 83.4008 232.764 83.3288 232.764C83.2568 232.764 83.1851 232.764 83.1137 232.764C83.0423 232.764 82.9712 232.764 82.9004 232.764C82.8296 232.764 82.7591 232.764 82.6889 232.764C82.6188 232.764 82.5489 232.764 82.4793 232.764C82.4097 232.764 82.3404 232.764 82.2714 232.764C82.2023 232.764 82.1336 232.764 82.0652 232.764C81.9968 232.764 81.9287 232.764 81.8609 232.764C81.793 232.764 81.7255 232.764 81.6582 232.764C81.591 232.764 81.524 232.764 81.4574 232.764C81.3907 232.764 81.3243 232.764 81.2582 232.764C81.1921 232.764 81.1263 232.764 81.0608 232.764C80.9952 232.764 80.93 232.764 80.865 232.764C80.8001 232.764 80.7354 232.764 80.671 232.764C80.6066 232.764 80.5425 232.764 80.4787 232.764C80.4148 232.764 80.3513 232.764 80.288 232.764C80.2247 232.764 80.1617 232.764 80.099 232.764C80.0363 232.764 79.9738 232.764 79.9117 232.764C79.8495 232.764 79.7876 232.764 79.726 232.764C79.6643 232.764 79.603 232.764 79.5419 232.764C79.4808 232.764 79.42 232.764 79.3594 232.764C79.2989 232.764 79.2386 232.764 79.1786 232.764C79.1186 232.764 79.0588 232.764 78.9994 232.764C78.9399 232.764 78.8807 232.764 78.8217 232.764C78.7628 232.764 78.7041 232.764 78.6457 232.764C78.5872 232.764 78.5291 232.764 78.4712 232.764C78.4133 232.764 78.3556 232.764 78.2982 232.764C78.2408 232.764 78.1837 232.764 78.1268 232.764C78.07 232.764 78.0133 232.764 77.957 232.764C77.9006 232.764 77.8445 232.764 77.7886 232.764C77.7328 232.764 77.6772 232.764 77.6218 232.764C77.5665 232.764 77.5114 232.764 77.4565 232.764C77.4017 232.764 77.3471 232.764 77.2927 232.764C77.2383 232.764 77.1842 232.764 77.1304 232.764C77.0765 232.764 77.0229 232.764 76.9695 232.764C76.9161 232.764 76.863 232.764 76.8101 232.764C76.7572 232.764 76.7046 232.764 76.6522 232.764C76.5997 232.764 76.5476 232.764 76.4956 232.764C76.4437 232.764 76.392 232.764 76.3406 232.764C76.2891 232.764 76.2379 232.764 76.1869 232.764C76.1359 232.764 76.0852 232.764 76.0346 232.764C75.9841 232.764 75.9338 232.764 75.8838 232.764C75.8337 232.764 75.7839 232.764 75.7343 232.764C75.6847 232.764 75.6354 232.764 75.5862 232.764C75.5371 232.764 75.4882 232.764 75.4395 232.764C75.3908 232.764 75.3424 232.764 75.2941 232.764C75.2459 232.764 75.1979 232.764 75.1501 232.764C75.1023 232.764 75.0548 232.764 75.0074 232.764C74.9601 232.764 74.9129 232.764 74.866 232.764C74.8191 232.764 74.7724 232.764 74.726 232.764C74.6795 232.764 74.6333 232.764 74.5872 232.764C74.5412 232.764 74.4954 232.764 74.4498 232.764C74.4041 232.764 74.3587 232.764 74.3136 232.764C74.2684 232.764 74.2234 232.764 74.1786 232.764C74.1339 232.764 74.0893 232.764 74.045 232.764C74.0006 232.764 73.9565 232.764 73.9126 232.764C73.8686 232.764 73.8249 232.764 73.7814 232.764C73.7379 232.764 73.6946 232.764 73.6514 232.764C73.6083 232.764 73.5654 232.764 73.5227 232.764C73.48 232.764 73.4375 232.764 73.3952 232.764C73.3529 232.764 73.3108 232.764 73.2688 232.764C73.2269 232.764 73.1852 232.764 73.1437 232.764C73.1022 232.764 73.0608 232.764 73.0197 232.764C72.9786 232.764 72.9376 232.764 72.8969 232.764C72.8561 232.764 72.8156 232.764 72.7752 232.764C72.7349 232.764 72.6947 232.764 72.6547 232.764C72.6147 232.764 72.5749 232.764 72.5353 232.764C72.4957 232.764 72.4563 232.764 72.417 232.764C72.3778 232.764 72.3387 232.764 72.2999 232.764C72.261 232.764 72.2223 232.764 72.1838 232.764C72.1453 232.764 72.107 232.764 72.0688 232.764C72.0307 232.764 71.9927 232.764 71.9549 232.764C71.9171 232.764 71.8795 232.764 71.8421 232.764C71.8046 232.764 71.7674 232.764 71.7303 232.764C71.6932 232.764 71.6563 232.764 71.6196 232.764C71.5828 232.764 71.5462 232.764 71.5098 232.764C71.4734 232.764 71.4372 232.764 71.4012 232.764C71.3651 232.764 71.3292 232.764 71.2935 232.764C71.2578 232.764 71.2222 232.764 71.1868 232.764C71.1514 232.764 71.1162 232.764 71.0812 232.764C71.0461 232.764 71.0112 232.764 70.9765 232.764C70.9417 232.764 70.9071 232.764 70.8727 232.764C70.8383 232.764 70.8041 232.764 70.77 232.764C70.7359 232.764 70.7019 232.764 70.6681 232.764C70.6344 232.764 70.6007 232.764 70.5673 232.764C70.5338 232.764 70.5005 232.764 70.4673 232.764C70.4341 232.764 70.4011 232.764 70.3683 232.764C70.3354 232.764 70.3027 232.764 70.2701 232.764C70.2376 232.764 70.2051 232.764 70.1729 232.764C70.1406 232.764 70.1085 232.764 70.0765 232.764C70.0446 232.764 70.0127 232.764 69.981 232.764C69.9494 232.764 69.9178 232.764 69.8864 232.764C69.855 232.764 69.8238 232.764 69.7927 232.764C69.7615 232.764 69.7306 232.764 69.6997 232.764C69.6689 232.764 69.6382 232.764 69.6076 232.764C69.5771 232.764 69.5466 232.764 69.5164 232.764C69.4861 232.764 69.4559 232.764 69.4259 232.764C69.3959 232.764 69.366 232.764 69.3362 232.764C69.3065 232.764 69.2768 232.764 69.2473 232.764C69.2178 232.764 69.1885 232.764 69.1592 232.764C69.13 232.764 69.1009 232.764 69.0719 232.764C69.0429 232.764 69.014 232.764 68.9853 232.764C68.9566 232.764 68.928 232.764 68.8995 232.764C68.871 232.764 68.8426 232.764 68.8144 232.764C68.7861 232.764 68.758 232.764 68.73 232.764C68.702 232.764 68.6741 232.764 68.6463 232.764C68.6186 232.764 68.5909 232.764 68.5634 232.764C68.5358 232.764 68.5084 232.764 68.4811 232.764C68.4538 232.764 68.4266 232.764 68.3995 232.764C68.3724 232.764 68.3454 232.764 68.3186 232.764C68.2917 232.764 68.265 232.764 68.2383 232.764C68.2117 232.764 68.1851 232.764 68.1587 232.764C68.1323 232.764 68.1059 232.764 68.0797 232.764C68.0535 232.764 68.0274 232.764 68.0014 232.764C67.9754 232.764 67.9494 232.764 67.9236 232.764C67.8978 232.764 67.8721 232.764 67.8465 232.764C67.8209 232.764 67.7954 232.764 67.77 232.764C67.7446 232.764 67.7193 232.764 67.694 232.764C67.6688 232.764 67.6437 232.764 67.6187 232.764C67.5936 232.764 67.5687 232.764 67.5438 232.764C67.519 232.764 67.4943 232.764 67.4696 232.764C67.4449 232.764 67.4204 232.764 67.3959 232.764C67.3714 232.764 67.347 232.764 67.3227 232.764C67.2984 232.764 67.2742 232.764 67.25 232.764C67.2259 232.764 67.2018 232.764 67.1779 232.764C67.1539 232.764 67.13 232.764 67.1062 232.764C67.0824 232.764 67.0587 232.764 67.035 232.764C67.0114 232.764 66.9878 232.764 66.9644 232.764C66.9409 232.764 66.9175 232.764 66.8941 232.764C66.8708 232.764 66.8475 232.764 66.8244 232.764C66.8012 232.764 66.7781 232.764 66.755 232.764C66.732 232.764 66.709 232.764 66.6862 232.764C66.6633 232.764 66.6404 232.764 66.6177 232.764C66.5949 232.764 66.5723 232.764 66.5496 232.764C66.527 232.764 66.5045 232.764 66.482 232.764C66.4595 232.764 66.4371 232.764 66.4147 232.764C66.3924 232.764 66.3701 232.764 66.3479 232.764C66.3256 232.764 66.3035 232.764 66.2814 232.764C66.2593 232.764 66.2372 232.764 66.2152 232.764C66.1932 232.764 66.1713 232.764 66.1494 232.764C66.1276 232.764 66.1057 232.764 66.084 232.764C66.0622 232.764 66.0405 232.764 66.0188 232.764C65.9972 232.764 65.9756 232.764 65.954 232.764C65.9325 232.764 65.911 232.764 65.8895 232.764C65.8681 232.764 65.8467 232.764 65.8253 232.764C65.804 232.764 65.7827 232.764 65.7614 232.764C65.7401 232.764 65.7189 232.764 65.6977 232.764C65.6766 232.764 65.6554 232.764 65.6344 232.764C65.6133 232.764 65.5922 232.764 65.5712 232.764C65.5502 232.764 65.5293 232.764 65.5083 232.764C65.4874 232.764 65.4665 232.764 65.4457 232.764C65.4248 232.764 65.404 232.764 65.3832 232.764C65.3625 232.764 65.3417 232.764 65.321 232.764C65.3003 232.764 65.2796 232.764 65.259 232.764C65.2383 232.764 65.2177 232.764 65.1971 232.764C65.1765 232.764 65.156 232.764 65.1355 232.764C65.1149 232.764 65.0944 232.764 65.074 232.764C65.0535 232.764 65.0331 232.764 65.0126 232.764C64.9922 232.764 64.9718 232.764 64.9514 232.764C64.9311 232.764 64.9107 232.764 64.8904 232.764C64.8701 232.764 64.8497 232.764 64.8294 232.764C64.8092 232.764 64.7889 232.764 64.7686 232.764C64.7484 232.764 64.7281 232.764 64.7079 232.764C64.6877 232.764 64.6675 232.764 64.6473 232.764C64.6271 232.764 64.6069 232.764 64.5867 232.764C64.5666 232.764 64.5464 232.764 64.5263 232.764C64.5061 232.764 64.486 232.764 64.4659 232.764C64.4457 232.764 64.4256 232.764 64.4055 232.764C64.3854 232.764 64.3653 232.764 64.3452 232.764C64.3251 232.764 64.305 232.764 64.2849 232.764C64.2648 232.764 64.2447 232.764 64.2246 232.764C64.2045 232.764 64.1844 232.764 64.1643 232.764C64.1442 232.764 64.1242 232.764 64.1041 232.764C64.084 232.764 64.0639 232.764 64.0438 232.764C64.0237 232.764 64.0036 232.764 63.9835 232.764C63.9634 232.764 63.9432 232.764 63.9231 232.764C63.903 232.764 63.8829 232.764 63.8627 232.764C63.8426 232.764 63.8224 232.764 63.8023 232.764C63.7821 232.764 63.7619 232.764 63.7417 232.764C63.7216 232.764 63.7014 232.764 63.6811 232.764C63.6609 232.764 63.6407 232.764 63.6205 232.764C63.6002 232.764 63.5799 232.764 63.5597 232.764C63.5394 232.764 63.5191 232.764 63.4988 232.764C63.4784 232.764 63.4581 232.764 63.4377 232.764C63.4174 232.764 63.397 232.764 63.3766 232.764C63.3562 232.764 63.3357 232.764 63.3153 232.764C63.2948 232.764 63.2743 232.764 63.2538 232.764C63.2333 232.764 63.2128 232.764 63.1922 232.764C63.1717 232.764 63.1511 232.764 63.1304 232.764C63.1098 232.764 63.0891 232.764 63.0685 232.764C63.0478 232.764 63.027 232.764 63.0063 232.764C62.9855 232.764 62.9647 232.764 62.9439 232.764C62.9231 232.764 62.9022 232.764 62.8813 232.764C62.8604 232.764 62.8395 232.764 62.8185 232.764C62.7975 232.764 62.7765 232.764 62.7554 232.764C62.7344 232.764 62.7132 232.764 62.6921 232.764C62.671 232.764 62.6498 232.764 62.6285 232.764C62.6073 232.764 62.586 232.764 62.5647 232.764C62.5434 232.764 62.522 232.764 62.5005 232.764C62.4791 232.764 62.4577 232.764 62.4361 232.764C62.4146 232.764 62.393 232.764 62.3714 232.764C62.3498 232.764 62.3281 232.764 62.3064 232.764C62.2846 232.764 62.2628 232.764 62.241 232.764C62.2192 232.764 62.1973 232.764 62.1753 232.764C62.1533 232.764 62.1313 232.764 62.1093 232.764C62.0872 232.764 62.065 232.764 62.0429 232.764C62.0207 232.764 61.9984 232.764 61.9761 232.764C61.9538 232.764 61.9314 232.764 61.9089 232.764C61.8865 232.764 61.864 232.764 61.8414 232.764C61.8188 232.764 61.7962 232.764 61.7735 232.764C61.7508 232.764 61.728 232.764 61.7051 232.764C61.6823 232.764 61.6593 232.764 61.6363 232.764C61.6134 232.764 61.5903 232.764 61.5672 232.764C61.544 232.764 61.5208 232.764 61.4975 232.764C61.4742 232.764 61.4509 232.764 61.4274 232.764C61.404 232.764 61.3805 232.764 61.3568 232.764C61.3333 232.764 61.3096 232.764 61.2858 232.764C61.2621 232.764 61.2382 232.764 61.2143 232.764C61.1904 232.764 61.1664 232.764 61.1423 232.764C61.1182 232.764 61.094 232.764 61.0698 232.764C61.0455 232.764 61.0212 232.764 60.9967 232.764C60.9723 232.764 60.9478 232.764 60.9232 232.764C60.8985 232.764 60.8738 232.764 60.8491 232.764C60.8243 232.764 60.7994 232.764 60.7744 232.764C60.7494 232.764 60.7243 232.764 60.6992 232.764C60.674 232.764 60.6488 232.764 60.6234 232.764C60.598 232.764 60.5726 232.764 60.547 232.764C60.5215 232.764 60.4958 232.764 60.4701 232.764C60.4443 232.764 60.4185 232.764 60.3925 232.764C60.3666 232.764 60.3405 232.764 60.3143 232.764C60.2882 232.764 60.2619 232.764 60.2355 232.764C60.2092 232.764 60.1827 232.764 60.1561 232.764C60.1295 232.764 60.1028 232.764 60.076 232.764C60.0492 232.764 60.0223 232.764 59.9953 232.764C59.9683 232.764 59.9411 232.764 59.9139 232.764C59.8866 232.764 59.8593 232.764 59.8318 232.764C59.8043 232.764 59.7767 232.764 59.749 232.764C59.7213 232.764 59.6935 232.764 59.6655 232.764C59.6376 232.764 59.6095 232.764 59.5814 232.764C59.5532 232.764 59.5249 232.764 59.4965 232.764C59.468 232.764 59.4395 232.764 59.4108 232.764C59.3822 232.764 59.3534 232.764 59.3245 232.764C59.2955 232.764 59.2665 232.764 59.2373 232.764C59.2082 232.764 59.1789 232.764 59.1494 232.764C59.12 232.764 59.0905 232.764 59.0608 232.764C59.0311 232.764 59.0013 232.764 58.9713 232.764C58.9414 232.764 58.9113 232.764 58.8811 232.764C58.8509 232.764 58.8205 232.764 58.79 232.764C58.7596 232.764 58.7289 232.764 58.6982 232.764C58.6674 232.764 58.6365 232.764 58.6055 232.764C58.5744 232.764 58.5433 232.764 58.5119 232.764C58.4806 232.764 58.4492 232.764 58.4176 232.764C58.386 232.764 58.3542 232.764 58.3223 232.764C58.2904 232.764 58.2584 232.764 58.2262 232.764C58.194 232.764 58.1617 232.764 58.1292 232.764C58.0967 232.764 58.0641 232.764 58.0313 232.764C57.9986 232.764 57.9656 232.764 57.9325 232.764C57.8995 232.764 57.8662 232.764 57.8328 232.764C57.7995 232.764 57.7659 232.764 57.7322 232.764C57.6985 232.764 57.6647 232.764 57.6307 232.764C57.5967 232.764 57.5625 232.764 57.5282 232.764C57.4938 232.764 57.4593 232.764 57.4247 232.764C57.3901 232.764 57.3552 232.764 57.3203 232.764C57.2853 232.764 57.2502 232.764 57.2149 232.764C57.1796 232.764 57.1441 232.764 57.1085 232.764C57.0728 232.764 57.0371 232.764 57.0011 232.764C56.9651 232.764 56.929 232.764 56.8927 232.764C56.8564 232.764 56.8199 232.764 56.7833 232.764C56.7466 232.764 56.7098 232.764 56.6728 232.764C56.6358 232.764 56.5987 232.764 56.5613 232.764C56.524 232.764 56.4865 232.764 56.4488 232.764C56.4111 232.764 56.3732 232.764 56.3352 232.764C56.2971 232.764 56.2589 232.764 56.2205 232.764C56.1821 232.764 56.1435 232.764 56.1047 232.764C56.066 232.764 56.027 232.764 55.9879 232.764C55.9487 232.764 55.9094 232.764 55.8699 232.764C55.8304 232.764 55.7907 232.764 55.7508 232.764C55.7109 232.764 55.6709 232.764 55.6306 232.764C55.5904 232.764 55.5499 232.764 55.5093 232.764C55.4686 232.764 55.4278 232.764 55.3868 232.764C55.3457 232.764 55.3045 232.764 55.2631 232.764C55.2217 232.764 55.1801 232.764 55.1383 232.764C55.0965 232.764 55.0545 232.764 55.0123 232.764C54.9701 232.764 54.9277 232.764 54.8851 232.764C54.8425 232.764 54.7997 232.764 54.7567 232.764C54.7137 232.764 54.6705 232.764 54.6271 232.764C54.5837 232.764 54.5401 232.764 54.4963 232.764C54.4524 232.764 54.4084 232.764 54.3642 232.764C54.32 232.764 54.2755 232.764 54.2309 232.764C54.1862 232.764 54.1414 232.764 54.0963 232.764C54.0512 232.764 54.006 232.764 53.9605 232.764C53.915 232.764 53.8693 232.764 53.8234 232.764C53.7774 232.764 53.7313 232.764 53.685 232.764C53.6386 232.764 53.592 232.764 53.5453 232.764C53.4985 232.764 53.4515 232.764 53.4043 232.764C53.357 232.764 53.3096 232.764 53.2619 232.764C53.2143 232.764 53.1664 232.764 53.1183 232.764C53.0702 232.764 53.0218 232.764 52.9733 232.764C52.9247 232.764 52.8759 232.764 52.8269 232.764C52.7779 232.764 52.7287 232.764 52.6792 232.764C52.6298 232.764 52.5801 232.764 52.5301 232.764C52.4802 232.764 52.4301 232.764 52.3797 232.764C52.3293 232.764 52.2787 232.764 52.2278 232.764C52.177 232.764 52.1259 232.764 52.0745 232.764C52.0232 232.764 51.9717 232.764 51.9199 232.764C51.8681 232.764 51.816 232.764 51.7637 232.764C51.7115 232.764 51.659 232.764 51.6062 232.764C51.5534 232.764 51.5005 232.764 51.4472 232.764C51.394 232.764 51.3405 232.764 51.2868 232.764C51.233 232.764 51.1791 232.764 51.1248 232.764C51.0706 232.764 51.0161 232.764 50.9614 232.764C50.9067 232.764 50.8517 232.764 50.7965 232.764C50.7413 232.764 50.6859 232.764 50.6301 232.764C50.5744 232.764 50.5185 232.764 50.4622 232.764C50.406 232.764 50.3495 232.764 50.2928 232.764C50.2361 232.764 50.1791 232.764 50.1218 232.764C50.0646 232.764 50.0071 232.764 49.9493 232.764C49.8916 232.764 49.8335 232.764 49.7753 232.764C49.717 232.764 49.6584 232.764 49.5996 232.764C49.5408 232.764 49.4818 232.764 49.4224 232.764C49.3631 232.764 49.3035 232.764 49.2436 232.764C49.1838 232.764 49.1236 232.764 49.0633 232.764C49.0029 232.764 48.9422 232.764 48.8813 232.764C48.8203 232.764 48.7591 232.764 48.6976 232.764C48.6362 232.764 48.5744 232.764 48.5124 232.764C48.4504 232.764 48.3881 232.764 48.3255 232.764C48.2629 232.764 48.2001 232.764 48.137 232.764C48.0738 232.764 48.0104 232.764 47.9468 232.764C47.8831 232.764 47.8191 232.764 47.7549 232.764C47.6906 232.764 47.6261 232.764 47.5613 232.764C47.4965 232.764 47.4314 232.764 47.3661 232.764C47.3007 232.764 47.2351 232.764 47.1691 232.764C47.1032 232.764 47.037 232.764 46.9705 232.764C46.9039 232.764 46.8371 232.764 46.7701 232.764C46.703 232.764 46.6356 232.764 46.5679 232.764C46.5003 232.764 46.4323 232.764 46.364 232.764C46.2958 232.764 46.2272 232.764 46.1584 232.764C46.0896 232.764 46.0204 232.764 45.951 232.764C45.8816 232.764 45.8118 232.764 45.7418 232.764C45.6718 232.764 45.6015 232.764 45.5308 232.764C45.4602 232.764 45.3893 232.764 45.318 232.764C45.2468 232.764 45.1753 232.764 45.1035 232.764C45.0316 232.764 44.9595 232.764 44.887 232.764C44.8146 232.764 44.7419 232.764 44.6688 232.764C44.5957 232.764 44.5224 232.764 44.4487 232.764C44.375 232.764 44.3011 232.764 44.2268 232.764C44.1525 232.764 44.0779 232.764 44.0029 232.764C43.928 232.764 43.8528 232.764 43.7773 232.764C43.7017 232.764 43.6259 232.764 43.5497 232.764C43.4735 232.764 43.397 232.764 43.3202 232.764C43.2434 232.764 43.1663 232.764 43.0888 232.764C43.0114 232.764 42.9336 232.764 42.8555 232.764C42.7775 232.764 42.6991 232.764 42.6203 232.764C42.5416 232.764 42.4625 232.764 42.3832 232.764C42.3038 232.764 42.2241 232.764 42.144 232.764C42.064 232.764 41.9837 232.764 41.903 232.764C41.8223 232.764 41.7413 232.764 41.6599 232.764C41.5786 232.764 41.4969 232.764 41.4149 232.764C41.3329 232.764 41.2505 232.764 41.1679 232.764C41.0852 232.764 41.0022 232.764 40.9188 232.764C40.8355 232.764 40.7518 232.764 40.6678 232.764C40.5838 232.764 40.4994 232.764 40.4147 232.764C40.33 232.764 40.245 232.764 40.1596 232.764C40.0742 232.764 39.9885 232.764 39.9024 232.764C39.8164 232.764 39.73 232.764 39.6432 232.764C39.5565 232.764 39.4694 232.764 39.382 232.764C39.2945 232.764 39.2067 232.764 39.1186 232.764C39.0305 232.764 38.942 232.764 38.8531 232.764C38.7643 232.764 38.6751 232.764 38.5856 232.764C38.4961 232.764 38.4062 232.764 38.3159 232.764C38.2257 232.764 38.1351 232.764 38.0441 232.764C37.9532 232.764 37.8619 232.764 37.7702 232.764C37.6786 232.764 37.5865 232.764 37.4942 232.764C37.4018 232.764 37.3091 232.764 37.216 232.764C37.1229 232.764 37.0294 232.764 36.9356 232.764C36.8418 232.764 36.7476 232.764 36.653 232.764C36.5585 232.764 36.4636 232.764 36.3683 232.764C36.273 232.764 36.1774 232.764 36.0814 232.764C35.9853 232.764 35.889 232.764 35.7922 232.764C35.6955 232.764 35.5983 232.764 35.5008 232.764C35.4034 232.764 35.3055 232.764 35.2073 232.764C35.109 232.764 35.0104 232.764 34.9114 232.764C34.8124 232.764 34.7131 232.764 34.6133 232.764C34.5136 232.764 34.4135 232.764 34.313 232.764C34.2125 232.764 34.1116 232.764 34.0104 232.764C33.9091 232.764 33.8075 232.764 33.7055 232.764C33.6035 232.764 33.5011 232.764 33.3983 232.764C33.2955 232.764 33.1924 232.764 33.0888 232.764C32.9853 232.764 32.8813 232.764 32.777 232.764C32.6727 232.764 32.568 232.764 32.4629 232.764C32.3578 232.764 32.2523 232.764 32.1464 232.764C32.0405 232.764 31.9343 232.764 31.8276 232.764C31.7209 232.764 31.6139 232.764 31.5064 232.764C31.399 232.764 31.2911 232.764 31.1829 232.764C31.0746 232.764 30.966 232.764 30.857 232.764C30.7479 232.764 30.6385 232.764 30.5287 232.764C30.4188 232.764 30.3086 232.764 30.198 232.764C30.0873 232.764 29.9763 232.764 29.8648 232.764C29.7534 232.764 29.6415 232.764 29.5293 232.764C29.417 232.764 29.3044 232.764 29.1913 232.764C29.0783 232.764 28.9648 232.764 28.8509 232.764C28.737 232.764 28.6227 232.764 28.508 232.764C28.3933 232.764 28.2782 232.764 28.1627 232.764C28.0472 232.764 27.9312 232.764 27.8149 232.764C27.6986 232.764 27.5818 232.764 27.4646 232.764C27.3474 232.764 27.2298 232.764 27.1118 232.764C26.9938 232.764 26.8754 232.764 26.7565 232.764C26.6377 232.764 26.5184 232.764 26.3987 232.764C26.279 232.764 26.1589 232.764 26.0384 232.764C25.9178 232.764 25.7969 232.764 25.6755 232.764C25.5541 232.764 25.4323 232.764 25.3101 232.764C25.1878 232.764 25.0652 232.764 24.9421 232.764C24.819 232.764 24.6955 232.764 24.5715 232.764C24.4475 232.764 24.3232 232.764 24.1984 232.764C24.0735 232.764 23.9483 232.764 23.8226 232.764C23.6969 232.764 23.5708 232.764 23.4443 232.764C23.3177 232.764 23.1907 232.764 23.0633 232.764C22.9359 232.764 22.808 232.764 22.6797 232.764C22.5514 232.764 22.4227 232.764 22.2935 232.764C22.1644 232.764 22.0347 232.764 21.9047 232.764C21.7746 232.764 21.6441 232.764 21.5132 232.764C21.3822 232.764 21.2508 232.764 21.119 232.764C20.9871 232.764 20.8548 232.764 20.7221 232.764C20.5894 232.764 20.4562 232.764 20.3226 232.764C20.1889 232.764 20.0548 232.764 19.9203 232.764C19.7858 232.764 19.6508 232.764 19.5153 232.764C19.3799 232.764 19.244 232.764 19.1077 232.764C18.9713 232.764 18.8345 232.764 18.6972 232.764C18.56 232.764 18.4223 232.764 18.2841 232.764C18.1459 232.764 18.0073 232.764 17.8682 232.764C17.7291 232.764 17.5895 232.764 17.4495 232.764C17.3095 232.764 17.169 232.764 17.0281 232.764C16.8871 232.764 16.7457 232.764 16.6038 232.764C16.4619 232.764 16.3196 232.764 16.1768 232.764C16.034 232.764 15.8907 232.764 15.747 232.764C15.6032 232.764 15.459 232.764 15.3143 232.764C15.1696 232.764 15.0245 232.764 14.8788 232.764C14.7332 232.764 14.5871 232.764 14.4405 232.764C14.2939 232.764 14.1469 232.764 13.9993 232.764C13.8518 232.764 13.7038 232.764 13.5553 232.764C13.4068 232.764 13.2579 232.764 13.1084 232.764C12.959 232.764 12.809 232.764 12.6586 232.764C12.5082 232.764 12.3573 232.764 12.206 232.764C12.0546 232.764 11.9027 232.764 11.7504 232.764C11.598 232.764 11.4452 232.764 11.2919 232.764C11.1386 232.764 10.9848 232.764 10.8305 232.764C10.6762 232.764 10.5214 232.764 10.3661 232.764C10.2109 232.764 10.0551 232.764 9.89884 232.764C9.74259 232.764 9.58584 232.764 9.42859 232.764C9.27135 232.764 9.11361 232.764 8.95538 232.764C8.79714 232.764 8.63841 232.764 8.47918 232.764C8.31995 232.764 8.16023 232.764 8 232.764V234.264ZM120.372 254.264H118.872V485H120.372H121.872V254.264H120.372ZM140.372 505V506.5H1179V505V503.5H140.372V505ZM1199 485H1200.5V8H1199H1197.5V485H1199ZM1179 505V506.5C1190.87 506.5 1200.5 496.874 1200.5 485H1199H1197.5C1197.5 495.217 1189.22 503.5 1179 503.5V505ZM120.372 485H118.872C118.872 496.874 128.498 506.5 140.372 506.5V505V503.5C130.155 503.5 121.872 495.217 121.872 485H120.372ZM100.306 234.264V235.764C110.53 235.764 118.872 244.054 118.872 254.264H120.372H121.872C121.872 242.384 112.174 232.764 100.306 232.764V234.264Z" fill="#C12930"/>
</svg>
