<svg width="880" height="457" viewBox="0 0 880 457" fill="none" xmlns="http://www.w3.org/2000/svg">
<path d="M0 211.501C0 215.92 3.58172 219.501 8 219.501C12.4183 219.501 16 215.92 16 211.501C16 207.083 12.4183 203.501 8 203.501C3.58172 203.501 0 207.083 0 211.501ZM864 8C864 12.4183 867.582 16 872 16C876.418 16 880 12.4183 880 8C880 3.58172 876.418 0 872 0C867.582 0 864 3.58172 864 8ZM8 211.501V213.001C8.11123 213.001 8.22215 213.001 8.33277 213.001C8.44338 213.001 8.55368 213.001 8.66367 213.001C8.77367 213.001 8.88335 213.001 8.99273 213.001C9.10211 213.001 9.21118 213.001 9.31994 213.001C9.42871 213.001 9.53717 213.001 9.64532 213.001C9.75347 213.001 9.86132 213.001 9.96886 213.001C10.0764 213.001 10.1836 213.001 10.2906 213.001C10.3975 213.001 10.5041 213.001 10.6105 213.001C10.7168 213.001 10.8228 213.001 10.9286 213.001C11.0343 213.001 11.1397 213.001 11.2448 213.001C11.35 213.001 11.4548 213.001 11.5593 213.001C11.6639 213.001 11.7681 213.001 11.872 213.001C11.9759 213.001 12.0796 213.001 12.1829 213.001C12.2862 213.001 12.3893 213.001 12.492 213.001C12.5948 213.001 12.6972 213.001 12.7994 213.001C12.9015 213.001 13.0034 213.001 13.1049 213.001C13.2065 213.001 13.3078 213.001 13.4088 213.001C13.5097 213.001 13.6104 213.001 13.7108 213.001C13.8112 213.001 13.9113 213.001 14.0111 213.001C14.1109 213.001 14.2105 213.001 14.3097 213.001C14.4089 213.001 14.5079 213.001 14.6065 213.001C14.7052 213.001 14.8035 213.001 14.9016 213.001C14.9997 213.001 15.0975 213.001 15.195 213.001C15.2925 213.001 15.3897 213.001 15.4867 213.001C15.5836 213.001 15.6802 213.001 15.7766 213.001C15.873 213.001 15.9691 213.001 16.0649 213.001C16.1607 213.001 16.2562 213.001 16.3514 213.001C16.4466 213.001 16.5416 213.001 16.6363 213.001C16.7309 213.001 16.8253 213.001 16.9194 213.001C17.0135 213.001 17.1074 213.001 17.2009 213.001C17.2945 213.001 17.3877 213.001 17.4807 213.001C17.5737 213.001 17.6664 213.001 17.7589 213.001C17.8513 213.001 17.9435 213.001 18.0354 213.001C18.1273 213.001 18.2189 213.001 18.3102 213.001C18.4015 213.001 18.4926 213.001 18.5834 213.001C18.6742 213.001 18.7647 213.001 18.8549 213.001C18.9452 213.001 19.0352 213.001 19.1249 213.001C19.2146 213.001 19.304 213.001 19.3931 213.001C19.4823 213.001 19.5712 213.001 19.6598 213.001C19.7484 213.001 19.8368 213.001 19.9249 213.001C20.0129 213.001 20.1008 213.001 20.1883 213.001C20.2758 213.001 20.3631 213.001 20.4501 213.001C20.5371 213.001 20.6239 213.001 20.7104 213.001C20.7969 213.001 20.8831 213.001 20.969 213.001C21.055 213.001 21.1407 213.001 21.2261 213.001C21.3115 213.001 21.3967 213.001 21.4816 213.001C21.5665 213.001 21.6511 213.001 21.7355 213.001C21.8199 213.001 21.904 213.001 21.9879 213.001C22.0717 213.001 22.1553 213.001 22.2386 213.001C22.322 213.001 22.4051 213.001 22.4879 213.001C22.5707 213.001 22.6533 213.001 22.7356 213.001C22.8179 213.001 22.9 213.001 22.9818 213.001C23.0635 213.001 23.1451 213.001 23.2264 213.001C23.3077 213.001 23.3887 213.001 23.4695 213.001C23.5503 213.001 23.6308 213.001 23.7111 213.001C23.7913 213.001 23.8714 213.001 23.9511 213.001C24.0309 213.001 24.1104 213.001 24.1897 213.001C24.269 213.001 24.348 213.001 24.4267 213.001C24.5055 213.001 24.584 213.001 24.6623 213.001C24.7406 213.001 24.8186 213.001 24.8964 213.001C24.9742 213.001 25.0517 213.001 25.129 213.001C25.2063 213.001 25.2833 213.001 25.3601 213.001C25.4369 213.001 25.5134 213.001 25.5897 213.001C25.666 213.001 25.7421 213.001 25.8179 213.001C25.8937 213.001 25.9693 213.001 26.0447 213.001C26.12 213.001 26.1951 213.001 26.2699 213.001C26.3448 213.001 26.4194 213.001 26.4938 213.001C26.5681 213.001 26.6423 213.001 26.7162 213.001C26.7901 213.001 26.8637 213.001 26.9371 213.001C27.0106 213.001 27.0837 213.001 27.1567 213.001C27.2296 213.001 27.3023 213.001 27.3748 213.001C27.4473 213.001 27.5195 213.001 27.5915 213.001C27.6635 213.001 27.7353 213.001 27.8068 213.001C27.8784 213.001 27.9497 213.001 28.0207 213.001C28.0918 213.001 28.1626 213.001 28.2332 213.001C28.3038 213.001 28.3742 213.001 28.4444 213.001C28.5145 213.001 28.5844 213.001 28.6541 213.001C28.7238 213.001 28.7933 213.001 28.8625 213.001C28.9317 213.001 29.0007 213.001 29.0695 213.001C29.1383 213.001 29.2068 213.001 29.2751 213.001C29.3435 213.001 29.4116 213.001 29.4794 213.001C29.5473 213.001 29.615 213.001 29.6824 213.001C29.7498 213.001 29.817 213.001 29.884 213.001C29.951 213.001 30.0177 213.001 30.0842 213.001C30.1508 213.001 30.2171 213.001 30.2832 213.001C30.3493 213.001 30.4151 213.001 30.4808 213.001C30.5464 213.001 30.6119 213.001 30.6771 213.001C30.7423 213.001 30.8073 213.001 30.8721 213.001C30.9369 213.001 31.0014 213.001 31.0658 213.001C31.1301 213.001 31.1942 213.001 31.2581 213.001C31.3221 213.001 31.3858 213.001 31.4492 213.001C31.5127 213.001 31.576 213.001 31.6391 213.001C31.7021 213.001 31.765 213.001 31.8276 213.001C31.8902 213.001 31.9526 213.001 32.0148 213.001C32.077 213.001 32.139 213.001 32.2008 213.001C32.2626 213.001 32.3242 213.001 32.3856 213.001C32.4469 213.001 32.5081 213.001 32.5691 213.001C32.63 213.001 32.6907 213.001 32.7513 213.001C32.8118 213.001 32.8722 213.001 32.9323 213.001C32.9924 213.001 33.0523 213.001 33.112 213.001C33.1718 213.001 33.2313 213.001 33.2906 213.001C33.3499 213.001 33.409 213.001 33.4679 213.001C33.5268 213.001 33.5855 213.001 33.644 213.001C33.7025 213.001 33.7608 213.001 33.8189 213.001C33.877 213.001 33.9349 213.001 33.9926 213.001C34.0503 213.001 34.1078 213.001 34.1651 213.001C34.2224 213.001 34.2795 213.001 34.3364 213.001C34.3933 213.001 34.45 213.001 34.5065 213.001C34.563 213.001 34.6193 213.001 34.6754 213.001C34.7315 213.001 34.7875 213.001 34.8432 213.001C34.8989 213.001 34.9545 213.001 35.0098 213.001C35.0651 213.001 35.1203 213.001 35.1753 213.001C35.2302 213.001 35.285 213.001 35.3396 213.001C35.3941 213.001 35.4485 213.001 35.5027 213.001C35.5569 213.001 35.6109 213.001 35.6647 213.001C35.7185 213.001 35.7722 213.001 35.8256 213.001C35.8791 213.001 35.9323 213.001 35.9854 213.001C36.0384 213.001 36.0913 213.001 36.144 213.001C36.1967 213.001 36.2492 213.001 36.3015 213.001C36.3539 213.001 36.406 213.001 36.458 213.001C36.5099 213.001 36.5617 213.001 36.6133 213.001C36.6649 213.001 36.7163 213.001 36.7675 213.001C36.8187 213.001 36.8698 213.001 36.9206 213.001C36.9715 213.001 37.0222 213.001 37.0727 213.001C37.1232 213.001 37.1735 213.001 37.2237 213.001C37.2738 213.001 37.3238 213.001 37.3736 213.001C37.4234 213.001 37.473 213.001 37.5224 213.001C37.5719 213.001 37.6212 213.001 37.6702 213.001C37.7193 213.001 37.7683 213.001 37.817 213.001C37.8657 213.001 37.9143 213.001 37.9627 213.001C38.0111 213.001 38.0593 213.001 38.1074 213.001C38.1554 213.001 38.2033 213.001 38.251 213.001C38.2987 213.001 38.3462 213.001 38.3936 213.001C38.441 213.001 38.4882 213.001 38.5352 213.001C38.5822 213.001 38.6291 213.001 38.6758 213.001C38.7225 213.001 38.769 213.001 38.8154 213.001C38.8617 213.001 38.9079 213.001 38.954 213.001C39 213.001 39.0459 213.001 39.0915 213.001C39.1372 213.001 39.1828 213.001 39.2282 213.001C39.2735 213.001 39.3187 213.001 39.3638 213.001C39.4088 213.001 39.4537 213.001 39.4984 213.001C39.5431 213.001 39.5877 213.001 39.6321 213.001C39.6765 213.001 39.7208 213.001 39.7648 213.001C39.8089 213.001 39.8528 213.001 39.8966 213.001C39.9404 213.001 39.984 213.001 40.0274 213.001C40.0709 213.001 40.1142 213.001 40.1573 213.001C40.2004 213.001 40.2434 213.001 40.2863 213.001C40.3291 213.001 40.3718 213.001 40.4143 213.001C40.4568 213.001 40.4992 213.001 40.5414 213.001C40.5836 213.001 40.6256 213.001 40.6676 213.001C40.7095 213.001 40.7512 213.001 40.7928 213.001C40.8344 213.001 40.8759 213.001 40.9172 213.001C40.9585 213.001 40.9997 213.001 41.0407 213.001C41.0817 213.001 41.1225 213.001 41.1632 213.001C41.204 213.001 41.2445 213.001 41.2849 213.001C41.3254 213.001 41.3656 213.001 41.4058 213.001C41.4459 213.001 41.4859 213.001 41.5257 213.001C41.5655 213.001 41.6052 213.001 41.6448 213.001C41.6843 213.001 41.7237 213.001 41.763 213.001C41.8023 213.001 41.8414 213.001 41.8804 213.001C41.9194 213.001 41.9582 213.001 41.9969 213.001C42.0356 213.001 42.0742 213.001 42.1126 213.001C42.151 213.001 42.1893 213.001 42.2275 213.001C42.2656 213.001 42.3036 213.001 42.3415 213.001C42.3794 213.001 42.4171 213.001 42.4547 213.001C42.4923 213.001 42.5298 213.001 42.5671 213.001C42.6044 213.001 42.6416 213.001 42.6787 213.001C42.7157 213.001 42.7527 213.001 42.7895 213.001C42.8262 213.001 42.8629 213.001 42.8994 213.001C42.936 213.001 42.9724 213.001 43.0086 213.001C43.0449 213.001 43.081 213.001 43.1171 213.001C43.1531 213.001 43.1889 213.001 43.2247 213.001C43.2605 213.001 43.2961 213.001 43.3316 213.001C43.3671 213.001 43.4024 213.001 43.4377 213.001C43.4729 213.001 43.508 213.001 43.543 213.001C43.578 213.001 43.6129 213.001 43.6476 213.001C43.6824 213.001 43.717 213.001 43.7515 213.001C43.786 213.001 43.8204 213.001 43.8546 213.001C43.8889 213.001 43.923 213.001 43.957 213.001C43.991 213.001 44.0249 213.001 44.0587 213.001C44.0924 213.001 44.1261 213.001 44.1596 213.001C44.1931 213.001 44.2266 213.001 44.2599 213.001C44.2931 213.001 44.3263 213.001 44.3594 213.001C44.3924 213.001 44.4254 213.001 44.4582 213.001C44.491 213.001 44.5238 213.001 44.5563 213.001C44.5889 213.001 44.6214 213.001 44.6538 213.001C44.6862 213.001 44.7184 213.001 44.7506 213.001C44.7827 213.001 44.8147 213.001 44.8467 213.001C44.8786 213.001 44.9104 213.001 44.9421 213.001C44.9738 213.001 45.0054 213.001 45.0368 213.001C45.0683 213.001 45.0997 213.001 45.131 213.001C45.1622 213.001 45.1934 213.001 45.2244 213.001C45.2555 213.001 45.2864 213.001 45.3172 213.001C45.3481 213.001 45.3788 213.001 45.4094 213.001C45.44 213.001 45.4706 213.001 45.501 213.001C45.5314 213.001 45.5617 213.001 45.5919 213.001C45.6221 213.001 45.6522 213.001 45.6822 213.001C45.7122 213.001 45.7421 213.001 45.7719 213.001C45.8017 213.001 45.8314 213.001 45.861 213.001C45.8906 213.001 45.9201 213.001 45.9495 213.001C45.9789 213.001 46.0082 213.001 46.0374 213.001C46.0666 213.001 46.0957 213.001 46.1248 213.001C46.1538 213.001 46.1827 213.001 46.2115 213.001C46.2403 213.001 46.2691 213.001 46.2977 213.001C46.3263 213.001 46.3548 213.001 46.3833 213.001C46.4117 213.001 46.4401 213.001 46.4683 213.001C46.4966 213.001 46.5248 213.001 46.5528 213.001C46.5809 213.001 46.6089 213.001 46.6368 213.001C46.6647 213.001 46.6925 213.001 46.7202 213.001C46.7479 213.001 46.7755 213.001 46.8031 213.001C46.8306 213.001 46.8581 213.001 46.8854 213.001C46.9128 213.001 46.94 213.001 46.9672 213.001C46.9944 213.001 47.0215 213.001 47.0485 213.001C47.0756 213.001 47.1025 213.001 47.1293 213.001C47.1562 213.001 47.183 213.001 47.2096 213.001C47.2363 213.001 47.2629 213.001 47.2895 213.001C47.316 213.001 47.3424 213.001 47.3688 213.001C47.3951 213.001 47.4214 213.001 47.4476 213.001C47.4738 213.001 47.4999 213.001 47.5259 213.001C47.552 213.001 47.5779 213.001 47.6038 213.001C47.6297 213.001 47.6555 213.001 47.6812 213.001C47.707 213.001 47.7326 213.001 47.7582 213.001C47.7838 213.001 47.8093 213.001 47.8347 213.001C47.8601 213.001 47.8855 213.001 47.9108 213.001C47.9361 213.001 47.9613 213.001 47.9864 213.001C48.0115 213.001 48.0366 213.001 48.0616 213.001C48.0866 213.001 48.1115 213.001 48.1364 213.001C48.1612 213.001 48.186 213.001 48.2107 213.001C48.2354 213.001 48.2601 213.001 48.2846 213.001C48.3092 213.001 48.3337 213.001 48.3582 213.001C48.3826 213.001 48.407 213.001 48.4313 213.001C48.4556 213.001 48.4799 213.001 48.504 213.001C48.5282 213.001 48.5523 213.001 48.5764 213.001C48.6004 213.001 48.6244 213.001 48.6483 213.001C48.6723 213.001 48.6961 213.001 48.7199 213.001C48.7437 213.001 48.7675 213.001 48.7912 213.001C48.8148 213.001 48.8384 213.001 48.862 213.001C48.8856 213.001 48.9091 213.001 48.9325 213.001C48.956 213.001 48.9793 213.001 49.0027 213.001C49.026 213.001 49.0493 213.001 49.0725 213.001C49.0957 213.001 49.1188 213.001 49.1419 213.001C49.165 213.001 49.1881 213.001 49.2111 213.001C49.2341 213.001 49.257 213.001 49.2799 213.001C49.3028 213.001 49.3256 213.001 49.3484 213.001C49.3712 213.001 49.3939 213.001 49.4166 213.001C49.4393 213.001 49.4619 213.001 49.4845 213.001C49.507 213.001 49.5296 213.001 49.552 213.001C49.5745 213.001 49.597 213.001 49.6193 213.001C49.6417 213.001 49.6641 213.001 49.6863 213.001C49.7086 213.001 49.7309 213.001 49.7531 213.001C49.7753 213.001 49.7974 213.001 49.8195 213.001C49.8416 213.001 49.8637 213.001 49.8857 213.001C49.9077 213.001 49.9297 213.001 49.9516 213.001C49.9736 213.001 49.9954 213.001 50.0173 213.001C50.0391 213.001 50.061 213.001 50.0827 213.001C50.1045 213.001 50.1262 213.001 50.1479 213.001C50.1696 213.001 50.1912 213.001 50.2128 213.001C50.2345 213.001 50.256 213.001 50.2776 213.001C50.2991 213.001 50.3206 213.001 50.3421 213.001C50.3635 213.001 50.3849 213.001 50.4063 213.001C50.4277 213.001 50.4491 213.001 50.4704 213.001C50.4917 213.001 50.513 213.001 50.5343 213.001C50.5555 213.001 50.5767 213.001 50.5979 213.001C50.6191 213.001 50.6403 213.001 50.6614 213.001C50.6825 213.001 50.7036 213.001 50.7247 213.001C50.7458 213.001 50.7668 213.001 50.7878 213.001C50.8088 213.001 50.8298 213.001 50.8508 213.001C50.8717 213.001 50.8926 213.001 50.9135 213.001C50.9344 213.001 50.9553 213.001 50.9762 213.001C50.997 213.001 51.0178 213.001 51.0386 213.001C51.0594 213.001 51.0802 213.001 51.1009 213.001C51.1217 213.001 51.1424 213.001 51.1631 213.001C51.1838 213.001 51.2045 213.001 51.2252 213.001C51.2458 213.001 51.2665 213.001 51.2871 213.001C51.3077 213.001 51.3283 213.001 51.3489 213.001C51.3695 213.001 51.39 213.001 51.4106 213.001C51.4311 213.001 51.4517 213.001 51.4722 213.001C51.4927 213.001 51.5132 213.001 51.5336 213.001C51.5541 213.001 51.5746 213.001 51.595 213.001C51.6155 213.001 51.6359 213.001 51.6563 213.001C51.6767 213.001 51.6971 213.001 51.7175 213.001C51.7379 213.001 51.7583 213.001 51.7787 213.001C51.799 213.001 51.8194 213.001 51.8397 213.001C51.8601 213.001 51.8804 213.001 51.9007 213.001C51.921 213.001 51.9414 213.001 51.9617 213.001C51.982 213.001 52.0023 213.001 52.0226 213.001C52.0428 213.001 52.0631 213.001 52.0834 213.001C52.1037 213.001 52.1239 213.001 52.1442 213.001C52.1645 213.001 52.1847 213.001 52.205 213.001C52.2252 213.001 52.2455 213.001 52.2657 213.001C52.286 213.001 52.3062 213.001 52.3265 213.001C52.3467 213.001 52.367 213.001 52.3872 213.001C52.4074 213.001 52.4277 213.001 52.4479 213.001C52.4682 213.001 52.4884 213.001 52.5086 213.001C52.5289 213.001 52.5491 213.001 52.5694 213.001C52.5896 213.001 52.6098 213.001 52.6301 213.001C52.6503 213.001 52.6706 213.001 52.6908 213.001C52.7111 213.001 52.7314 213.001 52.7516 213.001C52.7719 213.001 52.7922 213.001 52.8124 213.001C52.8327 213.001 52.853 213.001 52.8733 213.001C52.8936 213.001 52.9139 213.001 52.9342 213.001C52.9545 213.001 52.9748 213.001 52.9951 213.001C53.0154 213.001 53.0358 213.001 53.0561 213.001C53.0765 213.001 53.0968 213.001 53.1172 213.001C53.1376 213.001 53.1579 213.001 53.1783 213.001C53.1987 213.001 53.2191 213.001 53.2395 213.001C53.26 213.001 53.2804 213.001 53.3008 213.001C53.3213 213.001 53.3418 213.001 53.3622 213.001C53.3827 213.001 53.4032 213.001 53.4237 213.001C53.4442 213.001 53.4647 213.001 53.4853 213.001C53.5058 213.001 53.5264 213.001 53.547 213.001C53.5676 213.001 53.5882 213.001 53.6088 213.001C53.6294 213.001 53.6501 213.001 53.6707 213.001C53.6914 213.001 53.7121 213.001 53.7328 213.001C53.7535 213.001 53.7742 213.001 53.795 213.001C53.8157 213.001 53.8365 213.001 53.8573 213.001C53.8781 213.001 53.8989 213.001 53.9198 213.001C53.9406 213.001 53.9615 213.001 53.9824 213.001C54.0033 213.001 54.0242 213.001 54.0452 213.001C54.0661 213.001 54.0871 213.001 54.1081 213.001C54.1292 213.001 54.1502 213.001 54.1713 213.001C54.1923 213.001 54.2134 213.001 54.2346 213.001C54.2557 213.001 54.2769 213.001 54.2981 213.001C54.3192 213.001 54.3405 213.001 54.3617 213.001C54.383 213.001 54.4043 213.001 54.4256 213.001C54.4469 213.001 54.4683 213.001 54.4897 213.001C54.5111 213.001 54.5325 213.001 54.554 213.001C54.5754 213.001 54.597 213.001 54.6185 213.001C54.64 213.001 54.6616 213.001 54.6832 213.001C54.7048 213.001 54.7265 213.001 54.7482 213.001C54.7699 213.001 54.7916 213.001 54.8134 213.001C54.8351 213.001 54.857 213.001 54.8788 213.001C54.9007 213.001 54.9226 213.001 54.9445 213.001C54.9664 213.001 54.9884 213.001 55.0104 213.001C55.0325 213.001 55.0545 213.001 55.0766 213.001C55.0987 213.001 55.1209 213.001 55.1431 213.001C55.1653 213.001 55.1875 213.001 55.2098 213.001C55.2321 213.001 55.2545 213.001 55.2769 213.001C55.2992 213.001 55.3217 213.001 55.3442 213.001C55.3666 213.001 55.3892 213.001 55.4118 213.001C55.4343 213.001 55.457 213.001 55.4797 213.001C55.5023 213.001 55.5251 213.001 55.5479 213.001C55.5707 213.001 55.5935 213.001 55.6164 213.001C55.6393 213.001 55.6622 213.001 55.6852 213.001C55.7082 213.001 55.7313 213.001 55.7544 213.001C55.7775 213.001 55.8007 213.001 55.8239 213.001C55.8471 213.001 55.8704 213.001 55.8937 213.001C55.917 213.001 55.9404 213.001 55.9639 213.001C55.9873 213.001 56.0108 213.001 56.0344 213.001C56.058 213.001 56.0816 213.001 56.1053 213.001C56.129 213.001 56.1527 213.001 56.1765 213.001C56.2003 213.001 56.2242 213.001 56.2481 213.001C56.2721 213.001 56.296 213.001 56.3201 213.001C56.3442 213.001 56.3683 213.001 56.3925 213.001C56.4167 213.001 56.4409 213.001 56.4652 213.001C56.4895 213.001 56.5139 213.001 56.5384 213.001C56.5628 213.001 56.5873 213.001 56.6119 213.001C56.6365 213.001 56.6612 213.001 56.6859 213.001C56.7106 213.001 56.7354 213.001 56.7603 213.001C56.7851 213.001 56.8101 213.001 56.8351 213.001C56.8601 213.001 56.8851 213.001 56.9103 213.001C56.9354 213.001 56.9606 213.001 56.9859 213.001C57.0112 213.001 57.0366 213.001 57.062 213.001C57.0874 213.001 57.113 213.001 57.1385 213.001C57.1641 213.001 57.1898 213.001 57.2155 213.001C57.2413 213.001 57.2671 213.001 57.293 213.001C57.3189 213.001 57.3448 213.001 57.3709 213.001C57.3969 213.001 57.4231 213.001 57.4493 213.001C57.4755 213.001 57.5018 213.001 57.5281 213.001C57.5545 213.001 57.5809 213.001 57.6075 213.001C57.634 213.001 57.6606 213.001 57.6873 213.001C57.714 213.001 57.7408 213.001 57.7676 213.001C57.7945 213.001 57.8214 213.001 57.8485 213.001C57.8755 213.001 57.9026 213.001 57.9298 213.001C57.957 213.001 57.9843 213.001 58.0117 213.001C58.039 213.001 58.0665 213.001 58.094 213.001C58.1216 213.001 58.1492 213.001 58.1769 213.001C58.2047 213.001 58.2325 213.001 58.2604 213.001C58.2883 213.001 58.3163 213.001 58.3444 213.001C58.3724 213.001 58.4006 213.001 58.4289 213.001C58.4571 213.001 58.4855 213.001 58.514 213.001C58.5424 213.001 58.571 213.001 58.5996 213.001C58.6282 213.001 58.657 213.001 58.6858 213.001C58.7146 213.001 58.7436 213.001 58.7726 213.001C58.8016 213.001 58.8307 213.001 58.8599 213.001C58.8892 213.001 58.9185 213.001 58.9479 213.001C58.9773 213.001 59.0068 213.001 59.0364 213.001C59.066 213.001 59.0958 213.001 59.1256 213.001C59.1554 213.001 59.1853 213.001 59.2153 213.001C59.2453 213.001 59.2754 213.001 59.3057 213.001C59.3359 213.001 59.3662 213.001 59.3966 213.001C59.427 213.001 59.4576 213.001 59.4882 213.001C59.5188 213.001 59.5496 213.001 59.5804 213.001C59.6113 213.001 59.6422 213.001 59.6733 213.001C59.7043 213.001 59.7355 213.001 59.7668 213.001C59.7981 213.001 59.8294 213.001 59.8609 213.001C59.8924 213.001 59.924 213.001 59.9557 213.001C59.9874 213.001 60.0193 213.001 60.0512 213.001C60.0831 213.001 60.1152 213.001 60.1473 213.001C60.1795 213.001 60.2118 213.001 60.2441 213.001C60.2765 213.001 60.309 213.001 60.3416 213.001C60.3742 213.001 60.407 213.001 60.4398 213.001C60.4726 213.001 60.5056 213.001 60.5387 213.001C60.5717 213.001 60.6049 213.001 60.6382 213.001C60.6715 213.001 60.705 213.001 60.7385 213.001C60.7721 213.001 60.8057 213.001 60.8395 213.001C60.8733 213.001 60.9072 213.001 60.9412 213.001C60.9752 213.001 61.0094 213.001 61.0436 213.001C61.0779 213.001 61.1123 213.001 61.1468 213.001C61.1813 213.001 61.216 213.001 61.2507 213.001C61.2855 213.001 61.3203 213.001 61.3554 213.001C61.3904 213.001 61.4255 213.001 61.4608 213.001C61.496 213.001 61.5314 213.001 61.5669 213.001C61.6024 213.001 61.6381 213.001 61.6738 213.001C61.7096 213.001 61.7455 213.001 61.7815 213.001C61.8175 213.001 61.8537 213.001 61.89 213.001C61.9263 213.001 61.9627 213.001 61.9992 213.001C62.0358 213.001 62.0724 213.001 62.1093 213.001C62.1461 213.001 62.183 213.001 62.2201 213.001C62.2572 213.001 62.2944 213.001 62.3317 213.001C62.3691 213.001 62.4065 213.001 62.4442 213.001C62.4818 213.001 62.5195 213.001 62.5574 213.001C62.5953 213.001 62.6333 213.001 62.6715 213.001C62.7096 213.001 62.7479 213.001 62.7864 213.001C62.8248 213.001 62.8634 213.001 62.9021 213.001C62.9408 213.001 62.9797 213.001 63.0187 213.001C63.0577 213.001 63.0968 213.001 63.1361 213.001C63.1754 213.001 63.2148 213.001 63.2544 213.001C63.294 213.001 63.3337 213.001 63.3735 213.001C63.4134 213.001 63.4534 213.001 63.4935 213.001C63.5337 213.001 63.574 213.001 63.6144 213.001C63.6548 213.001 63.6954 213.001 63.7361 213.001C63.7769 213.001 63.8177 213.001 63.8588 213.001C63.8998 213.001 63.941 213.001 63.9823 213.001C64.0236 213.001 64.0651 213.001 64.1067 213.001C64.1483 213.001 64.1901 213.001 64.232 213.001C64.274 213.001 64.316 213.001 64.3583 213.001C64.4005 213.001 64.4429 213.001 64.4854 213.001C64.528 213.001 64.5707 213.001 64.6135 213.001C64.6563 213.001 64.6993 213.001 64.7425 213.001C64.7857 213.001 64.829 213.001 64.8724 213.001C64.9159 213.001 64.9595 213.001 65.0033 213.001C65.0471 213.001 65.091 213.001 65.1351 213.001C65.1792 213.001 65.2235 213.001 65.2679 213.001C65.3123 213.001 65.3569 213.001 65.4017 213.001C65.4464 213.001 65.4913 213.001 65.5364 213.001C65.5814 213.001 65.6267 213.001 65.672 213.001C65.7174 213.001 65.763 213.001 65.8087 213.001C65.8544 213.001 65.9003 213.001 65.9464 213.001C65.9924 213.001 66.0386 213.001 66.085 213.001C66.1314 213.001 66.1779 213.001 66.2246 213.001C66.2713 213.001 66.3182 213.001 66.3653 213.001C66.4123 213.001 66.4595 213.001 66.5069 213.001C66.5543 213.001 66.6019 213.001 66.6496 213.001C66.6973 213.001 66.7452 213.001 66.7933 213.001C66.8414 213.001 66.8896 213.001 66.938 213.001C66.9864 213.001 67.035 213.001 67.0838 213.001C67.1326 213.001 67.1815 213.001 67.2306 213.001C67.2797 213.001 67.329 213.001 67.3785 213.001C67.4279 213.001 67.4776 213.001 67.5274 213.001C67.5772 213.001 67.6272 213.001 67.6773 213.001C67.7275 213.001 67.7779 213.001 67.8284 213.001C67.8789 213.001 67.9296 213.001 67.9805 213.001C68.0314 213.001 68.0825 213.001 68.1337 213.001C68.185 213.001 68.2364 213.001 68.288 213.001C68.3396 213.001 68.3914 213.001 68.4434 213.001C68.4954 213.001 68.5475 213.001 68.5999 213.001C68.6522 213.001 68.7047 213.001 68.7575 213.001C68.8102 213.001 68.8631 213.001 68.9162 213.001C68.9693 213.001 69.0225 213.001 69.076 213.001C69.1295 213.001 69.1831 213.001 69.2369 213.001C69.2908 213.001 69.3448 213.001 69.399 213.001C69.4532 213.001 69.5076 213.001 69.5622 213.001C69.6168 213.001 69.6716 213.001 69.7266 213.001C69.7816 213.001 69.8368 213.001 69.8921 213.001C69.9475 213.001 70.0031 213.001 70.0588 213.001C70.1146 213.001 70.1705 213.001 70.2266 213.001C70.2828 213.001 70.3391 213.001 70.3957 213.001C70.4522 213.001 70.5089 213.001 70.5658 213.001C70.6228 213.001 70.6799 213.001 70.7372 213.001C70.7945 213.001 70.8521 213.001 70.9098 213.001C70.9675 213.001 71.0254 213.001 71.0835 213.001C71.1417 213.001 71.2 213.001 71.2585 213.001C71.317 213.001 71.3757 213.001 71.4347 213.001C71.4936 213.001 71.5527 213.001 71.612 213.001C71.6714 213.001 71.7309 213.001 71.7906 213.001C71.8504 213.001 71.9103 213.001 71.9705 213.001C72.0306 213.001 72.091 213.001 72.1516 213.001C72.2121 213.001 72.2729 213.001 72.3339 213.001C72.3948 213.001 72.456 213.001 72.5174 213.001C72.5788 213.001 72.6404 213.001 72.7022 213.001C72.764 213.001 72.826 213.001 72.8883 213.001C72.9505 213.001 73.013 213.001 73.0756 213.001C73.1383 213.001 73.2011 213.001 73.2642 213.001C73.3273 213.001 73.3906 213.001 73.4541 213.001C73.5176 213.001 73.5813 213.001 73.6453 213.001C73.7092 213.001 73.7734 213.001 73.8377 213.001C73.9021 213.001 73.9667 213.001 74.0315 213.001C74.0963 213.001 74.1613 213.001 74.2266 213.001C74.2918 213.001 74.3573 213.001 74.4229 213.001C74.4886 213.001 74.5545 213.001 74.6206 213.001C74.6867 213.001 74.7531 213.001 74.8196 213.001C74.8862 213.001 74.953 213.001 75.02 213.001C75.087 213.001 75.1542 213.001 75.2217 213.001C75.2891 213.001 75.3568 213.001 75.4247 213.001C75.4926 213.001 75.5607 213.001 75.629 213.001C75.6974 213.001 75.766 213.001 75.8348 213.001C75.9036 213.001 75.9726 213.001 76.0419 213.001C76.1111 213.001 76.1806 213.001 76.2503 213.001C76.32 213.001 76.39 213.001 76.4601 213.001C76.5303 213.001 76.6007 213.001 76.6713 213.001C76.742 213.001 76.8128 213.001 76.8839 213.001V211.501V210.001C76.8128 210.001 76.742 210.001 76.6713 210.001C76.6007 210.001 76.5303 210.001 76.4601 210.001C76.39 210.001 76.32 210.001 76.2503 210.001C76.1806 210.001 76.1111 210.001 76.0419 210.001C75.9726 210.001 75.9036 210.001 75.8348 210.001C75.766 210.001 75.6974 210.001 75.629 210.001C75.5607 210.001 75.4926 210.001 75.4247 210.001C75.3568 210.001 75.2891 210.001 75.2217 210.001C75.1542 210.001 75.087 210.001 75.02 210.001C74.953 210.001 74.8862 210.001 74.8196 210.001C74.7531 210.001 74.6867 210.001 74.6206 210.001C74.5545 210.001 74.4886 210.001 74.4229 210.001C74.3573 210.001 74.2918 210.001 74.2266 210.001C74.1613 210.001 74.0963 210.001 74.0315 210.001C73.9667 210.001 73.9021 210.001 73.8377 210.001C73.7734 210.001 73.7092 210.001 73.6453 210.001C73.5813 210.001 73.5176 210.001 73.4541 210.001C73.3906 210.001 73.3273 210.001 73.2642 210.001C73.2011 210.001 73.1383 210.001 73.0756 210.001C73.013 210.001 72.9505 210.001 72.8883 210.001C72.826 210.001 72.764 210.001 72.7022 210.001C72.6404 210.001 72.5788 210.001 72.5174 210.001C72.456 210.001 72.3948 210.001 72.3339 210.001C72.2729 210.001 72.2121 210.001 72.1516 210.001C72.091 210.001 72.0306 210.001 71.9705 210.001C71.9103 210.001 71.8504 210.001 71.7906 210.001C71.7309 210.001 71.6714 210.001 71.612 210.001C71.5527 210.001 71.4936 210.001 71.4347 210.001C71.3757 210.001 71.317 210.001 71.2585 210.001C71.2 210.001 71.1417 210.001 71.0835 210.001C71.0254 210.001 70.9675 210.001 70.9098 210.001C70.8521 210.001 70.7945 210.001 70.7372 210.001C70.6799 210.001 70.6228 210.001 70.5658 210.001C70.5089 210.001 70.4522 210.001 70.3957 210.001C70.3391 210.001 70.2828 210.001 70.2266 210.001C70.1705 210.001 70.1146 210.001 70.0588 210.001C70.0031 210.001 69.9475 210.001 69.8921 210.001C69.8368 210.001 69.7816 210.001 69.7266 210.001C69.6716 210.001 69.6168 210.001 69.5622 210.001C69.5076 210.001 69.4532 210.001 69.399 210.001C69.3448 210.001 69.2908 210.001 69.2369 210.001C69.1831 210.001 69.1295 210.001 69.076 210.001C69.0225 210.001 68.9693 210.001 68.9162 210.001C68.8631 210.001 68.8102 210.001 68.7575 210.001C68.7047 210.001 68.6522 210.001 68.5999 210.001C68.5475 210.001 68.4954 210.001 68.4434 210.001C68.3914 210.001 68.3396 210.001 68.288 210.001C68.2364 210.001 68.185 210.001 68.1337 210.001C68.0825 210.001 68.0314 210.001 67.9805 210.001C67.9296 210.001 67.8789 210.001 67.8284 210.001C67.7779 210.001 67.7275 210.001 67.6773 210.001C67.6272 210.001 67.5772 210.001 67.5274 210.001C67.4776 210.001 67.4279 210.001 67.3785 210.001C67.329 210.001 67.2797 210.001 67.2306 210.001C67.1815 210.001 67.1326 210.001 67.0838 210.001C67.035 210.001 66.9864 210.001 66.938 210.001C66.8896 210.001 66.8414 210.001 66.7933 210.001C66.7452 210.001 66.6973 210.001 66.6496 210.001C66.6019 210.001 66.5543 210.001 66.5069 210.001C66.4595 210.001 66.4123 210.001 66.3653 210.001C66.3182 210.001 66.2713 210.001 66.2246 210.001C66.1779 210.001 66.1314 210.001 66.085 210.001C66.0386 210.001 65.9924 210.001 65.9464 210.001C65.9003 210.001 65.8544 210.001 65.8087 210.001C65.763 210.001 65.7174 210.001 65.672 210.001C65.6267 210.001 65.5814 210.001 65.5364 210.001C65.4913 210.001 65.4464 210.001 65.4017 210.001C65.3569 210.001 65.3123 210.001 65.2679 210.001C65.2235 210.001 65.1792 210.001 65.1351 210.001C65.091 210.001 65.0471 210.001 65.0033 210.001C64.9595 210.001 64.9159 210.001 64.8724 210.001C64.829 210.001 64.7857 210.001 64.7425 210.001C64.6993 210.001 64.6563 210.001 64.6135 210.001C64.5707 210.001 64.528 210.001 64.4854 210.001C64.4429 210.001 64.4005 210.001 64.3583 210.001C64.316 210.001 64.274 210.001 64.232 210.001C64.1901 210.001 64.1483 210.001 64.1067 210.001C64.0651 210.001 64.0236 210.001 63.9823 210.001C63.941 210.001 63.8998 210.001 63.8588 210.001C63.8177 210.001 63.7769 210.001 63.7361 210.001C63.6954 210.001 63.6548 210.001 63.6144 210.001C63.574 210.001 63.5337 210.001 63.4935 210.001C63.4534 210.001 63.4134 210.001 63.3735 210.001C63.3337 210.001 63.294 210.001 63.2544 210.001C63.2148 210.001 63.1754 210.001 63.1361 210.001C63.0968 210.001 63.0577 210.001 63.0187 210.001C62.9797 210.001 62.9408 210.001 62.9021 210.001C62.8634 210.001 62.8248 210.001 62.7864 210.001C62.7479 210.001 62.7096 210.001 62.6715 210.001C62.6333 210.001 62.5953 210.001 62.5574 210.001C62.5195 210.001 62.4818 210.001 62.4442 210.001C62.4065 210.001 62.3691 210.001 62.3317 210.001C62.2944 210.001 62.2572 210.001 62.2201 210.001C62.183 210.001 62.1461 210.001 62.1093 210.001C62.0724 210.001 62.0358 210.001 61.9992 210.001C61.9627 210.001 61.9263 210.001 61.89 210.001C61.8537 210.001 61.8175 210.001 61.7815 210.001C61.7455 210.001 61.7096 210.001 61.6738 210.001C61.6381 210.001 61.6024 210.001 61.5669 210.001C61.5314 210.001 61.496 210.001 61.4608 210.001C61.4255 210.001 61.3904 210.001 61.3554 210.001C61.3203 210.001 61.2855 210.001 61.2507 210.001C61.216 210.001 61.1813 210.001 61.1468 210.001C61.1123 210.001 61.0779 210.001 61.0436 210.001C61.0094 210.001 60.9752 210.001 60.9412 210.001C60.9072 210.001 60.8733 210.001 60.8395 210.001C60.8057 210.001 60.7721 210.001 60.7385 210.001C60.705 210.001 60.6715 210.001 60.6382 210.001C60.6049 210.001 60.5717 210.001 60.5387 210.001C60.5056 210.001 60.4726 210.001 60.4398 210.001C60.407 210.001 60.3742 210.001 60.3416 210.001C60.309 210.001 60.2765 210.001 60.2441 210.001C60.2118 210.001 60.1795 210.001 60.1473 210.001C60.1152 210.001 60.0831 210.001 60.0512 210.001C60.0193 210.001 59.9874 210.001 59.9557 210.001C59.924 210.001 59.8924 210.001 59.8609 210.001C59.8294 210.001 59.7981 210.001 59.7668 210.001C59.7355 210.001 59.7043 210.001 59.6733 210.001C59.6422 210.001 59.6113 210.001 59.5804 210.001C59.5496 210.001 59.5188 210.001 59.4882 210.001C59.4576 210.001 59.427 210.001 59.3966 210.001C59.3662 210.001 59.3359 210.001 59.3057 210.001C59.2754 210.001 59.2453 210.001 59.2153 210.001C59.1853 210.001 59.1554 210.001 59.1256 210.001C59.0958 210.001 59.066 210.001 59.0364 210.001C59.0068 210.001 58.9773 210.001 58.9479 210.001C58.9185 210.001 58.8892 210.001 58.8599 210.001C58.8307 210.001 58.8016 210.001 58.7726 210.001C58.7436 210.001 58.7146 210.001 58.6858 210.001C58.657 210.001 58.6282 210.001 58.5996 210.001C58.571 210.001 58.5424 210.001 58.514 210.001C58.4855 210.001 58.4571 210.001 58.4289 210.001C58.4006 210.001 58.3724 210.001 58.3444 210.001C58.3163 210.001 58.2883 210.001 58.2604 210.001C58.2325 210.001 58.2047 210.001 58.1769 210.001C58.1492 210.001 58.1216 210.001 58.094 210.001C58.0665 210.001 58.039 210.001 58.0117 210.001C57.9843 210.001 57.957 210.001 57.9298 210.001C57.9026 210.001 57.8755 210.001 57.8485 210.001C57.8214 210.001 57.7945 210.001 57.7676 210.001C57.7408 210.001 57.714 210.001 57.6873 210.001C57.6606 210.001 57.634 210.001 57.6075 210.001C57.5809 210.001 57.5545 210.001 57.5281 210.001C57.5018 210.001 57.4755 210.001 57.4493 210.001C57.4231 210.001 57.3969 210.001 57.3709 210.001C57.3448 210.001 57.3189 210.001 57.293 210.001C57.2671 210.001 57.2413 210.001 57.2155 210.001C57.1898 210.001 57.1641 210.001 57.1385 210.001C57.113 210.001 57.0874 210.001 57.062 210.001C57.0366 210.001 57.0112 210.001 56.9859 210.001C56.9606 210.001 56.9354 210.001 56.9103 210.001C56.8851 210.001 56.8601 210.001 56.8351 210.001C56.8101 210.001 56.7851 210.001 56.7603 210.001C56.7354 210.001 56.7106 210.001 56.6859 210.001C56.6612 210.001 56.6365 210.001 56.6119 210.001C56.5873 210.001 56.5628 210.001 56.5384 210.001C56.5139 210.001 56.4895 210.001 56.4652 210.001C56.4409 210.001 56.4167 210.001 56.3925 210.001C56.3683 210.001 56.3442 210.001 56.3201 210.001C56.296 210.001 56.2721 210.001 56.2481 210.001C56.2242 210.001 56.2003 210.001 56.1765 210.001C56.1527 210.001 56.129 210.001 56.1053 210.001C56.0816 210.001 56.058 210.001 56.0344 210.001C56.0108 210.001 55.9873 210.001 55.9639 210.001C55.9404 210.001 55.917 210.001 55.8937 210.001C55.8704 210.001 55.8471 210.001 55.8239 210.001C55.8007 210.001 55.7775 210.001 55.7544 210.001C55.7313 210.001 55.7082 210.001 55.6852 210.001C55.6622 210.001 55.6393 210.001 55.6164 210.001C55.5935 210.001 55.5707 210.001 55.5479 210.001C55.5251 210.001 55.5023 210.001 55.4797 210.001C55.457 210.001 55.4343 210.001 55.4118 210.001C55.3892 210.001 55.3666 210.001 55.3442 210.001C55.3217 210.001 55.2992 210.001 55.2769 210.001C55.2545 210.001 55.2321 210.001 55.2098 210.001C55.1875 210.001 55.1653 210.001 55.1431 210.001C55.1209 210.001 55.0987 210.001 55.0766 210.001C55.0545 210.001 55.0325 210.001 55.0104 210.001C54.9884 210.001 54.9664 210.001 54.9445 210.001C54.9226 210.001 54.9007 210.001 54.8788 210.001C54.857 210.001 54.8351 210.001 54.8134 210.001C54.7916 210.001 54.7699 210.001 54.7482 210.001C54.7265 210.001 54.7048 210.001 54.6832 210.001C54.6616 210.001 54.64 210.001 54.6185 210.001C54.597 210.001 54.5754 210.001 54.554 210.001C54.5325 210.001 54.5111 210.001 54.4897 210.001C54.4683 210.001 54.4469 210.001 54.4256 210.001C54.4043 210.001 54.383 210.001 54.3617 210.001C54.3405 210.001 54.3192 210.001 54.2981 210.001C54.2769 210.001 54.2557 210.001 54.2346 210.001C54.2134 210.001 54.1923 210.001 54.1713 210.001C54.1502 210.001 54.1292 210.001 54.1081 210.001C54.0871 210.001 54.0661 210.001 54.0452 210.001C54.0242 210.001 54.0033 210.001 53.9824 210.001C53.9615 210.001 53.9406 210.001 53.9198 210.001C53.8989 210.001 53.8781 210.001 53.8573 210.001C53.8365 210.001 53.8157 210.001 53.795 210.001C53.7742 210.001 53.7535 210.001 53.7328 210.001C53.7121 210.001 53.6914 210.001 53.6707 210.001C53.6501 210.001 53.6294 210.001 53.6088 210.001C53.5882 210.001 53.5676 210.001 53.547 210.001C53.5264 210.001 53.5058 210.001 53.4853 210.001C53.4647 210.001 53.4442 210.001 53.4237 210.001C53.4032 210.001 53.3827 210.001 53.3622 210.001C53.3418 210.001 53.3213 210.001 53.3008 210.001C53.2804 210.001 53.26 210.001 53.2395 210.001C53.2191 210.001 53.1987 210.001 53.1783 210.001C53.1579 210.001 53.1376 210.001 53.1172 210.001C53.0968 210.001 53.0765 210.001 53.0561 210.001C53.0358 210.001 53.0154 210.001 52.9951 210.001C52.9748 210.001 52.9545 210.001 52.9342 210.001C52.9139 210.001 52.8936 210.001 52.8733 210.001C52.853 210.001 52.8327 210.001 52.8124 210.001C52.7922 210.001 52.7719 210.001 52.7516 210.001C52.7314 210.001 52.7111 210.001 52.6908 210.001C52.6706 210.001 52.6503 210.001 52.6301 210.001C52.6098 210.001 52.5896 210.001 52.5694 210.001C52.5491 210.001 52.5289 210.001 52.5086 210.001C52.4884 210.001 52.4682 210.001 52.4479 210.001C52.4277 210.001 52.4074 210.001 52.3872 210.001C52.367 210.001 52.3467 210.001 52.3265 210.001C52.3062 210.001 52.286 210.001 52.2657 210.001C52.2455 210.001 52.2252 210.001 52.205 210.001C52.1847 210.001 52.1645 210.001 52.1442 210.001C52.1239 210.001 52.1037 210.001 52.0834 210.001C52.0631 210.001 52.0428 210.001 52.0226 210.001C52.0023 210.001 51.982 210.001 51.9617 210.001C51.9414 210.001 51.921 210.001 51.9007 210.001C51.8804 210.001 51.8601 210.001 51.8397 210.001C51.8194 210.001 51.799 210.001 51.7787 210.001C51.7583 210.001 51.7379 210.001 51.7175 210.001C51.6971 210.001 51.6767 210.001 51.6563 210.001C51.6359 210.001 51.6155 210.001 51.595 210.001C51.5746 210.001 51.5541 210.001 51.5336 210.001C51.5132 210.001 51.4927 210.001 51.4722 210.001C51.4517 210.001 51.4311 210.001 51.4106 210.001C51.39 210.001 51.3695 210.001 51.3489 210.001C51.3283 210.001 51.3077 210.001 51.2871 210.001C51.2665 210.001 51.2458 210.001 51.2252 210.001C51.2045 210.001 51.1838 210.001 51.1631 210.001C51.1424 210.001 51.1217 210.001 51.1009 210.001C51.0802 210.001 51.0594 210.001 51.0386 210.001C51.0178 210.001 50.997 210.001 50.9762 210.001C50.9553 210.001 50.9344 210.001 50.9135 210.001C50.8926 210.001 50.8717 210.001 50.8508 210.001C50.8298 210.001 50.8088 210.001 50.7878 210.001C50.7668 210.001 50.7458 210.001 50.7247 210.001C50.7036 210.001 50.6825 210.001 50.6614 210.001C50.6403 210.001 50.6191 210.001 50.5979 210.001C50.5767 210.001 50.5555 210.001 50.5343 210.001C50.513 210.001 50.4917 210.001 50.4704 210.001C50.4491 210.001 50.4277 210.001 50.4063 210.001C50.3849 210.001 50.3635 210.001 50.3421 210.001C50.3206 210.001 50.2991 210.001 50.2776 210.001C50.256 210.001 50.2345 210.001 50.2128 210.001C50.1912 210.001 50.1696 210.001 50.1479 210.001C50.1262 210.001 50.1045 210.001 50.0827 210.001C50.061 210.001 50.0391 210.001 50.0173 210.001C49.9954 210.001 49.9736 210.001 49.9516 210.001C49.9297 210.001 49.9077 210.001 49.8857 210.001C49.8637 210.001 49.8416 210.001 49.8195 210.001C49.7974 210.001 49.7753 210.001 49.7531 210.001C49.7309 210.001 49.7086 210.001 49.6863 210.001C49.6641 210.001 49.6417 210.001 49.6193 210.001C49.597 210.001 49.5745 210.001 49.552 210.001C49.5296 210.001 49.507 210.001 49.4845 210.001C49.4619 210.001 49.4393 210.001 49.4166 210.001C49.3939 210.001 49.3712 210.001 49.3484 210.001C49.3256 210.001 49.3028 210.001 49.2799 210.001C49.257 210.001 49.2341 210.001 49.2111 210.001C49.1881 210.001 49.165 210.001 49.1419 210.001C49.1188 210.001 49.0957 210.001 49.0725 210.001C49.0493 210.001 49.026 210.001 49.0027 210.001C48.9793 210.001 48.956 210.001 48.9325 210.001C48.9091 210.001 48.8856 210.001 48.862 210.001C48.8384 210.001 48.8148 210.001 48.7912 210.001C48.7675 210.001 48.7437 210.001 48.7199 210.001C48.6961 210.001 48.6723 210.001 48.6483 210.001C48.6244 210.001 48.6004 210.001 48.5764 210.001C48.5523 210.001 48.5282 210.001 48.504 210.001C48.4799 210.001 48.4556 210.001 48.4313 210.001C48.407 210.001 48.3826 210.001 48.3582 210.001C48.3337 210.001 48.3092 210.001 48.2846 210.001C48.2601 210.001 48.2354 210.001 48.2107 210.001C48.186 210.001 48.1612 210.001 48.1364 210.001C48.1115 210.001 48.0866 210.001 48.0616 210.001C48.0366 210.001 48.0115 210.001 47.9864 210.001C47.9613 210.001 47.9361 210.001 47.9108 210.001C47.8855 210.001 47.8601 210.001 47.8347 210.001C47.8093 210.001 47.7838 210.001 47.7582 210.001C47.7326 210.001 47.707 210.001 47.6812 210.001C47.6555 210.001 47.6297 210.001 47.6038 210.001C47.5779 210.001 47.552 210.001 47.5259 210.001C47.4999 210.001 47.4738 210.001 47.4476 210.001C47.4214 210.001 47.3951 210.001 47.3688 210.001C47.3424 210.001 47.316 210.001 47.2895 210.001C47.2629 210.001 47.2363 210.001 47.2096 210.001C47.183 210.001 47.1562 210.001 47.1293 210.001C47.1025 210.001 47.0756 210.001 47.0485 210.001C47.0215 210.001 46.9944 210.001 46.9672 210.001C46.94 210.001 46.9128 210.001 46.8854 210.001C46.8581 210.001 46.8306 210.001 46.8031 210.001C46.7755 210.001 46.7479 210.001 46.7202 210.001C46.6925 210.001 46.6647 210.001 46.6368 210.001C46.6089 210.001 46.5809 210.001 46.5528 210.001C46.5248 210.001 46.4966 210.001 46.4683 210.001C46.4401 210.001 46.4117 210.001 46.3833 210.001C46.3548 210.001 46.3263 210.001 46.2977 210.001C46.2691 210.001 46.2403 210.001 46.2115 210.001C46.1827 210.001 46.1538 210.001 46.1248 210.001C46.0957 210.001 46.0666 210.001 46.0374 210.001C46.0082 210.001 45.9789 210.001 45.9495 210.001C45.9201 210.001 45.8906 210.001 45.861 210.001C45.8314 210.001 45.8017 210.001 45.7719 210.001C45.7421 210.001 45.7122 210.001 45.6822 210.001C45.6522 210.001 45.6221 210.001 45.5919 210.001C45.5617 210.001 45.5314 210.001 45.501 210.001C45.4706 210.001 45.44 210.001 45.4094 210.001C45.3788 210.001 45.3481 210.001 45.3172 210.001C45.2864 210.001 45.2555 210.001 45.2244 210.001C45.1934 210.001 45.1622 210.001 45.131 210.001C45.0997 210.001 45.0683 210.001 45.0368 210.001C45.0054 210.001 44.9738 210.001 44.9421 210.001C44.9104 210.001 44.8786 210.001 44.8467 210.001C44.8147 210.001 44.7827 210.001 44.7506 210.001C44.7184 210.001 44.6862 210.001 44.6538 210.001C44.6214 210.001 44.5889 210.001 44.5563 210.001C44.5238 210.001 44.491 210.001 44.4582 210.001C44.4254 210.001 44.3924 210.001 44.3594 210.001C44.3263 210.001 44.2931 210.001 44.2599 210.001C44.2266 210.001 44.1931 210.001 44.1596 210.001C44.1261 210.001 44.0924 210.001 44.0587 210.001C44.0249 210.001 43.991 210.001 43.957 210.001C43.923 210.001 43.8889 210.001 43.8546 210.001C43.8204 210.001 43.786 210.001 43.7515 210.001C43.717 210.001 43.6824 210.001 43.6476 210.001C43.6129 210.001 43.578 210.001 43.543 210.001C43.508 210.001 43.4729 210.001 43.4377 210.001C43.4024 210.001 43.3671 210.001 43.3316 210.001C43.2961 210.001 43.2605 210.001 43.2247 210.001C43.1889 210.001 43.1531 210.001 43.1171 210.001C43.081 210.001 43.0449 210.001 43.0086 210.001C42.9724 210.001 42.936 210.001 42.8994 210.001C42.8629 210.001 42.8262 210.001 42.7895 210.001C42.7527 210.001 42.7157 210.001 42.6787 210.001C42.6416 210.001 42.6044 210.001 42.5671 210.001C42.5298 210.001 42.4923 210.001 42.4547 210.001C42.4171 210.001 42.3794 210.001 42.3415 210.001C42.3036 210.001 42.2656 210.001 42.2275 210.001C42.1893 210.001 42.151 210.001 42.1126 210.001C42.0742 210.001 42.0356 210.001 41.9969 210.001C41.9582 210.001 41.9194 210.001 41.8804 210.001C41.8414 210.001 41.8023 210.001 41.763 210.001C41.7237 210.001 41.6843 210.001 41.6448 210.001C41.6052 210.001 41.5655 210.001 41.5257 210.001C41.4859 210.001 41.4459 210.001 41.4058 210.001C41.3656 210.001 41.3254 210.001 41.2849 210.001C41.2445 210.001 41.204 210.001 41.1632 210.001C41.1225 210.001 41.0817 210.001 41.0407 210.001C40.9997 210.001 40.9585 210.001 40.9172 210.001C40.8759 210.001 40.8344 210.001 40.7928 210.001C40.7512 210.001 40.7095 210.001 40.6676 210.001C40.6256 210.001 40.5836 210.001 40.5414 210.001C40.4992 210.001 40.4568 210.001 40.4143 210.001C40.3718 210.001 40.3291 210.001 40.2863 210.001C40.2434 210.001 40.2004 210.001 40.1573 210.001C40.1142 210.001 40.0709 210.001 40.0274 210.001C39.984 210.001 39.9404 210.001 39.8966 210.001C39.8528 210.001 39.8089 210.001 39.7648 210.001C39.7208 210.001 39.6765 210.001 39.6321 210.001C39.5877 210.001 39.5431 210.001 39.4984 210.001C39.4537 210.001 39.4088 210.001 39.3638 210.001C39.3187 210.001 39.2735 210.001 39.2282 210.001C39.1828 210.001 39.1372 210.001 39.0915 210.001C39.0459 210.001 39 210.001 38.954 210.001C38.9079 210.001 38.8617 210.001 38.8154 210.001C38.769 210.001 38.7225 210.001 38.6758 210.001C38.6291 210.001 38.5822 210.001 38.5352 210.001C38.4882 210.001 38.441 210.001 38.3936 210.001C38.3462 210.001 38.2987 210.001 38.251 210.001C38.2033 210.001 38.1554 210.001 38.1074 210.001C38.0593 210.001 38.0111 210.001 37.9627 210.001C37.9143 210.001 37.8657 210.001 37.817 210.001C37.7683 210.001 37.7193 210.001 37.6702 210.001C37.6212 210.001 37.5719 210.001 37.5224 210.001C37.473 210.001 37.4234 210.001 37.3736 210.001C37.3238 210.001 37.2738 210.001 37.2237 210.001C37.1735 210.001 37.1232 210.001 37.0727 210.001C37.0222 210.001 36.9715 210.001 36.9206 210.001C36.8698 210.001 36.8187 210.001 36.7675 210.001C36.7163 210.001 36.6649 210.001 36.6133 210.001C36.5617 210.001 36.5099 210.001 36.458 210.001C36.406 210.001 36.3539 210.001 36.3015 210.001C36.2492 210.001 36.1967 210.001 36.144 210.001C36.0913 210.001 36.0384 210.001 35.9854 210.001C35.9323 210.001 35.8791 210.001 35.8256 210.001C35.7722 210.001 35.7185 210.001 35.6647 210.001C35.6109 210.001 35.5569 210.001 35.5027 210.001C35.4485 210.001 35.3941 210.001 35.3396 210.001C35.285 210.001 35.2302 210.001 35.1753 210.001C35.1203 210.001 35.0651 210.001 35.0098 210.001C34.9545 210.001 34.8989 210.001 34.8432 210.001C34.7875 210.001 34.7315 210.001 34.6754 210.001C34.6193 210.001 34.563 210.001 34.5065 210.001C34.45 210.001 34.3933 210.001 34.3364 210.001C34.2795 210.001 34.2224 210.001 34.1651 210.001C34.1078 210.001 34.0503 210.001 33.9926 210.001C33.9349 210.001 33.877 210.001 33.8189 210.001C33.7608 210.001 33.7025 210.001 33.644 210.001C33.5855 210.001 33.5268 210.001 33.4679 210.001C33.409 210.001 33.3499 210.001 33.2906 210.001C33.2313 210.001 33.1718 210.001 33.112 210.001C33.0523 210.001 32.9924 210.001 32.9323 210.001C32.8722 210.001 32.8118 210.001 32.7513 210.001C32.6907 210.001 32.63 210.001 32.5691 210.001C32.5081 210.001 32.4469 210.001 32.3856 210.001C32.3242 210.001 32.2626 210.001 32.2008 210.001C32.139 210.001 32.077 210.001 32.0148 210.001C31.9526 210.001 31.8902 210.001 31.8276 210.001C31.765 210.001 31.7021 210.001 31.6391 210.001C31.576 210.001 31.5127 210.001 31.4492 210.001C31.3858 210.001 31.3221 210.001 31.2581 210.001C31.1942 210.001 31.1301 210.001 31.0658 210.001C31.0014 210.001 30.9369 210.001 30.8721 210.001C30.8073 210.001 30.7423 210.001 30.6771 210.001C30.6119 210.001 30.5464 210.001 30.4808 210.001C30.4151 210.001 30.3493 210.001 30.2832 210.001C30.2171 210.001 30.1508 210.001 30.0842 210.001C30.0177 210.001 29.951 210.001 29.884 210.001C29.817 210.001 29.7498 210.001 29.6824 210.001C29.615 210.001 29.5473 210.001 29.4794 210.001C29.4116 210.001 29.3435 210.001 29.2751 210.001C29.2068 210.001 29.1383 210.001 29.0695 210.001C29.0007 210.001 28.9317 210.001 28.8625 210.001C28.7933 210.001 28.7238 210.001 28.6541 210.001C28.5844 210.001 28.5145 210.001 28.4444 210.001C28.3742 210.001 28.3038 210.001 28.2332 210.001C28.1626 210.001 28.0918 210.001 28.0207 210.001C27.9497 210.001 27.8784 210.001 27.8068 210.001C27.7353 210.001 27.6635 210.001 27.5915 210.001C27.5195 210.001 27.4473 210.001 27.3748 210.001C27.3023 210.001 27.2296 210.001 27.1567 210.001C27.0837 210.001 27.0106 210.001 26.9371 210.001C26.8637 210.001 26.7901 210.001 26.7162 210.001C26.6423 210.001 26.5681 210.001 26.4938 210.001C26.4194 210.001 26.3448 210.001 26.2699 210.001C26.1951 210.001 26.12 210.001 26.0447 210.001C25.9693 210.001 25.8937 210.001 25.8179 210.001C25.7421 210.001 25.666 210.001 25.5897 210.001C25.5134 210.001 25.4369 210.001 25.3601 210.001C25.2833 210.001 25.2063 210.001 25.129 210.001C25.0517 210.001 24.9742 210.001 24.8964 210.001C24.8186 210.001 24.7406 210.001 24.6623 210.001C24.584 210.001 24.5055 210.001 24.4267 210.001C24.348 210.001 24.269 210.001 24.1897 210.001C24.1104 210.001 24.0309 210.001 23.9511 210.001C23.8714 210.001 23.7913 210.001 23.7111 210.001C23.6308 210.001 23.5503 210.001 23.4695 210.001C23.3887 210.001 23.3077 210.001 23.2264 210.001C23.1451 210.001 23.0635 210.001 22.9818 210.001C22.9 210.001 22.8179 210.001 22.7356 210.001C22.6533 210.001 22.5707 210.001 22.4879 210.001C22.4051 210.001 22.322 210.001 22.2386 210.001C22.1553 210.001 22.0717 210.001 21.9879 210.001C21.904 210.001 21.8199 210.001 21.7355 210.001C21.6511 210.001 21.5665 210.001 21.4816 210.001C21.3967 210.001 21.3115 210.001 21.2261 210.001C21.1407 210.001 21.055 210.001 20.969 210.001C20.8831 210.001 20.7969 210.001 20.7104 210.001C20.6239 210.001 20.5371 210.001 20.4501 210.001C20.3631 210.001 20.2758 210.001 20.1883 210.001C20.1008 210.001 20.0129 210.001 19.9249 210.001C19.8368 210.001 19.7484 210.001 19.6598 210.001C19.5712 210.001 19.4823 210.001 19.3931 210.001C19.304 210.001 19.2146 210.001 19.1249 210.001C19.0352 210.001 18.9452 210.001 18.8549 210.001C18.7647 210.001 18.6742 210.001 18.5834 210.001C18.4926 210.001 18.4015 210.001 18.3102 210.001C18.2189 210.001 18.1273 210.001 18.0354 210.001C17.9435 210.001 17.8513 210.001 17.7589 210.001C17.6664 210.001 17.5737 210.001 17.4807 210.001C17.3877 210.001 17.2945 210.001 17.2009 210.001C17.1074 210.001 17.0135 210.001 16.9194 210.001C16.8253 210.001 16.7309 210.001 16.6363 210.001C16.5416 210.001 16.4466 210.001 16.3514 210.001C16.2562 210.001 16.1607 210.001 16.0649 210.001C15.9691 210.001 15.873 210.001 15.7766 210.001C15.6802 210.001 15.5836 210.001 15.4867 210.001C15.3897 210.001 15.2925 210.001 15.195 210.001C15.0975 210.001 14.9997 210.001 14.9016 210.001C14.8035 210.001 14.7052 210.001 14.6065 210.001C14.5079 210.001 14.4089 210.001 14.3097 210.001C14.2105 210.001 14.1109 210.001 14.0111 210.001C13.9113 210.001 13.8112 210.001 13.7108 210.001C13.6104 210.001 13.5097 210.001 13.4088 210.001C13.3078 210.001 13.2065 210.001 13.1049 210.001C13.0034 210.001 12.9015 210.001 12.7994 210.001C12.6972 210.001 12.5948 210.001 12.492 210.001C12.3893 210.001 12.2862 210.001 12.1829 210.001C12.0796 210.001 11.9759 210.001 11.872 210.001C11.7681 210.001 11.6639 210.001 11.5593 210.001C11.4548 210.001 11.35 210.001 11.2448 210.001C11.1397 210.001 11.0343 210.001 10.9286 210.001C10.8228 210.001 10.7168 210.001 10.6105 210.001C10.5041 210.001 10.3975 210.001 10.2906 210.001C10.1836 210.001 10.0764 210.001 9.96886 210.001C9.86132 210.001 9.75347 210.001 9.64532 210.001C9.53717 210.001 9.42871 210.001 9.31994 210.001C9.21118 210.001 9.10211 210.001 8.99273 210.001C8.88335 210.001 8.77367 210.001 8.66367 210.001C8.55368 210.001 8.44338 210.001 8.33277 210.001C8.22215 210.001 8.11123 210.001 8 210.001V211.501ZM96.8923 231.501H95.3923V435H96.8923H98.3923V231.501H96.8923ZM116.892 455V456.5H852V455V453.5H116.892V455ZM872 435H873.5V8H872H870.5V435H872ZM852 455V456.5C863.874 456.5 873.5 446.874 873.5 435H872H870.5C870.5 445.217 862.217 453.5 852 453.5V455ZM96.8923 435H95.3923C95.3923 446.874 105.018 456.5 116.892 456.5V455V453.5C106.675 453.5 98.3923 445.217 98.3923 435H96.8923ZM76.8839 211.501V213.001C87.102 213.001 95.3923 221.285 95.3923 231.501H96.8923H98.3923C98.3923 219.627 88.7572 210.001 76.8839 210.001V211.501Z" fill="#C12930"/>
</svg>
