<svg width="366" height="449" viewBox="0 0 366 449" fill="none" xmlns="http://www.w3.org/2000/svg">
<path d="M366 8C366 12.4183 362.418 16 358 16C353.582 16 350 12.4183 350 8C350 3.58172 353.582 0 358 0C362.418 0 366 3.58172 366 8ZM16 441C16 445.418 12.4183 449 8 449C3.58173 449 0 445.418 0 441C0 436.582 3.58173 433 8 433C12.4183 433 16 436.582 16 441ZM358 8H359.5V120.231H358H356.5V8H358ZM338 140.231V141.731H28V140.231V138.731H338V140.231ZM8 160.231H9.5V441H8H6.5V160.231H8ZM28 140.231V141.731C17.7827 141.731 9.5 150.013 9.5 160.231H8H6.5C6.5 148.357 16.1259 138.731 28 138.731V140.231ZM358 120.231H359.5C359.5 132.105 349.874 141.731 338 141.731V140.231V138.731C348.217 138.731 356.5 130.448 356.5 120.231H358Z" fill="#C12930"/>
</svg>
