<svg width="484" height="288" viewBox="0 0 484 288" fill="none" xmlns="http://www.w3.org/2000/svg">
<path d="M484 8C484 12.4183 480.418 16 476 16C471.582 16 468 12.4183 468 8C468 3.58172 471.582 0 476 0C480.418 0 484 3.58172 484 8ZM16 280C16 284.418 12.4183 288 8 288C3.58173 288 0 284.418 0 280C0 275.582 3.58173 272 8 272C12.4183 272 16 275.582 16 280ZM476 8H477.5V193.308H476H474.5V8H476ZM456 213.308V214.808H28V213.308V211.808H456V213.308ZM8 233.308H9.5V280H8H6.5V233.308H8ZM28 213.308V214.808C17.7827 214.808 9.5 223.09 9.5 233.308H8H6.5C6.5 221.434 16.1259 211.808 28 211.808V213.308ZM476 193.308H477.5C477.5 205.182 467.874 214.808 456 214.808V213.308V211.808C466.217 211.808 474.5 203.525 474.5 193.308H476Z" fill="#C12930"/>
</svg>
