<svg width="422" height="336" viewBox="0 0 422 336" fill="none" xmlns="http://www.w3.org/2000/svg">
<path d="M422 8C422 12.4183 418.418 16 414 16C409.582 16 406 12.4183 406 8C406 3.58172 409.582 0 414 0C418.418 0 422 3.58172 422 8ZM16 328C16 332.418 12.4183 336 8 336C3.58173 336 0 332.418 0 328C0 323.582 3.58173 320 8 320C12.4183 320 16 323.582 16 328ZM414 8H415.5V209.538H414H412.5V8H414ZM394 229.538V231.038H28V229.538V228.038H394V229.538ZM8 249.538H9.5V328H8H6.5V249.538H8ZM28 229.538V231.038C17.7827 231.038 9.5 239.321 9.5 249.538H8H6.5C6.5 237.664 16.1259 228.038 28 228.038V229.538ZM414 209.538H415.5C415.5 221.413 405.874 231.038 394 231.038V229.538V228.038C404.217 228.038 412.5 219.756 412.5 209.538H414Z" fill="#C12930"/>
</svg>
