<svg width="855" height="562" viewBox="0 0 855 562" fill="none" xmlns="http://www.w3.org/2000/svg">
<path d="M0 8C0 12.4183 3.58172 16 8 16C12.4183 16 16 12.4183 16 8C16 3.58172 12.4183 0 8 0C3.58172 0 0 3.58172 0 8ZM838.5 554C838.5 558.418 842.082 562 846.5 562C850.918 562 854.5 558.418 854.5 554C854.5 549.582 850.918 546 846.5 546C842.082 546 838.5 549.582 838.5 554ZM8 8V9.5H826.5V8V6.5H8V8ZM846.5 28H845V554H846.5H848V28H846.5ZM826.5 8V9.5C836.717 9.5 845 17.7827 845 28H846.5H848C848 16.1259 838.374 6.5 826.5 6.5V8Z" fill="#C12930"/>
</svg>
