<svg width="1614" height="586" viewBox="0 0 1614 586" fill="none" xmlns="http://www.w3.org/2000/svg">
<path d="M0 8C0 12.4183 3.58172 16 8 16C12.4183 16 16 12.4183 16 8C16 3.58172 12.4183 0 8 0C3.58172 0 0 3.58172 0 8ZM1598 578C1598 582.418 1601.58 586 1606 586C1610.42 586 1614 582.418 1614 578C1614 573.582 1610.42 570 1606 570C1601.58 570 1598 573.582 1598 578ZM8 8H6.5V405.5H8H9.5V8H8ZM28 425.5V427H1586V425.5V424H28V425.5ZM1606 445.5H1604.5V578H1606H1607.5V445.5H1606ZM1586 425.5V427C1596.22 427 1604.5 435.283 1604.5 445.5H1606H1607.5C1607.5 433.626 1597.87 424 1586 424V425.5ZM8 405.5H6.5C6.5 417.374 16.1259 427 28 427V425.5V424C17.7827 424 9.5 415.717 9.5 405.5H8Z" fill="#C12930"/>
</svg>
