<svg width="586" height="421" viewBox="0 0 586 421" fill="none" xmlns="http://www.w3.org/2000/svg">
<path d="M0 8C0 12.4183 3.58172 16 8 16C12.4183 16 16 12.4183 16 8C16 3.58172 12.4183 0 8 0C3.58172 0 0 3.58172 0 8ZM569.5 412.5C569.5 416.918 573.082 420.5 577.5 420.5C581.918 420.5 585.5 416.918 585.5 412.5C585.5 408.082 581.918 404.5 577.5 404.5C573.082 404.5 569.5 408.082 569.5 412.5ZM8 8H6.5V298.5H8H9.5V8H8ZM28 318.5V320H557.5V318.5V317H28V318.5ZM577.5 338.5H576V412.5H577.5H579V338.5H577.5ZM557.5 318.5V320C567.717 320 576 328.283 576 338.5H577.5H579C579 326.626 569.374 317 557.5 317V318.5ZM8 298.5H6.5C6.5 310.374 16.1259 320 28 320V318.5V317C17.7827 317 9.5 308.717 9.5 298.5H8Z" fill="#C12930"/>
</svg>
