<svg width="1611" height="416" viewBox="0 0 1611 416" fill="none" xmlns="http://www.w3.org/2000/svg">
<path d="M652.693 8C652.693 12.4183 656.275 16 660.693 16C665.111 16 668.693 12.4183 668.693 8C668.693 3.58172 665.111 0 660.693 0C656.275 0 652.693 3.58172 652.693 8ZM1595 408C1595 412.418 1598.58 416 1603 416C1607.42 416 1611 412.418 1611 408C1611 403.582 1607.42 400 1603 400C1598.58 400 1595 403.582 1595 408ZM660.693 8V6.5H21.5V8V9.5H660.693V8ZM1.5 28H0V388H1.5H3V28H1.5ZM21.5 408V409.5H1603V408V406.5H21.5V408ZM1.5 388H0C0 399.874 9.62588 409.5 21.5 409.5V408V406.5C11.2827 406.5 3 398.217 3 388H1.5ZM21.5 8V6.5C9.62588 6.5 0 16.1259 0 28H1.5H3C3 17.7827 11.2827 9.5 21.5 9.5V8Z" fill="#C12930"/>
</svg>
