<svg width="586" height="414" viewBox="0 0 586 414" fill="none" xmlns="http://www.w3.org/2000/svg">
<path d="M585.5 8C585.5 12.4183 581.918 16 577.5 16C573.082 16 569.5 12.4183 569.5 8C569.5 3.58172 573.082 0 577.5 0C581.918 0 585.5 3.58172 585.5 8ZM16 406C16 410.418 12.4183 414 8 414C3.58173 414 0 410.418 0 406C0 401.582 3.58173 398 8 398C12.4183 398 16 401.582 16 406ZM577.5 8H579V298.5H577.5H576V8H577.5ZM557.5 318.5V320H28V318.5V317H557.5V318.5ZM8 338.5H9.5V406H8H6.5V338.5H8ZM28 318.5V320C17.7827 320 9.5 328.283 9.5 338.5H8H6.5C6.5 326.626 16.1259 317 28 317V318.5ZM577.5 298.5H579C579 310.374 569.374 320 557.5 320V318.5V317C567.717 317 576 308.717 576 298.5H577.5Z" fill="#C12930"/>
</svg>
