<svg width="22" height="585" viewBox="0 0 22 585" fill="none" xmlns="http://www.w3.org/2000/svg">
<path d="M0.000445843 8.08447C0.0470999 12.5025 3.66644 16.0462 8.08447 15.9996C12.5025 15.9529 16.0462 12.3336 15.9996 7.91553C15.9529 3.49749 12.3336 -0.0462082 7.91553 0.000445843C3.49749 0.0470999 -0.0462082 3.66644 0.000445843 8.08447ZM6.00047 576.273C6.04712 580.691 9.66646 584.235 14.0845 584.188C18.5025 584.141 22.0462 580.522 21.9996 576.104C21.9529 571.686 18.3336 568.142 13.9155 568.189C9.49751 568.236 5.95381 571.855 6.00047 576.273ZM8 8L6.50008 8.01584L12.5001 576.204L14 576.188L15.4999 576.173L9.49992 7.98416L8 8Z" fill="#F7F9FC"/>
</svg>
