<svg width="1231" height="761" viewBox="0 0 1231 761" fill="none" xmlns="http://www.w3.org/2000/svg">
<path d="M0 753C0 757.418 3.58172 761 8 761C12.4183 761 16 757.418 16 753C16 748.582 12.4183 745 8 745C3.58172 745 0 748.582 0 753ZM874.541 8C874.541 12.4183 878.122 16 882.541 16C886.959 16 890.541 12.4183 890.541 8C890.541 3.58172 886.959 0 882.541 0C878.122 0 874.541 3.58172 874.541 8ZM8 753V754.5H1209V753V751.5H8V753ZM1229 733H1230.5V28H1229H1227.5V733H1229ZM1209 8V6.5H882.541V8V9.5H1209V8ZM1229 28H1230.5C1230.5 16.1259 1220.87 6.5 1209 6.5V8V9.5C1219.22 9.5 1227.5 17.7827 1227.5 28H1229ZM1209 753V754.5C1220.87 754.5 1230.5 744.874 1230.5 733H1229H1227.5C1227.5 743.217 1219.22 751.5 1209 751.5V753Z" fill="#F7F9FC"/>
</svg>
