<svg width="1423" height="518" viewBox="0 0 1423 518" fill="none" xmlns="http://www.w3.org/2000/svg">
<path d="M0 95.3045C0 99.7228 3.58172 103.305 8 103.305C12.4183 103.305 16 99.7228 16 95.3045C16 90.8862 12.4183 87.3045 8 87.3045C3.58172 87.3045 0 90.8862 0 95.3045ZM1020 8C1020 12.4183 1023.58 16 1028 16C1032.42 16 1036 12.4183 1036 8C1036 3.58172 1032.42 0 1028 0C1023.58 0 1020 3.58172 1020 8ZM8 95.3045H6.5V496H8H9.5V95.3045H8ZM28 516V517.5H1401.5V516V514.5H28V516ZM1421.5 496H1423V28H1421.5H1420V496H1421.5ZM1401.5 8V6.5H1028V8V9.5H1401.5V8ZM1421.5 28H1423C1423 16.1259 1413.37 6.5 1401.5 6.5V8V9.5C1411.72 9.5 1420 17.7827 1420 28H1421.5ZM1401.5 516V517.5C1413.37 517.5 1423 507.874 1423 496H1421.5H1420C1420 506.217 1411.72 514.5 1401.5 514.5V516ZM8 496H6.5C6.5 507.874 16.1259 517.5 28 517.5V516V514.5C17.7827 514.5 9.5 506.217 9.5 496H8Z" fill="#F7F9FC"/>
</svg>
