<svg width="1479" height="518" viewBox="0 0 1479 518" fill="none" xmlns="http://www.w3.org/2000/svg">
<path d="M0 239.5C0 243.918 3.58172 247.5 8 247.5C12.4183 247.5 16 243.918 16 239.5C16 235.082 12.4183 231.5 8 231.5C3.58172 231.5 0 235.082 0 239.5ZM1462.5 8C1462.5 12.4183 1466.08 16 1470.5 16C1474.92 16 1478.5 12.4183 1478.5 8C1478.5 3.58172 1474.92 0 1470.5 0C1466.08 0 1462.5 3.58172 1462.5 8ZM8 239.5V241C8.2021 241 8.40404 241 8.60582 241C8.8076 241 9.00922 241 9.21067 241C9.41213 241 9.61342 241 9.81455 241C10.0157 241 10.2167 241 10.4175 241C10.6183 241 10.8189 241 11.0194 241C11.2199 241 11.4202 241 11.6204 241C11.8206 241 12.0206 241 12.2205 241C12.4203 241 12.62 241 12.8196 241C13.0191 241 13.2185 241 13.4177 241C13.6169 241 13.816 241 14.0149 241C14.2138 241 14.4126 241 14.6112 241C14.8098 241 15.0082 241 15.2065 241C15.4048 241 15.6029 241 15.8009 241C15.9988 241 16.1967 241 16.3943 241C16.592 241 16.7895 241 16.9869 241C17.1842 241 17.3814 241 17.5785 241C17.7755 241 17.9724 241 18.1692 241C18.3659 241 18.5625 241 18.759 241C18.9554 241 19.1517 241 19.3478 241C19.544 241 19.7399 241 19.9358 241C20.1316 241 20.3273 241 20.5228 241C20.7184 241 20.9137 241 21.109 241C21.3042 241 21.4993 241 21.6942 241C21.8892 241 22.084 241 22.2786 241C22.4732 241 22.6677 241 22.8621 241C23.0564 241 23.2506 241 23.4447 241C23.6387 241 23.8326 241 24.0264 241C24.2201 241 24.4137 241 24.6072 241C24.8006 241 24.994 241 25.1871 241C25.3803 241 25.5733 241 25.7662 241C25.9591 241 26.1518 241 26.3444 241C26.537 241 26.7295 241 26.9218 241C27.1141 241 27.3062 241 27.4982 241C27.6903 241 27.8821 241 28.0739 241C28.2656 241 28.4572 241 28.6486 241C28.8401 241 29.0314 241 29.2225 241C29.4137 241 29.6047 241 29.7956 241C29.9865 241 30.1772 241 30.3678 241C30.5584 241 30.7489 241 30.9392 241C31.1295 241 31.3197 241 31.5098 241C31.6998 241 31.8897 241 32.0795 241C32.2693 241 32.4589 241 32.6484 241C32.8379 241 33.0272 241 33.2164 241C33.4057 241 33.5947 241 33.7837 241C33.9726 241 34.1614 241 34.3501 241C34.5388 241 34.7273 241 34.9157 241C35.1041 241 35.2924 241 35.4805 241C35.6686 241 35.8566 241 36.0445 241C36.2323 241 36.4201 241 36.6077 241C36.7953 241 36.9827 241 37.17 241C37.3574 241 37.5446 241 37.7316 241C37.9187 241 38.1056 241 38.2924 241C38.4792 241 38.6659 241 38.8524 241C39.039 241 39.2254 241 39.4116 241C39.5979 241 39.7841 241 39.9701 241C40.1561 241 40.342 241 40.5277 241C40.7135 241 40.8991 241 41.0846 241C41.2701 241 41.4555 241 41.6407 241C41.8259 241 42.011 241 42.196 241C42.381 241 42.5659 241 42.7506 241C42.9353 241 43.1199 241 43.3044 241C43.4889 241 43.6732 241 43.8575 241C44.0417 241 44.2258 241 44.4098 241C44.5937 241 44.7776 241 44.9613 241C45.145 241 45.3286 241 45.5121 241C45.6956 241 45.8789 241 46.0622 241C46.2454 241 46.4285 241 46.6115 241C46.7945 241 46.9773 241 47.1601 241C47.3428 241 47.5254 241 47.7079 241C47.8904 241 48.0728 241 48.255 241C48.4373 241 48.6194 241 48.8014 241C48.9834 241 49.1653 241 49.3471 241C49.5288 241 49.7105 241 49.892 241C50.0736 241 50.255 241 50.4363 241C50.6176 241 50.7987 241 50.9798 241C51.1608 241 51.3418 241 51.5226 241C51.7034 241 51.8841 241 52.0647 241C52.2453 241 52.4258 241 52.6061 241C52.7865 241 52.9667 241 53.1468 241C53.327 241 53.507 241 53.6869 241C53.8668 241 54.0465 241 54.2262 241C54.4059 241 54.5854 241 54.7648 241C54.9443 241 55.1236 241 55.3028 241C55.482 241 55.6611 241 55.8401 241C56.0191 241 56.1979 241 56.3767 241C56.5554 241 56.7341 241 56.9126 241C57.0912 241 57.2696 241 57.4479 241C57.6262 241 57.8044 241 57.9825 241C58.1606 241 58.3386 241 58.5164 241C58.6943 241 58.8721 241 59.0497 241C59.2274 241 59.4049 241 59.5823 241C59.7598 241 59.9371 241 60.1143 241C60.2915 241 60.4687 241 60.6457 241C60.8227 241 60.9996 241 61.1763 241C61.3531 241 61.5298 241 61.7064 241C61.883 241 62.0594 241 62.2358 241C62.4122 241 62.5884 241 62.7646 241C62.9407 241 63.1168 241 63.2927 241C63.4687 241 63.6445 241 63.8203 241C63.996 241 64.1716 241 64.3472 241C64.5227 241 64.6981 241 64.8734 241C65.0488 241 65.224 241 65.3991 241C65.5742 241 65.7493 241 65.9242 241C66.0991 241 66.2739 241 66.4486 241C66.6233 241 66.798 241 66.9725 241C67.147 241 67.3214 241 67.4957 241C67.67 241 67.8442 241 68.0184 241C68.1925 241 68.3665 241 68.5404 241C68.7143 241 68.8882 241 69.0619 241C69.2356 241 69.4092 241 69.5828 241C69.7563 241 69.9297 241 70.1031 241C70.2764 241 70.4496 241 70.6228 241C70.7959 241 70.969 241 71.1419 241C71.3149 241 71.4877 241 71.6605 241C71.8333 241 72.0059 241 72.1785 241C72.3511 241 72.5235 241 72.6959 241C72.8683 241 73.0406 241 73.2128 241C73.385 241 73.5571 241 73.7291 241C73.9011 241 74.0731 241 74.2449 241C74.4167 241 74.5885 241 74.7601 241C74.9318 241 75.1033 241 75.2748 241C75.4462 241 75.6176 241 75.7889 241C75.9602 241 76.1314 241 76.3025 241C76.4736 241 76.6446 241 76.8155 241C76.9865 241 77.1573 241 77.328 241C77.4988 241 77.6695 241 77.84 241C78.0106 241 78.1811 241 78.3515 241C78.5219 241 78.6922 241 78.8624 241C79.0327 241 79.2028 241 79.3729 241C79.5429 241 79.7129 241 79.8828 241C80.0526 241 80.2224 241 80.3922 241C80.5619 241 80.7315 241 80.901 241C81.0706 241 81.2401 241 81.4094 241C81.5788 241 81.7481 241 81.9173 241C82.0865 241 82.2557 241 82.4247 241C82.5937 241 82.7627 241 82.9316 241C83.1005 241 83.2693 241 83.438 241C83.6067 241 83.7754 241 83.9439 241C84.1125 241 84.281 241 84.4494 241C84.6178 241 84.7861 241 84.9543 241C85.1225 241 85.2907 241 85.4588 241C85.6269 241 85.7949 241 85.9628 241C86.1307 241 86.2986 241 86.4663 241C86.6341 241 86.8018 241 86.9694 241C87.137 241 87.3046 241 87.472 241C87.6395 241 87.8069 241 87.9742 241C88.1415 241 88.3087 241 88.4759 241C88.6431 241 88.8101 241 88.9771 241C89.1442 241 89.3111 241 89.478 241C89.6448 241 89.8116 241 89.9783 241C90.145 241 90.3117 241 90.4782 241C90.6448 241 90.8113 241 90.9777 241C91.1442 241 91.3105 241 91.4768 241C91.6431 241 91.8093 241 91.9754 241C92.1416 241 92.3076 241 92.4736 241C92.6396 241 92.8055 241 92.9714 241C93.1373 241 93.303 241 93.4688 241C93.6345 241 93.8001 241 93.9657 241C94.1313 241 94.2968 241 94.4622 241C94.6277 241 94.7931 241 94.9584 241C95.1237 241 95.2889 241 95.4541 241C95.6193 241 95.7844 241 95.9494 241C96.1145 241 96.2794 241 96.4443 241C96.6093 241 96.7741 241 96.9389 241C97.1037 241 97.2684 241 97.433 241C97.5977 241 97.7623 241 97.9268 241C98.0913 241 98.2558 241 98.4202 241C98.5846 241 98.7489 241 98.9132 241C99.0774 241 99.2416 241 99.4058 241C99.5699 241 99.734 241 99.898 241C100.062 241 100.226 241 100.39 241C100.554 241 100.718 241 100.881 241C101.045 241 101.209 241 101.373 241C101.536 241 101.7 241 101.863 241C102.027 241 102.19 241 102.354 241C102.517 241 102.681 241 102.844 241C103.007 241 103.17 241 103.334 241C103.497 241 103.66 241 103.823 241C103.986 241 104.149 241 104.312 241C104.475 241 104.638 241 104.801 241C104.964 241 105.127 241 105.289 241C105.452 241 105.615 241 105.777 241C105.94 241 106.103 241 106.265 241C106.428 241 106.59 241 106.753 241C106.915 241 107.077 241 107.24 241C107.402 241 107.564 241 107.726 241C107.889 241 108.051 241 108.213 241C108.375 241 108.537 241 108.699 241C108.861 241 109.023 241 109.185 241C109.347 241 109.509 241 109.671 241C109.832 241 109.994 241 110.156 241C110.317 241 110.479 241 110.641 241C110.802 241 110.964 241 111.125 241C111.287 241 111.448 241 111.61 241C111.771 241 111.933 241 112.094 241C112.255 241 112.417 241 112.578 241C112.739 241 112.9 241 113.061 241C113.223 241 113.384 241 113.545 241C113.706 241 113.867 241 114.028 241C114.189 241 114.35 241 114.51 241C114.671 241 114.832 241 114.993 241C115.154 241 115.315 241 115.475 241C115.636 241 115.797 241 115.957 241C116.118 241 116.278 241 116.439 241C116.6 241 116.76 241 116.92 241C117.081 241 117.241 241 117.402 241C117.562 241 117.722 241 117.883 241C118.043 241 118.203 241 118.364 241C118.524 241 118.684 241 118.844 241C119.004 241 119.164 241 119.324 241C119.484 241 119.644 241 119.804 241C119.964 241 120.124 241 120.284 241C120.444 241 120.604 241 120.764 241C120.924 241 121.084 241 121.243 241C121.403 241 121.563 241 121.723 241C121.882 241 122.042 241 122.202 241C122.361 241 122.521 241 122.68 241C122.84 241 123 241 123.159 241C123.319 241 123.478 241 123.638 241C123.797 241 123.956 241 124.116 241C124.275 241 124.434 241 124.594 241C124.753 241 124.912 241 125.072 241C125.231 241 125.39 241 125.549 241C125.709 241 125.868 241 126.027 241C126.186 241 126.345 241 126.504 241C126.663 241 126.822 241 126.981 241C127.14 241 127.299 241 127.458 241C127.617 241 127.776 241 127.935 241C128.094 241 128.253 241 128.412 241C128.571 241 128.729 241 128.888 241C129.047 241 129.206 241 129.365 241C129.523 241 129.682 241 129.841 241C129.999 241 130.158 241 130.317 241C130.475 241 130.634 241 130.793 241C130.951 241 131.11 241 131.268 241C131.427 241 131.586 241 131.744 241C131.903 241 132.061 241 132.22 241C132.378 241 132.537 241 132.695 241C132.853 241 133.012 241 133.17 241C133.329 241 133.487 241 133.645 241C133.804 241 133.962 241 134.12 241C134.279 241 134.437 241 134.595 241C134.753 241 134.912 241 135.07 241C135.228 241 135.386 241 135.545 241C135.703 241 135.861 241 136.019 241C136.177 241 136.336 241 136.494 241C136.652 241 136.81 241 136.968 241C137.126 241 137.284 241 137.442 241C137.6 241 137.758 241 137.917 241C138.075 241 138.233 241 138.391 241C138.549 241 138.707 241 138.865 241C139.023 241 139.181 241 139.339 241C139.497 241 139.655 241 139.812 241C139.97 241 140.128 241 140.286 241C140.444 241 140.602 241 140.76 241C140.918 241 141.076 241 141.234 241C141.392 241 141.549 241 141.707 241C141.865 241 142.023 241 142.181 241C142.339 241 142.496 241 142.654 241C142.812 241 142.97 241 143.128 241C143.286 241 143.443 241 143.601 241C143.759 241 143.917 241 144.075 241C144.232 241 144.39 241 144.548 241C144.706 241 144.863 241 145.021 241C145.179 241 145.337 241 145.494 241C145.652 241 145.81 241 145.968 241C146.125 241 146.283 241 146.441 241C146.599 241 146.756 241 146.914 241C147.072 241 147.229 241 147.387 241C147.545 241 147.703 241 147.86 241C148.018 241 148.176 241 148.333 241C148.491 241 148.649 241 148.807 241C148.964 241 149.122 241 149.28 241C149.437 241 149.595 241 149.753 241C149.91 241 150.068 241 150.226 241C150.384 241 150.541 241 150.699 241C150.857 241 151.014 241 151.172 241C151.33 241 151.488 241 151.645 241C151.803 241 151.961 241 152.118 241C152.276 241 152.434 241 152.592 241C152.749 241 152.907 241 153.065 241C153.223 241 153.38 241 153.538 241C153.696 241 153.854 241 154.011 241C154.169 241 154.327 241 154.485 241C154.643 241 154.8 241 154.958 241C155.116 241 155.274 241 155.432 241C155.589 241 155.747 241 155.905 241C156.063 241 156.221 241 156.378 241C156.536 241 156.694 241 156.852 241C157.01 241 157.168 241 157.326 241C157.484 241 157.641 241 157.799 241C157.957 241 158.115 241 158.273 241C158.431 241 158.589 241 158.747 241C158.905 241 159.063 241 159.221 241C159.379 241 159.537 241 159.695 241C159.853 241 160.011 241 160.169 241C160.327 241 160.485 241 160.643 241C160.801 241 160.959 241 161.117 241C161.275 241 161.433 241 161.591 241C161.749 241 161.908 241 162.066 241C162.224 241 162.382 241 162.54 241C162.698 241 162.857 241 163.015 241C163.173 241 163.331 241 163.489 241C163.648 241 163.806 241 163.964 241C164.123 241 164.281 241 164.439 241C164.597 241 164.756 241 164.914 241C165.073 241 165.231 241 165.389 241C165.548 241 165.706 241 165.865 241C166.023 241 166.181 241 166.34 241C166.498 241 166.657 241 166.815 241C166.974 241 167.133 241 167.291 241C167.45 241 167.608 241 167.767 241C167.926 241 168.084 241 168.243 241C168.401 241 168.56 241 168.719 241C168.878 241 169.036 241 169.195 241C169.354 241 169.513 241 169.671 241C169.83 241 169.989 241 170.148 241C170.307 241 170.466 241 170.625 241C170.784 241 170.943 241 171.101 241C171.26 241 171.419 241 171.578 241C171.738 241 171.897 241 172.056 241C172.215 241 172.374 241 172.533 241C172.692 241 172.851 241 173.011 241C173.17 241 173.329 241 173.488 241C173.647 241 173.807 241 173.966 241C174.125 241 174.285 241 174.444 241C174.604 241 174.763 241 174.922 241C175.082 241 175.241 241 175.401 241C175.56 241 175.72 241 175.879 241C176.039 241 176.199 241 176.358 241C176.518 241 176.678 241 176.837 241C176.997 241 177.157 241 177.317 241C177.476 241 177.636 241 177.796 241C177.956 241 178.116 241 178.276 241C178.436 241 178.596 241 178.756 241C178.916 241 179.076 241 179.236 241C179.396 241 179.556 241 179.716 241C179.876 241 180.036 241 180.197 241C180.357 241 180.517 241 180.678 241C180.838 241 180.998 241 181.159 241C181.319 241 181.479 241 181.64 241C181.8 241 181.961 241 182.121 241C182.282 241 182.443 241 182.603 241C182.764 241 182.924 241 183.085 241C183.246 241 183.407 241 183.567 241C183.728 241 183.889 241 184.05 241C184.211 241 184.372 241 184.533 241C184.694 241 184.855 241 185.016 241C185.177 241 185.338 241 185.499 241C185.66 241 185.822 241 185.983 241C186.144 241 186.305 241 186.467 241C186.628 241 186.789 241 186.951 241C187.112 241 187.274 241 187.435 241C187.597 241 187.758 241 187.92 241C188.082 241 188.243 241 188.405 241C188.567 241 188.728 241 188.89 241C189.052 241 189.214 241 189.376 241C189.538 241 189.7 241 189.862 241C190.024 241 190.186 241 190.348 241C190.51 241 190.672 241 190.835 241C190.997 241 191.159 241 191.321 241C191.484 241 191.646 241 191.809 241C191.971 241 192.133 241 192.296 241C192.459 241 192.621 241 192.784 241C192.946 241 193.109 241 193.272 241C193.435 241 193.597 241 193.76 241C193.923 241 194.086 241 194.249 241C194.412 241 194.575 241 194.738 241C194.901 241 195.064 241 195.228 241C195.391 241 195.554 241 195.717 241C195.881 241 196.044 241 196.208 241C196.371 241 196.535 241 196.698 241C196.862 241 197.025 241 197.189 241C197.353 241 197.516 241 197.68 241C197.844 241 198.008 241 198.172 241C198.336 241 198.5 241 198.664 241C198.828 241 198.992 241 199.156 241C199.32 241 199.484 241 199.649 241C199.813 241 199.977 241 200.142 241C200.306 241 200.471 241 200.635 241C200.8 241 200.964 241 201.129 241C201.294 241 201.458 241 201.623 241C201.788 241 201.953 241 202.118 241C202.283 241 202.448 241 202.613 241C202.778 241 202.943 241 203.108 241C203.273 241 203.438 241 203.604 241C203.769 241 203.934 241 204.1 241C204.265 241 204.431 241 204.597 241C204.762 241 204.928 241 205.094 241C205.259 241 205.425 241 205.591 241C205.757 241 205.923 241 206.089 241C206.255 241 206.421 241 206.587 241C206.753 241 206.919 241 207.086 241C207.252 241 207.418 241 207.585 241C207.751 241 207.918 241 208.084 241C208.251 241 208.418 241 208.584 241C208.751 241 208.918 241 209.085 241C209.252 241 209.419 241 209.586 241C209.753 241 209.92 241 210.087 241C210.254 241 210.421 241 210.589 241C210.756 241 210.923 241 211.091 241C211.258 241 211.426 241 211.594 241C211.761 241 211.929 241 212.097 241C212.264 241 212.432 241 212.6 241C212.768 241 212.936 241 213.104 241C213.272 241 213.441 241 213.609 241C213.777 241 213.946 241 214.114 241C214.282 241 214.451 241 214.619 241C214.788 241 214.957 241 215.125 241C215.294 241 215.463 241 215.632 241C215.801 241 215.97 241 216.139 241C216.308 241 216.477 241 216.646 241C216.816 241 216.985 241 217.154 241C217.324 241 217.493 241 217.663 241C217.832 241 218.002 241 218.172 241C218.341 241 218.511 241 218.681 241C218.851 241 219.021 241 219.191 241C219.361 241 219.531 241 219.702 241C219.872 241 220.042 241 220.213 241C220.383 241 220.553 241 220.724 241C220.895 241 221.065 241 221.236 241C221.407 241 221.578 241 221.749 241C221.92 241 222.091 241 222.262 241C222.433 241 222.604 241 222.775 241C222.947 241 223.118 241 223.29 241C223.461 241 223.633 241 223.804 241C223.976 241 224.148 241 224.32 241C224.492 241 224.663 241 224.836 241C225.008 241 225.18 241 225.352 241C225.524 241 225.696 241 225.869 241C226.041 241 226.214 241 226.386 241C226.559 241 226.732 241 226.904 241C227.077 241 227.25 241 227.423 241C227.596 241 227.769 241 227.942 241C228.115 241 228.289 241 228.462 241C228.635 241 228.809 241 228.982 241C229.156 241 229.33 241 229.503 241C229.677 241 229.851 241 230.025 241C230.199 241 230.373 241 230.547 241C230.721 241 230.895 241 231.07 241C231.244 241 231.419 241 231.593 241C231.768 241 231.942 241 232.117 241C232.292 241 232.467 241 232.642 241C232.817 241 232.992 241 233.167 241C233.342 241 233.517 241 233.692 241C233.868 241 234.043 241 234.219 241C234.394 241 234.57 241 234.746 241C234.922 241 235.097 241 235.273 241C235.449 241 235.625 241 235.802 241C235.978 241 236.154 241 236.33 241C236.507 241 236.683 241 236.86 241C237.037 241 237.213 241 237.39 241C237.567 241 237.744 241 237.921 241C238.098 241 238.275 241 238.452 241C238.63 241 238.807 241 238.984 241C239.162 241 239.339 241 239.517 241C239.695 241 239.873 241 240.05 241C240.228 241 240.406 241 240.584 241C240.763 241 240.941 241 241.119 241C241.297 241 241.476 241 241.654 241C241.833 241 242.012 241 242.19 241C242.369 241 242.548 241 242.727 241C242.906 241 243.085 241 243.265 241C243.444 241 243.623 241 243.803 241C243.982 241 244.162 241 244.341 241C244.521 241 244.701 241 244.881 241C245.061 241 245.241 241 245.421 241C245.601 241 245.781 241 245.962 241C246.142 241 246.323 241 246.503 241C246.684 241 246.865 241 247.045 241C247.226 241 247.407 241 247.588 241C247.769 241 247.951 241 248.132 241C248.313 241 248.495 241 248.676 241C248.858 241 249.039 241 249.221 241C249.403 241 249.585 241 249.767 241C249.949 241 250.131 241 250.313 241C250.496 241 250.678 241 250.861 241C251.043 241 251.226 241 251.409 241C251.591 241 251.774 241 251.957 241C252.14 241 252.323 241 252.507 241C252.69 241 252.873 241 253.057 241C253.24 241 253.424 241 253.608 241C253.791 241 253.975 241 254.159 241C254.343 241 254.528 241 254.712 241C254.896 241 255.08 241 255.265 241C255.449 241 255.634 241 255.819 241C256.004 241 256.188 241 256.373 241C256.559 241 256.744 241 256.929 241C257.114 241 257.3 241 257.485 241C257.671 241 257.856 241 258.042 241C258.228 241 258.414 241 258.6 241C258.786 241 258.972 241 259.158 241C259.345 241 259.531 241 259.718 241C259.904 241 260.091 241 260.278 241C260.465 241 260.652 241 260.839 241C261.026 241 261.213 241 261.4 241C261.588 241 261.775 241 261.963 241C262.15 241 262.338 241 262.526 241C262.714 241 262.902 241 263.09 241C263.278 241 263.467 241 263.655 241C263.844 241 264.032 241 264.221 241C264.41 241 264.598 241 264.787 241C264.976 241 265.165 241 265.355 241C265.544 241 265.733 241 265.923 241C266.112 241 266.302 241 266.492 241C266.682 241 266.872 241 267.062 241C267.252 241 267.442 241 267.632 241C267.823 241 268.013 241 268.204 241C268.394 241 268.585 241 268.776 241C268.967 241 269.158 241 269.349 241C269.54 241 269.732 241 269.923 241C270.115 241 270.306 241 270.498 241V239.5V238C270.306 238 270.115 238 269.923 238C269.732 238 269.54 238 269.349 238C269.158 238 268.967 238 268.776 238C268.585 238 268.394 238 268.204 238C268.013 238 267.823 238 267.632 238C267.442 238 267.252 238 267.062 238C266.872 238 266.682 238 266.492 238C266.302 238 266.112 238 265.923 238C265.733 238 265.544 238 265.355 238C265.165 238 264.976 238 264.787 238C264.598 238 264.41 238 264.221 238C264.032 238 263.844 238 263.655 238C263.467 238 263.278 238 263.09 238C262.902 238 262.714 238 262.526 238C262.338 238 262.15 238 261.963 238C261.775 238 261.588 238 261.4 238C261.213 238 261.026 238 260.839 238C260.652 238 260.465 238 260.278 238C260.091 238 259.904 238 259.718 238C259.531 238 259.345 238 259.158 238C258.972 238 258.786 238 258.6 238C258.414 238 258.228 238 258.042 238C257.856 238 257.671 238 257.485 238C257.3 238 257.114 238 256.929 238C256.744 238 256.559 238 256.373 238C256.188 238 256.004 238 255.819 238C255.634 238 255.449 238 255.265 238C255.08 238 254.896 238 254.712 238C254.528 238 254.343 238 254.159 238C253.975 238 253.791 238 253.608 238C253.424 238 253.24 238 253.057 238C252.873 238 252.69 238 252.507 238C252.323 238 252.14 238 251.957 238C251.774 238 251.591 238 251.409 238C251.226 238 251.043 238 250.861 238C250.678 238 250.496 238 250.313 238C250.131 238 249.949 238 249.767 238C249.585 238 249.403 238 249.221 238C249.039 238 248.858 238 248.676 238C248.495 238 248.313 238 248.132 238C247.951 238 247.769 238 247.588 238C247.407 238 247.226 238 247.045 238C246.865 238 246.684 238 246.503 238C246.323 238 246.142 238 245.962 238C245.781 238 245.601 238 245.421 238C245.241 238 245.061 238 244.881 238C244.701 238 244.521 238 244.341 238C244.162 238 243.982 238 243.803 238C243.623 238 243.444 238 243.265 238C243.085 238 242.906 238 242.727 238C242.548 238 242.369 238 242.19 238C242.012 238 241.833 238 241.654 238C241.476 238 241.297 238 241.119 238C240.941 238 240.763 238 240.584 238C240.406 238 240.228 238 240.05 238C239.873 238 239.695 238 239.517 238C239.339 238 239.162 238 238.984 238C238.807 238 238.63 238 238.452 238C238.275 238 238.098 238 237.921 238C237.744 238 237.567 238 237.39 238C237.213 238 237.037 238 236.86 238C236.683 238 236.507 238 236.33 238C236.154 238 235.978 238 235.802 238C235.625 238 235.449 238 235.273 238C235.097 238 234.922 238 234.746 238C234.57 238 234.394 238 234.219 238C234.043 238 233.868 238 233.692 238C233.517 238 233.342 238 233.167 238C232.992 238 232.817 238 232.642 238C232.467 238 232.292 238 232.117 238C231.942 238 231.768 238 231.593 238C231.419 238 231.244 238 231.07 238C230.895 238 230.721 238 230.547 238C230.373 238 230.199 238 230.025 238C229.851 238 229.677 238 229.503 238C229.33 238 229.156 238 228.982 238C228.809 238 228.635 238 228.462 238C228.289 238 228.115 238 227.942 238C227.769 238 227.596 238 227.423 238C227.25 238 227.077 238 226.904 238C226.732 238 226.559 238 226.386 238C226.214 238 226.041 238 225.869 238C225.696 238 225.524 238 225.352 238C225.18 238 225.008 238 224.836 238C224.663 238 224.492 238 224.32 238C224.148 238 223.976 238 223.804 238C223.633 238 223.461 238 223.29 238C223.118 238 222.947 238 222.775 238C222.604 238 222.433 238 222.262 238C222.091 238 221.92 238 221.749 238C221.578 238 221.407 238 221.236 238C221.065 238 220.895 238 220.724 238C220.553 238 220.383 238 220.213 238C220.042 238 219.872 238 219.702 238C219.531 238 219.361 238 219.191 238C219.021 238 218.851 238 218.681 238C218.511 238 218.341 238 218.172 238C218.002 238 217.832 238 217.663 238C217.493 238 217.324 238 217.154 238C216.985 238 216.816 238 216.646 238C216.477 238 216.308 238 216.139 238C215.97 238 215.801 238 215.632 238C215.463 238 215.294 238 215.125 238C214.957 238 214.788 238 214.619 238C214.451 238 214.282 238 214.114 238C213.946 238 213.777 238 213.609 238C213.441 238 213.272 238 213.104 238C212.936 238 212.768 238 212.6 238C212.432 238 212.264 238 212.097 238C211.929 238 211.761 238 211.594 238C211.426 238 211.258 238 211.091 238C210.923 238 210.756 238 210.589 238C210.421 238 210.254 238 210.087 238C209.92 238 209.753 238 209.586 238C209.419 238 209.252 238 209.085 238C208.918 238 208.751 238 208.584 238C208.418 238 208.251 238 208.084 238C207.918 238 207.751 238 207.585 238C207.418 238 207.252 238 207.086 238C206.919 238 206.753 238 206.587 238C206.421 238 206.255 238 206.089 238C205.923 238 205.757 238 205.591 238C205.425 238 205.259 238 205.094 238C204.928 238 204.762 238 204.597 238C204.431 238 204.265 238 204.1 238C203.934 238 203.769 238 203.604 238C203.438 238 203.273 238 203.108 238C202.943 238 202.778 238 202.613 238C202.448 238 202.283 238 202.118 238C201.953 238 201.788 238 201.623 238C201.458 238 201.294 238 201.129 238C200.964 238 200.8 238 200.635 238C200.471 238 200.306 238 200.142 238C199.977 238 199.813 238 199.649 238C199.484 238 199.32 238 199.156 238C198.992 238 198.828 238 198.664 238C198.5 238 198.336 238 198.172 238C198.008 238 197.844 238 197.68 238C197.516 238 197.353 238 197.189 238C197.025 238 196.862 238 196.698 238C196.535 238 196.371 238 196.208 238C196.044 238 195.881 238 195.717 238C195.554 238 195.391 238 195.228 238C195.064 238 194.901 238 194.738 238C194.575 238 194.412 238 194.249 238C194.086 238 193.923 238 193.76 238C193.597 238 193.435 238 193.272 238C193.109 238 192.946 238 192.784 238C192.621 238 192.459 238 192.296 238C192.133 238 191.971 238 191.809 238C191.646 238 191.484 238 191.321 238C191.159 238 190.997 238 190.835 238C190.672 238 190.51 238 190.348 238C190.186 238 190.024 238 189.862 238C189.7 238 189.538 238 189.376 238C189.214 238 189.052 238 188.89 238C188.728 238 188.567 238 188.405 238C188.243 238 188.082 238 187.92 238C187.758 238 187.597 238 187.435 238C187.274 238 187.112 238 186.951 238C186.789 238 186.628 238 186.467 238C186.305 238 186.144 238 185.983 238C185.822 238 185.66 238 185.499 238C185.338 238 185.177 238 185.016 238C184.855 238 184.694 238 184.533 238C184.372 238 184.211 238 184.05 238C183.889 238 183.728 238 183.567 238C183.407 238 183.246 238 183.085 238C182.924 238 182.764 238 182.603 238C182.443 238 182.282 238 182.121 238C181.961 238 181.8 238 181.64 238C181.479 238 181.319 238 181.159 238C180.998 238 180.838 238 180.678 238C180.517 238 180.357 238 180.197 238C180.036 238 179.876 238 179.716 238C179.556 238 179.396 238 179.236 238C179.076 238 178.916 238 178.756 238C178.596 238 178.436 238 178.276 238C178.116 238 177.956 238 177.796 238C177.636 238 177.476 238 177.317 238C177.157 238 176.997 238 176.837 238C176.678 238 176.518 238 176.358 238C176.199 238 176.039 238 175.879 238C175.72 238 175.56 238 175.401 238C175.241 238 175.082 238 174.922 238C174.763 238 174.604 238 174.444 238C174.285 238 174.125 238 173.966 238C173.807 238 173.647 238 173.488 238C173.329 238 173.17 238 173.011 238C172.851 238 172.692 238 172.533 238C172.374 238 172.215 238 172.056 238C171.897 238 171.738 238 171.578 238C171.419 238 171.26 238 171.101 238C170.943 238 170.784 238 170.625 238C170.466 238 170.307 238 170.148 238C169.989 238 169.83 238 169.671 238C169.513 238 169.354 238 169.195 238C169.036 238 168.878 238 168.719 238C168.56 238 168.401 238 168.243 238C168.084 238 167.926 238 167.767 238C167.608 238 167.45 238 167.291 238C167.133 238 166.974 238 166.815 238C166.657 238 166.498 238 166.34 238C166.181 238 166.023 238 165.865 238C165.706 238 165.548 238 165.389 238C165.231 238 165.073 238 164.914 238C164.756 238 164.597 238 164.439 238C164.281 238 164.123 238 163.964 238C163.806 238 163.648 238 163.489 238C163.331 238 163.173 238 163.015 238C162.857 238 162.698 238 162.54 238C162.382 238 162.224 238 162.066 238C161.908 238 161.749 238 161.591 238C161.433 238 161.275 238 161.117 238C160.959 238 160.801 238 160.643 238C160.485 238 160.327 238 160.169 238C160.011 238 159.853 238 159.695 238C159.537 238 159.379 238 159.221 238C159.063 238 158.905 238 158.747 238C158.589 238 158.431 238 158.273 238C158.115 238 157.957 238 157.799 238C157.641 238 157.484 238 157.326 238C157.168 238 157.01 238 156.852 238C156.694 238 156.536 238 156.378 238C156.221 238 156.063 238 155.905 238C155.747 238 155.589 238 155.432 238C155.274 238 155.116 238 154.958 238C154.8 238 154.643 238 154.485 238C154.327 238 154.169 238 154.011 238C153.854 238 153.696 238 153.538 238C153.38 238 153.223 238 153.065 238C152.907 238 152.749 238 152.592 238C152.434 238 152.276 238 152.118 238C151.961 238 151.803 238 151.645 238C151.488 238 151.33 238 151.172 238C151.014 238 150.857 238 150.699 238C150.541 238 150.384 238 150.226 238C150.068 238 149.91 238 149.753 238C149.595 238 149.437 238 149.28 238C149.122 238 148.964 238 148.807 238C148.649 238 148.491 238 148.333 238C148.176 238 148.018 238 147.86 238C147.703 238 147.545 238 147.387 238C147.229 238 147.072 238 146.914 238C146.756 238 146.599 238 146.441 238C146.283 238 146.125 238 145.968 238C145.81 238 145.652 238 145.494 238C145.337 238 145.179 238 145.021 238C144.863 238 144.706 238 144.548 238C144.39 238 144.232 238 144.075 238C143.917 238 143.759 238 143.601 238C143.443 238 143.286 238 143.128 238C142.97 238 142.812 238 142.654 238C142.496 238 142.339 238 142.181 238C142.023 238 141.865 238 141.707 238C141.549 238 141.392 238 141.234 238C141.076 238 140.918 238 140.76 238C140.602 238 140.444 238 140.286 238C140.128 238 139.97 238 139.812 238C139.655 238 139.497 238 139.339 238C139.181 238 139.023 238 138.865 238C138.707 238 138.549 238 138.391 238C138.233 238 138.075 238 137.917 238C137.758 238 137.6 238 137.442 238C137.284 238 137.126 238 136.968 238C136.81 238 136.652 238 136.494 238C136.336 238 136.177 238 136.019 238C135.861 238 135.703 238 135.545 238C135.386 238 135.228 238 135.07 238C134.912 238 134.753 238 134.595 238C134.437 238 134.279 238 134.12 238C133.962 238 133.804 238 133.645 238C133.487 238 133.329 238 133.17 238C133.012 238 132.853 238 132.695 238C132.537 238 132.378 238 132.22 238C132.061 238 131.903 238 131.744 238C131.586 238 131.427 238 131.268 238C131.11 238 130.951 238 130.793 238C130.634 238 130.475 238 130.317 238C130.158 238 129.999 238 129.841 238C129.682 238 129.523 238 129.365 238C129.206 238 129.047 238 128.888 238C128.729 238 128.571 238 128.412 238C128.253 238 128.094 238 127.935 238C127.776 238 127.617 238 127.458 238C127.299 238 127.14 238 126.981 238C126.822 238 126.663 238 126.504 238C126.345 238 126.186 238 126.027 238C125.868 238 125.709 238 125.549 238C125.39 238 125.231 238 125.072 238C124.912 238 124.753 238 124.594 238C124.434 238 124.275 238 124.116 238C123.956 238 123.797 238 123.638 238C123.478 238 123.319 238 123.159 238C123 238 122.84 238 122.68 238C122.521 238 122.361 238 122.202 238C122.042 238 121.882 238 121.723 238C121.563 238 121.403 238 121.243 238C121.084 238 120.924 238 120.764 238C120.604 238 120.444 238 120.284 238C120.124 238 119.964 238 119.804 238C119.644 238 119.484 238 119.324 238C119.164 238 119.004 238 118.844 238C118.684 238 118.524 238 118.364 238C118.203 238 118.043 238 117.883 238C117.722 238 117.562 238 117.402 238C117.241 238 117.081 238 116.92 238C116.76 238 116.6 238 116.439 238C116.278 238 116.118 238 115.957 238C115.797 238 115.636 238 115.475 238C115.315 238 115.154 238 114.993 238C114.832 238 114.671 238 114.51 238C114.35 238 114.189 238 114.028 238C113.867 238 113.706 238 113.545 238C113.384 238 113.223 238 113.061 238C112.9 238 112.739 238 112.578 238C112.417 238 112.255 238 112.094 238C111.933 238 111.771 238 111.61 238C111.448 238 111.287 238 111.125 238C110.964 238 110.802 238 110.641 238C110.479 238 110.317 238 110.156 238C109.994 238 109.832 238 109.671 238C109.509 238 109.347 238 109.185 238C109.023 238 108.861 238 108.699 238C108.537 238 108.375 238 108.213 238C108.051 238 107.889 238 107.726 238C107.564 238 107.402 238 107.24 238C107.077 238 106.915 238 106.753 238C106.59 238 106.428 238 106.265 238C106.103 238 105.94 238 105.777 238C105.615 238 105.452 238 105.289 238C105.127 238 104.964 238 104.801 238C104.638 238 104.475 238 104.312 238C104.149 238 103.986 238 103.823 238C103.66 238 103.497 238 103.334 238C103.17 238 103.007 238 102.844 238C102.681 238 102.517 238 102.354 238C102.19 238 102.027 238 101.863 238C101.7 238 101.536 238 101.373 238C101.209 238 101.045 238 100.881 238C100.718 238 100.554 238 100.39 238C100.226 238 100.062 238 99.898 238C99.734 238 99.5699 238 99.4058 238C99.2416 238 99.0774 238 98.9132 238C98.7489 238 98.5846 238 98.4202 238C98.2558 238 98.0913 238 97.9268 238C97.7623 238 97.5977 238 97.433 238C97.2684 238 97.1037 238 96.9389 238C96.7741 238 96.6093 238 96.4443 238C96.2794 238 96.1145 238 95.9494 238C95.7844 238 95.6193 238 95.4541 238C95.2889 238 95.1237 238 94.9584 238C94.7931 238 94.6277 238 94.4622 238C94.2968 238 94.1313 238 93.9657 238C93.8001 238 93.6345 238 93.4688 238C93.303 238 93.1373 238 92.9714 238C92.8055 238 92.6396 238 92.4736 238C92.3076 238 92.1416 238 91.9754 238C91.8093 238 91.6431 238 91.4768 238C91.3105 238 91.1442 238 90.9777 238C90.8113 238 90.6448 238 90.4782 238C90.3117 238 90.145 238 89.9783 238C89.8116 238 89.6448 238 89.478 238C89.3111 238 89.1442 238 88.9771 238C88.8101 238 88.6431 238 88.4759 238C88.3087 238 88.1415 238 87.9742 238C87.8069 238 87.6395 238 87.472 238C87.3046 238 87.137 238 86.9694 238C86.8018 238 86.6341 238 86.4663 238C86.2986 238 86.1307 238 85.9628 238C85.7949 238 85.6269 238 85.4588 238C85.2907 238 85.1225 238 84.9543 238C84.7861 238 84.6178 238 84.4494 238C84.281 238 84.1125 238 83.9439 238C83.7754 238 83.6067 238 83.438 238C83.2693 238 83.1005 238 82.9316 238C82.7627 238 82.5937 238 82.4247 238C82.2557 238 82.0865 238 81.9173 238C81.7481 238 81.5788 238 81.4094 238C81.2401 238 81.0706 238 80.901 238C80.7315 238 80.5619 238 80.3922 238C80.2224 238 80.0526 238 79.8828 238C79.7129 238 79.5429 238 79.3729 238C79.2028 238 79.0327 238 78.8624 238C78.6922 238 78.5219 238 78.3515 238C78.1811 238 78.0106 238 77.84 238C77.6695 238 77.4988 238 77.328 238C77.1573 238 76.9865 238 76.8155 238C76.6446 238 76.4736 238 76.3025 238C76.1314 238 75.9602 238 75.7889 238C75.6176 238 75.4462 238 75.2748 238C75.1033 238 74.9318 238 74.7601 238C74.5885 238 74.4167 238 74.2449 238C74.0731 238 73.9011 238 73.7291 238C73.5571 238 73.385 238 73.2128 238C73.0406 238 72.8683 238 72.6959 238C72.5235 238 72.3511 238 72.1785 238C72.0059 238 71.8333 238 71.6605 238C71.4877 238 71.3149 238 71.1419 238C70.969 238 70.7959 238 70.6228 238C70.4496 238 70.2764 238 70.1031 238C69.9297 238 69.7563 238 69.5828 238C69.4092 238 69.2356 238 69.0619 238C68.8882 238 68.7143 238 68.5404 238C68.3665 238 68.1925 238 68.0184 238C67.8442 238 67.67 238 67.4957 238C67.3214 238 67.147 238 66.9725 238C66.798 238 66.6233 238 66.4486 238C66.2739 238 66.0991 238 65.9242 238C65.7493 238 65.5742 238 65.3991 238C65.224 238 65.0488 238 64.8734 238C64.6981 238 64.5227 238 64.3472 238C64.1716 238 63.996 238 63.8203 238C63.6445 238 63.4687 238 63.2927 238C63.1168 238 62.9407 238 62.7646 238C62.5884 238 62.4122 238 62.2358 238C62.0594 238 61.883 238 61.7064 238C61.5298 238 61.3531 238 61.1763 238C60.9996 238 60.8227 238 60.6457 238C60.4687 238 60.2915 238 60.1143 238C59.9371 238 59.7598 238 59.5823 238C59.4049 238 59.2274 238 59.0497 238C58.8721 238 58.6943 238 58.5164 238C58.3386 238 58.1606 238 57.9825 238C57.8044 238 57.6262 238 57.4479 238C57.2696 238 57.0912 238 56.9126 238C56.7341 238 56.5554 238 56.3767 238C56.1979 238 56.0191 238 55.8401 238C55.6611 238 55.482 238 55.3028 238C55.1236 238 54.9443 238 54.7648 238C54.5854 238 54.4059 238 54.2262 238C54.0465 238 53.8668 238 53.6869 238C53.507 238 53.327 238 53.1468 238C52.9667 238 52.7865 238 52.6061 238C52.4258 238 52.2453 238 52.0647 238C51.8841 238 51.7034 238 51.5226 238C51.3418 238 51.1608 238 50.9798 238C50.7987 238 50.6176 238 50.4363 238C50.255 238 50.0736 238 49.892 238C49.7105 238 49.5288 238 49.3471 238C49.1653 238 48.9834 238 48.8014 238C48.6194 238 48.4373 238 48.255 238C48.0728 238 47.8904 238 47.7079 238C47.5254 238 47.3428 238 47.1601 238C46.9773 238 46.7945 238 46.6115 238C46.4285 238 46.2454 238 46.0622 238C45.8789 238 45.6956 238 45.5121 238C45.3286 238 45.145 238 44.9613 238C44.7776 238 44.5937 238 44.4098 238C44.2258 238 44.0417 238 43.8575 238C43.6732 238 43.4889 238 43.3044 238C43.1199 238 42.9353 238 42.7506 238C42.5659 238 42.381 238 42.196 238C42.011 238 41.8259 238 41.6407 238C41.4555 238 41.2701 238 41.0846 238C40.8991 238 40.7135 238 40.5277 238C40.342 238 40.1561 238 39.9701 238C39.7841 238 39.5979 238 39.4116 238C39.2254 238 39.039 238 38.8524 238C38.6659 238 38.4792 238 38.2924 238C38.1056 238 37.9187 238 37.7316 238C37.5446 238 37.3574 238 37.17 238C36.9827 238 36.7953 238 36.6077 238C36.4201 238 36.2323 238 36.0445 238C35.8566 238 35.6686 238 35.4805 238C35.2924 238 35.1041 238 34.9157 238C34.7273 238 34.5388 238 34.3501 238C34.1614 238 33.9726 238 33.7837 238C33.5947 238 33.4057 238 33.2164 238C33.0272 238 32.8379 238 32.6484 238C32.4589 238 32.2693 238 32.0795 238C31.8897 238 31.6998 238 31.5098 238C31.3197 238 31.1295 238 30.9392 238C30.7489 238 30.5584 238 30.3678 238C30.1772 238 29.9865 238 29.7956 238C29.6047 238 29.4137 238 29.2225 238C29.0314 238 28.8401 238 28.6486 238C28.4572 238 28.2656 238 28.0739 238C27.8821 238 27.6903 238 27.4982 238C27.3062 238 27.1141 238 26.9218 238C26.7295 238 26.537 238 26.3444 238C26.1518 238 25.9591 238 25.7662 238C25.5733 238 25.3803 238 25.1871 238C24.994 238 24.8006 238 24.6072 238C24.4137 238 24.2201 238 24.0264 238C23.8326 238 23.6387 238 23.4447 238C23.2506 238 23.0564 238 22.8621 238C22.6677 238 22.4732 238 22.2786 238C22.084 238 21.8892 238 21.6942 238C21.4993 238 21.3042 238 21.109 238C20.9137 238 20.7184 238 20.5228 238C20.3273 238 20.1316 238 19.9358 238C19.7399 238 19.544 238 19.3478 238C19.1517 238 18.9554 238 18.759 238C18.5625 238 18.3659 238 18.1692 238C17.9724 238 17.7755 238 17.5785 238C17.3814 238 17.1842 238 16.9869 238C16.7895 238 16.592 238 16.3943 238C16.1967 238 15.9988 238 15.8009 238C15.6029 238 15.4048 238 15.2065 238C15.0082 238 14.8098 238 14.6112 238C14.4126 238 14.2138 238 14.0149 238C13.816 238 13.6169 238 13.4177 238C13.2185 238 13.0191 238 12.8196 238C12.62 238 12.4203 238 12.2205 238C12.0206 238 11.8206 238 11.6204 238C11.4202 238 11.2199 238 11.0194 238C10.8189 238 10.6183 238 10.4175 238C10.2167 238 10.0157 238 9.81455 238C9.61342 238 9.41213 238 9.21067 238C9.00922 238 8.8076 238 8.60582 238C8.40404 238 8.2021 238 8 238V239.5ZM290.5 259.5H289V496.5H290.5H292V259.5H290.5ZM310.5 516.5V518H1450.5V516.5V515H310.5V516.5ZM1470.5 496.5H1472V8H1470.5H1469V496.5H1470.5ZM1450.5 516.5V518C1462.37 518 1472 508.374 1472 496.5H1470.5H1469C1469 506.717 1460.72 515 1450.5 515V516.5ZM290.5 496.5H289C289 508.374 298.626 518 310.5 518V516.5V515C300.283 515 292 506.717 292 496.5H290.5ZM270.498 239.5V241C280.716 241 289 249.283 289 259.5H290.5H292C292 247.626 282.372 238 270.498 238V239.5Z" fill="#C12930"/>
</svg>
