<svg width="586" height="465" viewBox="0 0 586 465" fill="none" xmlns="http://www.w3.org/2000/svg">
<path d="M585.5 8C585.5 12.4183 581.918 16 577.5 16C573.082 16 569.5 12.4183 569.5 8C569.5 3.58172 573.082 0 577.5 0C581.918 0 585.5 3.58172 585.5 8ZM16 456.5C16 460.918 12.4183 464.5 8 464.5C3.58173 464.5 0 460.918 0 456.5C0 452.082 3.58173 448.5 8 448.5C12.4183 448.5 16 452.082 16 456.5ZM577.5 8H579V298.5H577.5H576V8H577.5ZM557.5 318.5V320H28V318.5V317H557.5V318.5ZM8 338.5H9.5V456.5H8H6.5V338.5H8ZM28 318.5V320C17.7827 320 9.5 328.283 9.5 338.5H8H6.5C6.5 326.626 16.1259 317 28 317V318.5ZM577.5 298.5H579C579 310.374 569.374 320 557.5 320V318.5V317C567.717 317 576 308.717 576 298.5H577.5Z" fill="#C12930"/>
</svg>
