<svg width="33" height="30" viewBox="0 0 33 30" fill="none" xmlns="http://www.w3.org/2000/svg">
<path d="M30.9738 10.2583L28.7166 3.41834C28.3892 2.42247 27.7593 1.55617 26.9166 0.942513C26.0739 0.32886 25.0612 -0.000930343 24.0224 1.97129e-06H8.97765C7.93879 -0.000930343 6.92606 0.32886 6.08336 0.942513C5.24066 1.55617 4.61084 2.42247 4.2834 3.41834L2.0262 10.2583C1.42597 10.512 0.913375 10.9393 0.55286 11.4864C0.192346 12.0335 -7.93485e-07 12.6761 0 13.3333V21.6667C0 22.8967 0.6666 23.96 1.65 24.5383V28.3333C1.65 28.7754 1.82384 29.1993 2.13327 29.5118C2.44271 29.8244 2.86239 30 3.3 30H4.95C5.38761 30 5.80729 29.8244 6.11673 29.5118C6.42616 29.1993 6.6 28.7754 6.6 28.3333V25H26.4V28.3333C26.4 28.7754 26.5738 29.1993 26.8833 29.5118C27.1927 29.8244 27.6124 30 28.05 30H29.7C30.1376 30 30.5573 29.8244 30.8667 29.5118C31.1762 29.1993 31.35 28.7754 31.35 28.3333V24.5383C31.8506 24.2483 32.2667 23.8302 32.5564 23.3261C32.846 22.8219 32.9991 22.2496 33 21.6667V13.3333C33 12.6761 32.8077 12.0335 32.4471 11.4864C32.0866 10.9393 31.574 10.512 30.9738 10.2583ZM8.97765 3.33333H24.0207C24.7318 3.33333 25.3622 3.79 25.5865 4.47333L27.4115 10H5.58855L7.4118 4.47333C7.52128 4.14132 7.73143 3.85254 8.01248 3.64793C8.29353 3.44332 8.63121 3.33325 8.97765 3.33333ZM5.775 20C5.44987 19.9999 5.12795 19.9351 4.82761 19.8093C4.52727 19.6835 4.25439 19.4992 4.02457 19.2669C3.79474 19.0346 3.61247 18.7589 3.48815 18.4554C3.36382 18.152 3.29989 17.8267 3.3 17.4983C3.30011 17.1699 3.36425 16.8447 3.48878 16.5414C3.6133 16.238 3.79576 15.9624 4.02574 15.7302C4.25571 15.4981 4.52871 15.314 4.82913 15.1884C5.12955 15.0628 5.45152 14.9982 5.77665 14.9983C6.43328 14.9986 7.06293 15.2622 7.52708 15.7314C7.99123 16.2006 8.25187 16.8367 8.25165 17.5C8.25143 18.1633 7.99038 18.7993 7.52591 19.2681C7.06145 19.737 6.43163 20.0002 5.775 20ZM27.225 20C26.8999 19.9999 26.5779 19.9351 26.2776 19.8093C25.9773 19.6835 25.7044 19.4992 25.4746 19.2669C25.2447 19.0346 25.0625 18.7589 24.9381 18.4554C24.8138 18.152 24.7499 17.8267 24.75 17.4983C24.7501 17.1699 24.8143 16.8447 24.9388 16.5414C25.0633 16.238 25.2458 15.9624 25.4757 15.7302C25.7057 15.4981 25.9787 15.314 26.2791 15.1884C26.5796 15.0628 26.9015 14.9982 27.2266 14.9983C27.8833 14.9986 28.5129 15.2622 28.9771 15.7314C29.4412 16.2006 29.7019 16.8367 29.7016 17.5C29.7014 18.1633 29.4404 18.7993 28.9759 19.2681C28.5115 19.737 27.8816 20.0002 27.225 20Z" fill="#1EAF8A"/>
</svg>
